<svg viewBox="0 0 600 400" xmlns="http://www.w3.org/2000/svg">
<g transform="translate(72, 364)">
<g>
<g>
<path d="M-5,-182.57544 l10,10 m-10,0 l10,-10 z" fill="none" stroke="#DD3355" stroke-width="2"/>
<path d="M-5,-182.31 l10,10 m-10,0 l10,-10 z" fill="none" stroke="#DD3355" stroke-width="2"/>
<path d="M-4.2612543,-184.69 l10,10 m-10,0 l10,-10 z" fill="none" stroke="#DD3355" stroke-width="2"/>
<path d="M-3.8918815,-179.19333 l10,10 m-10,0 l10,-10 z" fill="none" stroke="#DD3355" stroke-width="2"/>
<path d="M-2.9684494,-184.91667 l10,10 m-10,0 l10,-10 z" fill="none" stroke="#DD3355" stroke-width="2"/>
<path d="M-2.0450172,-178.74 l10,10 m-10,0 l10,-10 z" fill="none" stroke="#DD3355" stroke-width="2"/>
<path d="M-0.9368988,-178.74 l10,10 m-10,0 l10,-10 z" fill="none" stroke="#DD3355" stroke-width="2"/>
<path d="M-0.567526,-171.54333 l10,10 m-10,0 l10,-10 z" fill="none" stroke="#DD3355" stroke-width="2"/>
<path d="M-0.013466718,-171.6 l10,10 m-10,0 l10,-10 z" fill="none" stroke="#DD3355" stroke-width="2"/>
<path d="M1.2793382,-171.54333 l10,10 m-10,0 l10,-10 z" fill="none" stroke="#DD3355" stroke-width="2"/>
<path d="M1.8333975,-170.92 l10,10 m-10,0 l10,-10 z" fill="none" stroke="#DD3355" stroke-width="2"/>
<path d="M1.8333975,-166.84 l10,10 m-10,0 l10,-10 z" fill="none" stroke="#DD3355" stroke-width="2"/>
<path d="M1.8333975,-169.44667 l10,10 m-10,0 l10,-10 z" fill="none" stroke="#DD3355" stroke-width="2"/>
<path d="M2.3874567,-181.23334 l10,10 m-10,0 l10,-10 z" fill="none" stroke="#DD3355" stroke-width="2"/>
<path d="M6.2658715,-195.68333 l10,10 m-10,0 l10,-10 z" fill="none" stroke="#DD3355" stroke-width="2"/>
<path d="M6.8199306,-213.08 l10,10 m-10,0 l10,-10 z" fill="none" stroke="#DD3355" stroke-width="2"/>
<path d="M7.928049,-219.76666 l10,10 m-10,0 l10,-10 z" fill="none" stroke="#DD3355" stroke-width="2"/>
<path d="M8.112736,-219.76666 l10,10 m-10,0 l10,-10 z" fill="none" stroke="#DD3355" stroke-width="2"/>
<path d="M8.482108,-220.27667 l10,10 m-10,0 l10,-10 z" fill="none" stroke="#DD3355" stroke-width="2"/>
<path d="M8.851481,-218.12334 l10,10 m-10,0 l10,-10 z" fill="none" stroke="#DD3355" stroke-width="2"/>
<path d="M9.036168,-225.71666 l10,10 m-10,0 l10,-10 z" fill="none" stroke="#DD3355" stroke-width="2"/>
<path d="M10.144286,-217.61333 l10,10 m-10,0 l10,-10 z" fill="none" stroke="#DD3355" stroke-width="2"/>
<path d="M10.698345,-213.53334 l10,10 m-10,0 l10,-10 z" fill="none" stroke="#DD3355" stroke-width="2"/>
<path d="M12.175837,-213.53334 l10,10 m-10,0 l10,-10 z" fill="none" stroke="#DD3355" stroke-width="2"/>
<path d="M13.283956,-204.52333 l10,10 m-10,0 l10,-10 z" fill="none" stroke="#DD3355" stroke-width="2"/>
<path d="M15.500193,-201.57666 l10,10 m-10,0 l10,-10 z" fill="none" stroke="#DD3355" stroke-width="2"/>
<path d="M15.869565,-202.48334 l10,10 m-10,0 l10,-10 z" fill="none" stroke="#DD3355" stroke-width="2"/>
<path d="M16.05425,-201.63333 l10,10 m-10,0 l10,-10 z" fill="none" stroke="#DD3355" stroke-width="2"/>
<path d="M16.238937,-201.57666 l10,10 m-10,0 l10,-10 z" fill="none" stroke="#DD3355" stroke-width="2"/>
<path d="M17.716429,-208.09334 l10,10 m-10,0 l10,-10 z" fill="none" stroke="#DD3355" stroke-width="2"/>
<path d="M17.901115,-211.72 l10,10 m-10,0 l10,-10 z" fill="none" stroke="#DD3355" stroke-width="2"/>
<path d="M18.455175,-220.10667 l10,10 m-10,0 l10,-10 z" fill="none" stroke="#DD3355" stroke-width="2"/>
<path d="M18.639862,-212.68333 l10,10 m-10,0 l10,-10 z" fill="none" stroke="#DD3355" stroke-width="2"/>
<path d="M20.671412,-196.02333 l10,10 m-10,0 l10,-10 z" fill="none" stroke="#DD3355" stroke-width="2"/>
<path d="M21.594845,-187.24 l10,10 m-10,0 l10,-10 z" fill="none" stroke="#DD3355" stroke-width="2"/>
<path d="M22.148903,-175.39667 l10,10 m-10,0 l10,-10 z" fill="none" stroke="#DD3355" stroke-width="2"/>
<path d="M25.473259,-167.06667 l10,10 m-10,0 l10,-10 z" fill="none" stroke="#DD3355" stroke-width="2"/>
<path d="M26.581377,-163.72333 l10,10 m-10,0 l10,-10 z" fill="none" stroke="#DD3355" stroke-width="2"/>
<path d="M26.581377,-162.81667 l10,10 m-10,0 l10,-10 z" fill="none" stroke="#DD3355" stroke-width="2"/>
<path d="M28.058868,-166.61333 l10,10 m-10,0 l10,-10 z" fill="none" stroke="#DD3355" stroke-width="2"/>
<path d="M28.428242,-157.60333 l10,10 m-10,0 l10,-10 z" fill="none" stroke="#DD3355" stroke-width="2"/>
<path d="M28.612928,-165.59334 l10,10 m-10,0 l10,-10 z" fill="none" stroke="#DD3355" stroke-width="2"/>
<path d="M29.721046,-164.63 l10,10 m-10,0 l10,-10 z" fill="none" stroke="#DD3355" stroke-width="2"/>
<path d="M31.198538,-163.72333 l10,10 m-10,0 l10,-10 z" fill="none" stroke="#DD3355" stroke-width="2"/>
<path d="M31.198538,-171.77 l10,10 m-10,0 l10,-10 z" fill="none" stroke="#DD3355" stroke-width="2"/>
<path d="M31.383224,-175.34 l10,10 m-10,0 l10,-10 z" fill="none" stroke="#DD3355" stroke-width="2"/>
<path d="M31.567911,-174.43333 l10,10 m-10,0 l10,-10 z" fill="none" stroke="#DD3355" stroke-width="2"/>
<path d="M38.40131,-165.59334 l10,10 m-10,0 l10,-10 z" fill="none" stroke="#DD3355" stroke-width="2"/>
<path d="M38.40131,-165.59334 l10,10 m-10,0 l10,-10 z" fill="none" stroke="#DD3355" stroke-width="2"/>
<path d="M38.40131,-159.07666 l10,10 m-10,0 l10,-10 z" fill="none" stroke="#DD3355" stroke-width="2"/>
<path d="M38.77068,-155.45 l10,10 m-10,0 l10,-10 z" fill="none" stroke="#DD3355" stroke-width="2"/>
<path d="M39.32474,-147.06334 l10,10 m-10,0 l10,-10 z" fill="none" stroke="#DD3355" stroke-width="2"/>
<path d="M41.725662,-151.82333 l10,10 m-10,0 l10,-10 z" fill="none" stroke="#DD3355" stroke-width="2"/>
<path d="M42.46441,-156.69667 l10,10 m-10,0 l10,-10 z" fill="none" stroke="#DD3355" stroke-width="2"/>
<path d="M42.649097,-139.47 l10,10 m-10,0 l10,-10 z" fill="none" stroke="#DD3355" stroke-width="2"/>
<path d="M44.865334,-150.86 l10,10 m-10,0 l10,-10 z" fill="none" stroke="#DD3355" stroke-width="2"/>
<path d="M47.820316,-157.37666 l10,10 m-10,0 l10,-10 z" fill="none" stroke="#DD3355" stroke-width="2"/>
<path d="M49.482494,-160.72 l10,10 m-10,0 l10,-10 z" fill="none" stroke="#DD3355" stroke-width="2"/>
<path d="M50.959984,-161.11667 l10,10 m-10,0 l10,-10 z" fill="none" stroke="#DD3355" stroke-width="2"/>
<path d="M50.959984,-159.47333 l10,10 m-10,0 l10,-10 z" fill="none" stroke="#DD3355" stroke-width="2"/>
<path d="M50.959984,-160.89 l10,10 m-10,0 l10,-10 z" fill="none" stroke="#DD3355" stroke-width="2"/>
<path d="M52.25279,-160.89 l10,10 m-10,0 l10,-10 z" fill="none" stroke="#DD3355" stroke-width="2"/>
<path d="M52.437477,-162.25 l10,10 m-10,0 l10,-10 z" fill="none" stroke="#DD3355" stroke-width="2"/>
<path d="M53.73028,-163.15666 l10,10 m-10,0 l10,-10 z" fill="none" stroke="#DD3355" stroke-width="2"/>
<path d="M54.838398,-164.12 l10,10 m-10,0 l10,-10 z" fill="none" stroke="#DD3355" stroke-width="2"/>
<path d="M55.20777,-163.55333 l10,10 m-10,0 l10,-10 z" fill="none" stroke="#DD3355" stroke-width="2"/>
<path d="M55.39246,-163.55333 l10,10 m-10,0 l10,-10 z" fill="none" stroke="#DD3355" stroke-width="2"/>
<path d="M56.31589,-173.24333 l10,10 m-10,0 l10,-10 z" fill="none" stroke="#DD3355" stroke-width="2"/>
<path d="M56.86995,-173.24333 l10,10 m-10,0 l10,-10 z" fill="none" stroke="#DD3355" stroke-width="2"/>
<path d="M57.239323,-173.24333 l10,10 m-10,0 l10,-10 z" fill="none" stroke="#DD3355" stroke-width="2"/>
<path d="M57.239323,-173.01666 l10,10 m-10,0 l10,-10 z" fill="none" stroke="#DD3355" stroke-width="2"/>
<path d="M57.608696,-172.90334 l10,10 m-10,0 l10,-10 z" fill="none" stroke="#DD3355" stroke-width="2"/>
<path d="M59.270874,-173.24333 l10,10 m-10,0 l10,-10 z" fill="none" stroke="#DD3355" stroke-width="2"/>
<path d="M59.45556,-173.24333 l10,10 m-10,0 l10,-10 z" fill="none" stroke="#DD3355" stroke-width="2"/>
<path d="M59.45556,-190.47 l10,10 m-10,0 l10,-10 z" fill="none" stroke="#DD3355" stroke-width="2"/>
<path d="M59.45556,-179.81667 l10,10 m-10,0 l10,-10 z" fill="none" stroke="#DD3355" stroke-width="2"/>
<path d="M59.640247,-179.81667 l10,10 m-10,0 l10,-10 z" fill="none" stroke="#DD3355" stroke-width="2"/>
<path d="M60.194305,-179.81667 l10,10 m-10,0 l10,-10 z" fill="none" stroke="#DD3355" stroke-width="2"/>
<path d="M60.194305,-179.81667 l10,10 m-10,0 l10,-10 z" fill="none" stroke="#DD3355" stroke-width="2"/>
<path d="M60.748363,-186.78667 l10,10 m-10,0 l10,-10 z" fill="none" stroke="#DD3355" stroke-width="2"/>
<path d="M60.748363,-186.78667 l10,10 m-10,0 l10,-10 z" fill="none" stroke="#DD3355" stroke-width="2"/>
<path d="M61.48711,-191.43333 l10,10 m-10,0 l10,-10 z" fill="none" stroke="#DD3355" stroke-width="2"/>
<path d="M61.6718,-191.43333 l10,10 m-10,0 l10,-10 z" fill="none" stroke="#DD3355" stroke-width="2"/>
<path d="M63.333973,-191.43333 l10,10 m-10,0 l10,-10 z" fill="none" stroke="#DD3355" stroke-width="2"/>
<path d="M63.888035,-191.43333 l10,10 m-10,0 l10,-10 z" fill="none" stroke="#DD3355" stroke-width="2"/>
<path d="M64.07272,-191.43333 l10,10 m-10,0 l10,-10 z" fill="none" stroke="#DD3355" stroke-width="2"/>
<path d="M64.44209,-205.71333 l10,10 m-10,0 l10,-10 z" fill="none" stroke="#DD3355" stroke-width="2"/>
<path d="M64.44209,-205.77 l10,10 m-10,0 l10,-10 z" fill="none" stroke="#DD3355" stroke-width="2"/>
<path d="M68.32051,-210.53 l10,10 m-10,0 l10,-10 z" fill="none" stroke="#DD3355" stroke-width="2"/>
<path d="M72.93767,-210.53 l10,10 m-10,0 l10,-10 z" fill="none" stroke="#DD3355" stroke-width="2"/>
<path d="M72.93767,-215.97 l10,10 m-10,0 l10,-10 z" fill="none" stroke="#DD3355" stroke-width="2"/>
<path d="M73.12235,-216.08333 l10,10 m-10,0 l10,-10 z" fill="none" stroke="#DD3355" stroke-width="2"/>
<path d="M73.49173,-215.8 l10,10 m-10,0 l10,-10 z" fill="none" stroke="#DD3355" stroke-width="2"/>
<path d="M73.676414,-215.8 l10,10 m-10,0 l10,-10 z" fill="none" stroke="#DD3355" stroke-width="2"/>
<path d="M73.676414,-227.13333 l10,10 m-10,0 l10,-10 z" fill="none" stroke="#DD3355" stroke-width="2"/>
<path d="M73.676414,-228.60667 l10,10 m-10,0 l10,-10 z" fill="none" stroke="#DD3355" stroke-width="2"/>
<path d="M73.676414,-223.73334 l10,10 m-10,0 l10,-10 z" fill="none" stroke="#DD3355" stroke-width="2"/>
<path d="M73.676414,-223.73334 l10,10 m-10,0 l10,-10 z" fill="none" stroke="#DD3355" stroke-width="2"/>
<path d="M74.23048,-232.00667 l10,10 m-10,0 l10,-10 z" fill="none" stroke="#DD3355" stroke-width="2"/>
<path d="M74.41516,-225.88667 l10,10 m-10,0 l10,-10 z" fill="none" stroke="#DD3355" stroke-width="2"/>
<path d="M75.52328,-224.35667 l10,10 m-10,0 l10,-10 z" fill="none" stroke="#DD3355" stroke-width="2"/>
<path d="M75.892654,-216.65 l10,10 m-10,0 l10,-10 z" fill="none" stroke="#DD3355" stroke-width="2"/>
<path d="M78.29357,-216.25333 l10,10 m-10,0 l10,-10 z" fill="none" stroke="#DD3355" stroke-width="2"/>
<path d="M79.771065,-210.7 l10,10 m-10,0 l10,-10 z" fill="none" stroke="#DD3355" stroke-width="2"/>
<path d="M81.987305,-210.7 l10,10 m-10,0 l10,-10 z" fill="none" stroke="#DD3355" stroke-width="2"/>
<path d="M84.01885,-194.09666 l10,10 m-10,0 l10,-10 z" fill="none" stroke="#DD3355" stroke-width="2"/>
<path d="M84.572914,-179.81667 l10,10 m-10,0 l10,-10 z" fill="none" stroke="#DD3355" stroke-width="2"/>
<path d="M84.572914,-179.76 l10,10 m-10,0 l10,-10 z" fill="none" stroke="#DD3355" stroke-width="2"/>
<path d="M87.52789,-175 l10,10 m-10,0 l10,-10 z" fill="none" stroke="#DD3355" stroke-width="2"/>
<path d="M89.374756,-175 l10,10 m-10,0 l10,-10 z" fill="none" stroke="#DD3355" stroke-width="2"/>
<path d="M89.92882,-169.78667 l10,10 m-10,0 l10,-10 z" fill="none" stroke="#DD3355" stroke-width="2"/>
<path d="M92.69911,-169.78667 l10,10 m-10,0 l10,-10 z" fill="none" stroke="#DD3355" stroke-width="2"/>
<path d="M94.54598,-175.56667 l10,10 m-10,0 l10,-10 z" fill="none" stroke="#DD3355" stroke-width="2"/>
<path d="M95.10004,-170.18333 l10,10 m-10,0 l10,-10 z" fill="none" stroke="#DD3355" stroke-width="2"/>
<path d="M95.6541,-158.68 l10,10 m-10,0 l10,-10 z" fill="none" stroke="#DD3355" stroke-width="2"/>
<path d="M97.87034,-157.20667 l10,10 m-10,0 l10,-10 z" fill="none" stroke="#DD3355" stroke-width="2"/>
<path d="M98.05502,-157.20667 l10,10 m-10,0 l10,-10 z" fill="none" stroke="#DD3355" stroke-width="2"/>
<path d="M98.05502,-157.20667 l10,10 m-10,0 l10,-10 z" fill="none" stroke="#DD3355" stroke-width="2"/>
<path d="M98.978455,-148.76334 l10,10 m-10,0 l10,-10 z" fill="none" stroke="#DD3355" stroke-width="2"/>
<path d="M99.53251,-147.91333 l10,10 m-10,0 l10,-10 z" fill="none" stroke="#DD3355" stroke-width="2"/>
<path d="M99.7172,-149.44333 l10,10 m-10,0 l10,-10 z" fill="none" stroke="#DD3355" stroke-width="2"/>
<path d="M100.08657,-142.07666 l10,10 m-10,0 l10,-10 z" fill="none" stroke="#DD3355" stroke-width="2"/>
<path d="M105.81185,-132.67 l10,10 m-10,0 l10,-10 z" fill="none" stroke="#DD3355" stroke-width="2"/>
<path d="M105.99654,-138.28 l10,10 m-10,0 l10,-10 z" fill="none" stroke="#DD3355" stroke-width="2"/>
<path d="M107.10465,-138.16667 l10,10 m-10,0 l10,-10 z" fill="none" stroke="#DD3355" stroke-width="2"/>
<path d="M107.658714,-154.94 l10,10 m-10,0 l10,-10 z" fill="none" stroke="#DD3355" stroke-width="2"/>
<path d="M108.76683,-154.09 l10,10 m-10,0 l10,-10 z" fill="none" stroke="#DD3355" stroke-width="2"/>
<path d="M112.09119,-151.37 l10,10 m-10,0 l10,-10 z" fill="none" stroke="#DD3355" stroke-width="2"/>
<path d="M113.01462,-149.61333 l10,10 m-10,0 l10,-10 z" fill="none" stroke="#DD3355" stroke-width="2"/>
<path d="M113.383995,-149.55667 l10,10 m-10,0 l10,-10 z" fill="none" stroke="#DD3355" stroke-width="2"/>
<path d="M114.49211,-149.55667 l10,10 m-10,0 l10,-10 z" fill="none" stroke="#DD3355" stroke-width="2"/>
<path d="M116.338974,-149.55667 l10,10 m-10,0 l10,-10 z" fill="none" stroke="#DD3355" stroke-width="2"/>
<path d="M118.00115,-143.77667 l10,10 m-10,0 l10,-10 z" fill="none" stroke="#DD3355" stroke-width="2"/>
<path d="M118.00115,-149.16 l10,10 m-10,0 l10,-10 z" fill="none" stroke="#DD3355" stroke-width="2"/>
<path d="M118.00115,-149.33 l10,10 m-10,0 l10,-10 z" fill="none" stroke="#DD3355" stroke-width="2"/>
<path d="M118.185844,-149.33 l10,10 m-10,0 l10,-10 z" fill="none" stroke="#DD3355" stroke-width="2"/>
<path d="M120.21739,-149.16 l10,10 m-10,0 l10,-10 z" fill="none" stroke="#DD3355" stroke-width="2"/>
<path d="M128.1589,-139.98 l10,10 m-10,0 l10,-10 z" fill="none" stroke="#DD3355" stroke-width="2"/>
<path d="M129.08234,-136.69333 l10,10 m-10,0 l10,-10 z" fill="none" stroke="#DD3355" stroke-width="2"/>
<path d="M131.85263,-134.65334 l10,10 m-10,0 l10,-10 z" fill="none" stroke="#DD3355" stroke-width="2"/>
<path d="M132.22202,-133.01 l10,10 m-10,0 l10,-10 z" fill="none" stroke="#DD3355" stroke-width="2"/>
<path d="M132.22202,-145.08 l10,10 m-10,0 l10,-10 z" fill="none" stroke="#DD3355" stroke-width="2"/>
<path d="M132.4067,-151.88 l10,10 m-10,0 l10,-10 z" fill="none" stroke="#DD3355" stroke-width="2"/>
<path d="M132.77606,-151.82333 l10,10 m-10,0 l10,-10 z" fill="none" stroke="#DD3355" stroke-width="2"/>
<path d="M133.6995,-152.67334 l10,10 m-10,0 l10,-10 z" fill="none" stroke="#DD3355" stroke-width="2"/>
<path d="M136.28511,-153.46666 l10,10 m-10,0 l10,-10 z" fill="none" stroke="#DD3355" stroke-width="2"/>
<path d="M137.02385,-155.11 l10,10 m-10,0 l10,-10 z" fill="none" stroke="#DD3355" stroke-width="2"/>
<path d="M138.68604,-159.58667 l10,10 m-10,0 l10,-10 z" fill="none" stroke="#DD3355" stroke-width="2"/>
<path d="M139.2401,-161.34334 l10,10 m-10,0 l10,-10 z" fill="none" stroke="#DD3355" stroke-width="2"/>
<path d="M141.45633,-161.4 l10,10 m-10,0 l10,-10 z" fill="none" stroke="#DD3355" stroke-width="2"/>
<path d="M143.48788,-161.4 l10,10 m-10,0 l10,-10 z" fill="none" stroke="#DD3355" stroke-width="2"/>
<path d="M146.25818,-161.4 l10,10 m-10,0 l10,-10 z" fill="none" stroke="#DD3355" stroke-width="2"/>
<path d="M146.25818,-149.04666 l10,10 m-10,0 l10,-10 z" fill="none" stroke="#DD3355" stroke-width="2"/>
<path d="M146.25818,-144.85333 l10,10 m-10,0 l10,-10 z" fill="none" stroke="#DD3355" stroke-width="2"/>
<path d="M146.25818,-144.85333 l10,10 m-10,0 l10,-10 z" fill="none" stroke="#DD3355" stroke-width="2"/>
<path d="M146.62755,-143.15334 l10,10 m-10,0 l10,-10 z" fill="none" stroke="#DD3355" stroke-width="2"/>
<path d="M146.81224,-143.32333 l10,10 m-10,0 l10,-10 z" fill="none" stroke="#DD3355" stroke-width="2"/>
<path d="M149.21317,-147.23334 l10,10 m-10,0 l10,-10 z" fill="none" stroke="#DD3355" stroke-width="2"/>
<path d="M149.76721,-149.61333 l10,10 m-10,0 l10,-10 z" fill="none" stroke="#DD3355" stroke-width="2"/>
<path d="M149.9519,-151.65334 l10,10 m-10,0 l10,-10 z" fill="none" stroke="#DD3355" stroke-width="2"/>
<path d="M150.87534,-153.29666 l10,10 m-10,0 l10,-10 z" fill="none" stroke="#DD3355" stroke-width="2"/>
<path d="M150.87534,-151.65334 l10,10 m-10,0 l10,-10 z" fill="none" stroke="#DD3355" stroke-width="2"/>
<path d="M152.16814,-150.12334 l10,10 m-10,0 l10,-10 z" fill="none" stroke="#DD3355" stroke-width="2"/>
<path d="M152.53752,-151.08667 l10,10 m-10,0 l10,-10 z" fill="none" stroke="#DD3355" stroke-width="2"/>
<path d="M154.56906,-148.02667 l10,10 m-10,0 l10,-10 z" fill="none" stroke="#DD3355" stroke-width="2"/>
<path d="M155.30782,-145.47667 l10,10 m-10,0 l10,-10 z" fill="none" stroke="#DD3355" stroke-width="2"/>
<path d="M159.5556,-151.03 l10,10 m-10,0 l10,-10 z" fill="none" stroke="#DD3355" stroke-width="2"/>
<path d="M161.95653,-162.93 l10,10 m-10,0 l10,-10 z" fill="none" stroke="#DD3355" stroke-width="2"/>
<path d="M163.98807,-168.31334 l10,10 m-10,0 l10,-10 z" fill="none" stroke="#DD3355" stroke-width="2"/>
<path d="M164.35745,-168.25667 l10,10 m-10,0 l10,-10 z" fill="none" stroke="#DD3355" stroke-width="2"/>
<path d="M164.72682,-167.29333 l10,10 m-10,0 l10,-10 z" fill="none" stroke="#DD3355" stroke-width="2"/>
<path d="M165.65025,-181.34666 l10,10 m-10,0 l10,-10 z" fill="none" stroke="#DD3355" stroke-width="2"/>
<path d="M166.20432,-197.95 l10,10 m-10,0 l10,-10 z" fill="none" stroke="#DD3355" stroke-width="2"/>
<path d="M166.38899,-202.14333 l10,10 m-10,0 l10,-10 z" fill="none" stroke="#DD3355" stroke-width="2"/>
<path d="M167.12775,-202.2 l10,10 m-10,0 l10,-10 z" fill="none" stroke="#DD3355" stroke-width="2"/>
<path d="M167.31242,-203.84334 l10,10 m-10,0 l10,-10 z" fill="none" stroke="#DD3355" stroke-width="2"/>
<path d="M168.05118,-207.64 l10,10 m-10,0 l10,-10 z" fill="none" stroke="#DD3355" stroke-width="2"/>
<path d="M170.4521,-212.51334 l10,10 m-10,0 l10,-10 z" fill="none" stroke="#DD3355" stroke-width="2"/>
<path d="M171.92958,-214.61 l10,10 m-10,0 l10,-10 z" fill="none" stroke="#DD3355" stroke-width="2"/>
<path d="M171.92958,-214.61 l10,10 m-10,0 l10,-10 z" fill="none" stroke="#DD3355" stroke-width="2"/>
<path d="M172.48364,-215.74333 l10,10 m-10,0 l10,-10 z" fill="none" stroke="#DD3355" stroke-width="2"/>
<path d="M173.77646,-215.74333 l10,10 m-10,0 l10,-10 z" fill="none" stroke="#DD3355" stroke-width="2"/>
<path d="M173.96114,-220.27667 l10,10 m-10,0 l10,-10 z" fill="none" stroke="#DD3355" stroke-width="2"/>
<path d="M174.3305,-215.68666 l10,10 m-10,0 l10,-10 z" fill="none" stroke="#DD3355" stroke-width="2"/>
<path d="M175.06926,-216.99 l10,10 m-10,0 l10,-10 z" fill="none" stroke="#DD3355" stroke-width="2"/>
<path d="M175.62332,-218.57666 l10,10 m-10,0 l10,-10 z" fill="none" stroke="#DD3355" stroke-width="2"/>
<path d="M176.17738,-212.23 l10,10 m-10,0 l10,-10 z" fill="none" stroke="#DD3355" stroke-width="2"/>
<path d="M177.28549,-204.35333 l10,10 m-10,0 l10,-10 z" fill="none" stroke="#DD3355" stroke-width="2"/>
<path d="M177.65486,-196.70334 l10,10 m-10,0 l10,-10 z" fill="none" stroke="#DD3355" stroke-width="2"/>
<path d="M177.83955,-194.49333 l10,10 m-10,0 l10,-10 z" fill="none" stroke="#DD3355" stroke-width="2"/>
<path d="M178.5783,-195.4 l10,10 m-10,0 l10,-10 z" fill="none" stroke="#DD3355" stroke-width="2"/>
<path d="M183.56483,-185.99333 l10,10 m-10,0 l10,-10 z" fill="none" stroke="#DD3355" stroke-width="2"/>
<path d="M184.1189,-190.01666 l10,10 m-10,0 l10,-10 z" fill="none" stroke="#DD3355" stroke-width="2"/>
<path d="M185.78107,-195.68333 l10,10 m-10,0 l10,-10 z" fill="none" stroke="#DD3355" stroke-width="2"/>
<path d="M187.44325,-205.6 l10,10 m-10,0 l10,-10 z" fill="none" stroke="#DD3355" stroke-width="2"/>
<path d="M189.65948,-206.45 l10,10 m-10,0 l10,-10 z" fill="none" stroke="#DD3355" stroke-width="2"/>
<path d="M190.58292,-196.42 l10,10 m-10,0 l10,-10 z" fill="none" stroke="#DD3355" stroke-width="2"/>
<path d="M192.98384,-201.74667 l10,10 m-10,0 l10,-10 z" fill="none" stroke="#DD3355" stroke-width="2"/>
<path d="M193.5379,-195.68333 l10,10 m-10,0 l10,-10 z" fill="none" stroke="#DD3355" stroke-width="2"/>
<path d="M194.09196,-195.68333 l10,10 m-10,0 l10,-10 z" fill="none" stroke="#DD3355" stroke-width="2"/>
<path d="M194.09196,-194.55 l10,10 m-10,0 l10,-10 z" fill="none" stroke="#DD3355" stroke-width="2"/>
<path d="M194.27664,-194.55 l10,10 m-10,0 l10,-10 z" fill="none" stroke="#DD3355" stroke-width="2"/>
<path d="M195.0154,-190.69667 l10,10 m-10,0 l10,-10 z" fill="none" stroke="#DD3355" stroke-width="2"/>
<path d="M195.38477,-194.38 l10,10 m-10,0 l10,-10 z" fill="none" stroke="#DD3355" stroke-width="2"/>
<path d="M195.38477,-194.72 l10,10 m-10,0 l10,-10 z" fill="none" stroke="#DD3355" stroke-width="2"/>
<path d="M195.38477,-194.72 l10,10 m-10,0 l10,-10 z" fill="none" stroke="#DD3355" stroke-width="2"/>
<path d="M197.97037,-189.11 l10,10 m-10,0 l10,-10 z" fill="none" stroke="#DD3355" stroke-width="2"/>
<path d="M200.55598,-178.91 l10,10 m-10,0 l10,-10 z" fill="none" stroke="#DD3355" stroke-width="2"/>
<path d="M203.14159,-178.74 l10,10 m-10,0 l10,-10 z" fill="none" stroke="#DD3355" stroke-width="2"/>
<path d="M203.14159,-181.00667 l10,10 m-10,0 l10,-10 z" fill="none" stroke="#DD3355" stroke-width="2"/>
<path d="M206.09657,-161.57 l10,10 m-10,0 l10,-10 z" fill="none" stroke="#DD3355" stroke-width="2"/>
<path d="M206.46594,-147.74333 l10,10 m-10,0 l10,-10 z" fill="none" stroke="#DD3355" stroke-width="2"/>
<path d="M207.02,-139.41333 l10,10 m-10,0 l10,-10 z" fill="none" stroke="#DD3355" stroke-width="2"/>
<path d="M207.75876,-134.88 l10,10 m-10,0 l10,-10 z" fill="none" stroke="#DD3355" stroke-width="2"/>
<path d="M208.68219,-124.90667 l10,10 m-10,0 l10,-10 z" fill="none" stroke="#DD3355" stroke-width="2"/>
<path d="M208.86687,-123.09333 l10,10 m-10,0 l10,-10 z" fill="none" stroke="#DD3355" stroke-width="2"/>
<path d="M209.60562,-129.1 l10,10 m-10,0 l10,-10 z" fill="none" stroke="#DD3355" stroke-width="2"/>
<path d="M210.89842,-124.17 l10,10 m-10,0 l10,-10 z" fill="none" stroke="#DD3355" stroke-width="2"/>
<path d="M211.08311,-129.21333 l10,10 m-10,0 l10,-10 z" fill="none" stroke="#DD3355" stroke-width="2"/>
<path d="M216.25433,-132.38667 l10,10 m-10,0 l10,-10 z" fill="none" stroke="#DD3355" stroke-width="2"/>
<path d="M216.6237,-134.14333 l10,10 m-10,0 l10,-10 z" fill="none" stroke="#DD3355" stroke-width="2"/>
<path d="M219.57869,-158 l10,10 m-10,0 l10,-10 z" fill="none" stroke="#DD3355" stroke-width="2"/>
<path d="M221.61023,-164.46 l10,10 m-10,0 l10,-10 z" fill="none" stroke="#DD3355" stroke-width="2"/>
<path d="M221.79492,-164.40334 l10,10 m-10,0 l10,-10 z" fill="none" stroke="#DD3355" stroke-width="2"/>
<path d="M222.34898,-162.02333 l10,10 m-10,0 l10,-10 z" fill="none" stroke="#DD3355" stroke-width="2"/>
<path d="M223.45709,-153.58 l10,10 m-10,0 l10,-10 z" fill="none" stroke="#DD3355" stroke-width="2"/>
<path d="M223.64178,-159.19 l10,10 m-10,0 l10,-10 z" fill="none" stroke="#DD3355" stroke-width="2"/>
<path d="M224.01115,-163.61 l10,10 m-10,0 l10,-10 z" fill="none" stroke="#DD3355" stroke-width="2"/>
<path d="M225.11928,-172.62 l10,10 m-10,0 l10,-10 z" fill="none" stroke="#DD3355" stroke-width="2"/>
<path d="M225.30397,-175.05667 l10,10 m-10,0 l10,-10 z" fill="none" stroke="#DD3355" stroke-width="2"/>
<path d="M227.88957,-187.18333 l10,10 m-10,0 l10,-10 z" fill="none" stroke="#DD3355" stroke-width="2"/>
<path d="M228.25894,-196.87334 l10,10 m-10,0 l10,-10 z" fill="none" stroke="#DD3355" stroke-width="2"/>
<path d="M228.62831,-197.55333 l10,10 m-10,0 l10,-10 z" fill="none" stroke="#DD3355" stroke-width="2"/>
<path d="M229.92113,-194.04 l10,10 m-10,0 l10,-10 z" fill="none" stroke="#DD3355" stroke-width="2"/>
<path d="M230.84456,-194.04 l10,10 m-10,0 l10,-10 z" fill="none" stroke="#DD3355" stroke-width="2"/>
<path d="M231.02924,-195.06 l10,10 m-10,0 l10,-10 z" fill="none" stroke="#DD3355" stroke-width="2"/>
<path d="M232.13736,-200.84 l10,10 m-10,0 l10,-10 z" fill="none" stroke="#DD3355" stroke-width="2"/>
<path d="M233.79955,-195.23 l10,10 m-10,0 l10,-10 z" fill="none" stroke="#DD3355" stroke-width="2"/>
<path d="M233.98422,-195.34334 l10,10 m-10,0 l10,-10 z" fill="none" stroke="#DD3355" stroke-width="2"/>
<path d="M234.72298,-189.22333 l10,10 m-10,0 l10,-10 z" fill="none" stroke="#DD3355" stroke-width="2"/>
<path d="M235.27702,-185.48334 l10,10 m-10,0 l10,-10 z" fill="none" stroke="#DD3355" stroke-width="2"/>
<path d="M235.27702,-162.13667 l10,10 m-10,0 l10,-10 z" fill="none" stroke="#DD3355" stroke-width="2"/>
<path d="M238.04733,-153.24 l10,10 m-10,0 l10,-10 z" fill="none" stroke="#DD3355" stroke-width="2"/>
<path d="M238.23201,-153.35333 l10,10 m-10,0 l10,-10 z" fill="none" stroke="#DD3355" stroke-width="2"/>
<path d="M238.23201,-156.41333 l10,10 m-10,0 l10,-10 z" fill="none" stroke="#DD3355" stroke-width="2"/>
<path d="M238.60138,-168.65334 l10,10 m-10,0 l10,-10 z" fill="none" stroke="#DD3355" stroke-width="2"/>
<path d="M238.78607,-168.65334 l10,10 m-10,0 l10,-10 z" fill="none" stroke="#DD3355" stroke-width="2"/>
<path d="M239.34013,-165.82 l10,10 m-10,0 l10,-10 z" fill="none" stroke="#DD3355" stroke-width="2"/>
<path d="M239.52481,-159.24667 l10,10 m-10,0 l10,-10 z" fill="none" stroke="#DD3355" stroke-width="2"/>
<path d="M239.8942,-155.90334 l10,10 m-10,0 l10,-10 z" fill="none" stroke="#DD3355" stroke-width="2"/>
<path d="M243.40323,-153.46666 l10,10 m-10,0 l10,-10 z" fill="none" stroke="#DD3355" stroke-width="2"/>
<path d="M245.80415,-151.03 l10,10 m-10,0 l10,-10 z" fill="none" stroke="#DD3355" stroke-width="2"/>
<path d="M249.68257,-150.12334 l10,10 m-10,0 l10,-10 z" fill="none" stroke="#DD3355" stroke-width="2"/>
<path d="M250.05194,-155.67667 l10,10 m-10,0 l10,-10 z" fill="none" stroke="#DD3355" stroke-width="2"/>
<path d="M250.05194,-156.18666 l10,10 m-10,0 l10,-10 z" fill="none" stroke="#DD3355" stroke-width="2"/>
<path d="M251.52943,-152.44667 l10,10 m-10,0 l10,-10 z" fill="none" stroke="#DD3355" stroke-width="2"/>
<path d="M251.71413,-146.89333 l10,10 m-10,0 l10,-10 z" fill="none" stroke="#DD3355" stroke-width="2"/>
<path d="M253.1916,-152.50333 l10,10 m-10,0 l10,-10 z" fill="none" stroke="#DD3355" stroke-width="2"/>
<path d="M253.1916,-149.27333 l10,10 m-10,0 l10,-10 z" fill="none" stroke="#DD3355" stroke-width="2"/>
<path d="M253.1916,-141.11333 l10,10 m-10,0 l10,-10 z" fill="none" stroke="#DD3355" stroke-width="2"/>
<path d="M257.2547,-113.97 l10,10 m-10,0 l10,-10 z" fill="none" stroke="#DD3355" stroke-width="2"/>
<path d="M257.62408,-116.916664 l10,10 m-10,0 l10,-10 z" fill="none" stroke="#DD3355" stroke-width="2"/>
<path d="M257.99347,-127.4 l10,10 m-10,0 l10,-10 z" fill="none" stroke="#DD3355" stroke-width="2"/>
<path d="M258.7322,-121.166664 l10,10 m-10,0 l10,-10 z" fill="none" stroke="#DD3355" stroke-width="2"/>
<path d="M259.28625,-121.903336 l10,10 m-10,0 l10,-10 z" fill="none" stroke="#DD3355" stroke-width="2"/>
<path d="M260.2097,-120.26 l10,10 m-10,0 l10,-10 z" fill="none" stroke="#DD3355" stroke-width="2"/>
<path d="M260.76376,-121.903336 l10,10 m-10,0 l10,-10 z" fill="none" stroke="#DD3355" stroke-width="2"/>
<path d="M261.5025,-119.46667 l10,10 m-10,0 l10,-10 z" fill="none" stroke="#DD3355" stroke-width="2"/>
<path d="M263.9034,-115.10333 l10,10 m-10,0 l10,-10 z" fill="none" stroke="#DD3355" stroke-width="2"/>
<path d="M264.4575,-117.48333 l10,10 m-10,0 l10,-10 z" fill="none" stroke="#DD3355" stroke-width="2"/>
<path d="M267.22778,-140.03667 l10,10 m-10,0 l10,-10 z" fill="none" stroke="#DD3355" stroke-width="2"/>
<path d="M267.78183,-143.49333 l10,10 m-10,0 l10,-10 z" fill="none" stroke="#DD3355" stroke-width="2"/>
<path d="M269.07465,-154.77 l10,10 m-10,0 l10,-10 z" fill="none" stroke="#DD3355" stroke-width="2"/>
<path d="M269.8134,-150.23666 l10,10 m-10,0 l10,-10 z" fill="none" stroke="#DD3355" stroke-width="2"/>
<path d="M270.73682,-149.89667 l10,10 m-10,0 l10,-10 z" fill="none" stroke="#DD3355" stroke-width="2"/>
<path d="M273.5071,-155.28 l10,10 m-10,0 l10,-10 z" fill="none" stroke="#DD3355" stroke-width="2"/>
<path d="M274.24585,-155.28 l10,10 m-10,0 l10,-10 z" fill="none" stroke="#DD3355" stroke-width="2"/>
<path d="M274.98462,-147.8 l10,10 m-10,0 l10,-10 z" fill="none" stroke="#DD3355" stroke-width="2"/>
<path d="M280.5252,-154.82666 l10,10 m-10,0 l10,-10 z" fill="none" stroke="#DD3355" stroke-width="2"/>
<path d="M280.7099,-165.93333 l10,10 m-10,0 l10,-10 z" fill="none" stroke="#DD3355" stroke-width="2"/>
<path d="M281.26395,-190.86667 l10,10 m-10,0 l10,-10 z" fill="none" stroke="#DD3355" stroke-width="2"/>
<path d="M282.37207,-184.80333 l10,10 m-10,0 l10,-10 z" fill="none" stroke="#DD3355" stroke-width="2"/>
<path d="M282.37207,-180.61 l10,10 m-10,0 l10,-10 z" fill="none" stroke="#DD3355" stroke-width="2"/>
<path d="M282.55676,-186.73 l10,10 m-10,0 l10,-10 z" fill="none" stroke="#DD3355" stroke-width="2"/>
<path d="M283.84955,-190.86667 l10,10 m-10,0 l10,-10 z" fill="none" stroke="#DD3355" stroke-width="2"/>
<path d="M284.40363,-188.71333 l10,10 m-10,0 l10,-10 z" fill="none" stroke="#DD3355" stroke-width="2"/>
<path d="M284.58832,-187.07 l10,10 m-10,0 l10,-10 z" fill="none" stroke="#DD3355" stroke-width="2"/>
<path d="M284.58832,-192.34 l10,10 m-10,0 l10,-10 z" fill="none" stroke="#DD3355" stroke-width="2"/>
<path d="M285.32706,-196.70334 l10,10 m-10,0 l10,-10 z" fill="none" stroke="#DD3355" stroke-width="2"/>
<path d="M285.32706,-195.23 l10,10 m-10,0 l10,-10 z" fill="none" stroke="#DD3355" stroke-width="2"/>
<path d="M285.51175,-182.48 l10,10 m-10,0 l10,-10 z" fill="none" stroke="#DD3355" stroke-width="2"/>
<path d="M286.98923,-183.27333 l10,10 m-10,0 l10,-10 z" fill="none" stroke="#DD3355" stroke-width="2"/>
<path d="M287.3586,-171.82666 l10,10 m-10,0 l10,-10 z" fill="none" stroke="#DD3355" stroke-width="2"/>
<path d="M287.91266,-171.71333 l10,10 m-10,0 l10,-10 z" fill="none" stroke="#DD3355" stroke-width="2"/>
<path d="M290.68295,-171.20334 l10,10 m-10,0 l10,-10 z" fill="none" stroke="#DD3355" stroke-width="2"/>
<path d="M290.86765,-169.67334 l10,10 m-10,0 l10,-10 z" fill="none" stroke="#DD3355" stroke-width="2"/>
<path d="M291.4217,-169.56 l10,10 m-10,0 l10,-10 z" fill="none" stroke="#DD3355" stroke-width="2"/>
<path d="M291.79108,-175.62334 l10,10 m-10,0 l10,-10 z" fill="none" stroke="#DD3355" stroke-width="2"/>
<path d="M294.192,-170.86333 l10,10 m-10,0 l10,-10 z" fill="none" stroke="#DD3355" stroke-width="2"/>
<path d="M294.192,-170.86333 l10,10 m-10,0 l10,-10 z" fill="none" stroke="#DD3355" stroke-width="2"/>
<path d="M294.93076,-172.16667 l10,10 m-10,0 l10,-10 z" fill="none" stroke="#DD3355" stroke-width="2"/>
<path d="M295.8542,-170.92 l10,10 m-10,0 l10,-10 z" fill="none" stroke="#DD3355" stroke-width="2"/>
<path d="M296.22354,-171.20334 l10,10 m-10,0 l10,-10 z" fill="none" stroke="#DD3355" stroke-width="2"/>
<path d="M296.22354,-171.48666 l10,10 m-10,0 l10,-10 z" fill="none" stroke="#DD3355" stroke-width="2"/>
<path d="M303.98038,-171.37334 l10,10 m-10,0 l10,-10 z" fill="none" stroke="#DD3355" stroke-width="2"/>
<path d="M304.53442,-173.13 l10,10 m-10,0 l10,-10 z" fill="none" stroke="#DD3355" stroke-width="2"/>
<path d="M304.9038,-176.41667 l10,10 m-10,0 l10,-10 z" fill="none" stroke="#DD3355" stroke-width="2"/>
<path d="M304.9038,-180.21333 l10,10 m-10,0 l10,-10 z" fill="none" stroke="#DD3355" stroke-width="2"/>
<path d="M306.01193,-182.14 l10,10 m-10,0 l10,-10 z" fill="none" stroke="#DD3355" stroke-width="2"/>
<path d="M306.3813,-200.16 l10,10 m-10,0 l10,-10 z" fill="none" stroke="#DD3355" stroke-width="2"/>
<path d="M306.93536,-205.48666 l10,10 m-10,0 l10,-10 z" fill="none" stroke="#DD3355" stroke-width="2"/>
<path d="M308.0435,-201.35 l10,10 m-10,0 l10,-10 z" fill="none" stroke="#DD3355" stroke-width="2"/>
<path d="M308.41284,-200.72667 l10,10 m-10,0 l10,-10 z" fill="none" stroke="#DD3355" stroke-width="2"/>
<path d="M309.89035,-208.88667 l10,10 m-10,0 l10,-10 z" fill="none" stroke="#DD3355" stroke-width="2"/>
<path d="M311.7372,-210.07666 l10,10 m-10,0 l10,-10 z" fill="none" stroke="#DD3355" stroke-width="2"/>
<path d="M314.13812,-205.94 l10,10 m-10,0 l10,-10 z" fill="none" stroke="#DD3355" stroke-width="2"/>
<path d="M314.13812,-206.05333 l10,10 m-10,0 l10,-10 z" fill="none" stroke="#DD3355" stroke-width="2"/>
<path d="M314.3228,-207.47 l10,10 m-10,0 l10,-10 z" fill="none" stroke="#DD3355" stroke-width="2"/>
<path d="M314.87686,-210.64333 l10,10 m-10,0 l10,-10 z" fill="none" stroke="#DD3355" stroke-width="2"/>
<path d="M316.16968,-210.75667 l10,10 m-10,0 l10,-10 z" fill="none" stroke="#DD3355" stroke-width="2"/>
<path d="M316.53906,-213.87334 l10,10 m-10,0 l10,-10 z" fill="none" stroke="#DD3355" stroke-width="2"/>
<path d="M318.93997,-207.13 l10,10 m-10,0 l10,-10 z" fill="none" stroke="#DD3355" stroke-width="2"/>
<path d="M318.93997,-202.59666 l10,10 m-10,0 l10,-10 z" fill="none" stroke="#DD3355" stroke-width="2"/>
<path d="M320.60214,-185.76666 l10,10 m-10,0 l10,-10 z" fill="none" stroke="#DD3355" stroke-width="2"/>
<path d="M321.15622,-183.55667 l10,10 m-10,0 l10,-10 z" fill="none" stroke="#DD3355" stroke-width="2"/>
<path d="M321.3409,-181.8 l10,10 m-10,0 l10,-10 z" fill="none" stroke="#DD3355" stroke-width="2"/>
<path d="M322.449,-177.32333 l10,10 m-10,0 l10,-10 z" fill="none" stroke="#DD3355" stroke-width="2"/>
<path d="M323.9265,-172.11 l10,10 m-10,0 l10,-10 z" fill="none" stroke="#DD3355" stroke-width="2"/>
<path d="M324.66525,-170.12666 l10,10 m-10,0 l10,-10 z" fill="none" stroke="#DD3355" stroke-width="2"/>
<path d="M326.6968,-153.58 l10,10 m-10,0 l10,-10 z" fill="none" stroke="#DD3355" stroke-width="2"/>
<path d="M326.8815,-148.31 l10,10 m-10,0 l10,-10 z" fill="none" stroke="#DD3355" stroke-width="2"/>
<path d="M327.43555,-148.87666 l10,10 m-10,0 l10,-10 z" fill="none" stroke="#DD3355" stroke-width="2"/>
<path d="M328.91306,-145.30667 l10,10 m-10,0 l10,-10 z" fill="none" stroke="#DD3355" stroke-width="2"/>
<path d="M330.39053,-131.93333 l10,10 m-10,0 l10,-10 z" fill="none" stroke="#DD3355" stroke-width="2"/>
<path d="M333.34552,-131.08333 l10,10 m-10,0 l10,-10 z" fill="none" stroke="#DD3355" stroke-width="2"/>
<path d="M334.63834,-124.90667 l10,10 m-10,0 l10,-10 z" fill="none" stroke="#DD3355" stroke-width="2"/>
<path d="M335.0077,-123.15 l10,10 m-10,0 l10,-10 z" fill="none" stroke="#DD3355" stroke-width="2"/>
<path d="M335.37708,-124.62334 l10,10 m-10,0 l10,-10 z" fill="none" stroke="#DD3355" stroke-width="2"/>
<path d="M335.74643,-123.32 l10,10 m-10,0 l10,-10 z" fill="none" stroke="#DD3355" stroke-width="2"/>
<path d="M338.33206,-119.80666 l10,10 m-10,0 l10,-10 z" fill="none" stroke="#DD3355" stroke-width="2"/>
<path d="M338.33206,-119.58 l10,10 m-10,0 l10,-10 z" fill="none" stroke="#DD3355" stroke-width="2"/>
<path d="M338.51672,-131.53667 l10,10 m-10,0 l10,-10 z" fill="none" stroke="#DD3355" stroke-width="2"/>
<path d="M340.54828,-143.38 l10,10 m-10,0 l10,-10 z" fill="none" stroke="#DD3355" stroke-width="2"/>
<path d="M341.28705,-164.12 l10,10 m-10,0 l10,-10 z" fill="none" stroke="#DD3355" stroke-width="2"/>
<path d="M342.21048,-164.91333 l10,10 m-10,0 l10,-10 z" fill="none" stroke="#DD3355" stroke-width="2"/>
<path d="M343.87265,-168.93666 l10,10 m-10,0 l10,-10 z" fill="none" stroke="#DD3355" stroke-width="2"/>
<path d="M346.64294,-175.34 l10,10 m-10,0 l10,-10 z" fill="none" stroke="#DD3355" stroke-width="2"/>
<path d="M347.75107,-178.11667 l10,10 m-10,0 l10,-10 z" fill="none" stroke="#DD3355" stroke-width="2"/>
<path d="M350.15198,-180.32666 l10,10 m-10,0 l10,-10 z" fill="none" stroke="#DD3355" stroke-width="2"/>
<path d="M352.55292,-187.18333 l10,10 m-10,0 l10,-10 z" fill="none" stroke="#DD3355" stroke-width="2"/>
<path d="M353.661,-189.62 l10,10 m-10,0 l10,-10 z" fill="none" stroke="#DD3355" stroke-width="2"/>
<path d="M354.95383,-194.72 l10,10 m-10,0 l10,-10 z" fill="none" stroke="#DD3355" stroke-width="2"/>
<path d="M356.24664,-202.65334 l10,10 m-10,0 l10,-10 z" fill="none" stroke="#DD3355" stroke-width="2"/>
<path d="M356.24664,-209.34 l10,10 m-10,0 l10,-10 z" fill="none" stroke="#DD3355" stroke-width="2"/>
<path d="M358.2782,-209.68 l10,10 m-10,0 l10,-10 z" fill="none" stroke="#DD3355" stroke-width="2"/>
<path d="M360.30972,-209.45334 l10,10 m-10,0 l10,-10 z" fill="none" stroke="#DD3355" stroke-width="2"/>
<path d="M360.6791,-210.98334 l10,10 m-10,0 l10,-10 z" fill="none" stroke="#DD3355" stroke-width="2"/>
<path d="M362.52597,-208.20667 l10,10 m-10,0 l10,-10 z" fill="none" stroke="#DD3355" stroke-width="2"/>
<path d="M364.00345,-201.12334 l10,10 m-10,0 l10,-10 z" fill="none" stroke="#DD3355" stroke-width="2"/>
<path d="M364.55753,-198.29 l10,10 m-10,0 l10,-10 z" fill="none" stroke="#DD3355" stroke-width="2"/>
<path d="M364.55753,-196.08 l10,10 m-10,0 l10,-10 z" fill="none" stroke="#DD3355" stroke-width="2"/>
<path d="M365.29626,-197.1 l10,10 m-10,0 l10,-10 z" fill="none" stroke="#DD3355" stroke-width="2"/>
<path d="M366.58908,-189.11 l10,10 m-10,0 l10,-10 z" fill="none" stroke="#DD3355" stroke-width="2"/>
<path d="M368.06656,-189.79 l10,10 m-10,0 l10,-10 z" fill="none" stroke="#DD3355" stroke-width="2"/>
<path d="M368.43594,-186.50333 l10,10 m-10,0 l10,-10 z" fill="none" stroke="#DD3355" stroke-width="2"/>
<path d="M368.62064,-182.53667 l10,10 m-10,0 l10,-10 z" fill="none" stroke="#DD3355" stroke-width="2"/>
<path d="M369.54407,-183.33 l10,10 m-10,0 l10,-10 z" fill="none" stroke="#DD3355" stroke-width="2"/>
<path d="M369.72873,-182.42334 l10,10 m-10,0 l10,-10 z" fill="none" stroke="#DD3355" stroke-width="2"/>
<path d="M371.02155,-178.45667 l10,10 m-10,0 l10,-10 z" fill="none" stroke="#DD3355" stroke-width="2"/>
<path d="M372.12967,-168.31334 l10,10 m-10,0 l10,-10 z" fill="none" stroke="#DD3355" stroke-width="2"/>
<path d="M372.49902,-165.82 l10,10 m-10,0 l10,-10 z" fill="none" stroke="#DD3355" stroke-width="2"/>
<path d="M373.0531,-162.53334 l10,10 m-10,0 l10,-10 z" fill="none" stroke="#DD3355" stroke-width="2"/>
<path d="M374.53058,-158.73666 l10,10 m-10,0 l10,-10 z" fill="none" stroke="#DD3355" stroke-width="2"/>
<path d="M374.71527,-158.73666 l10,10 m-10,0 l10,-10 z" fill="none" stroke="#DD3355" stroke-width="2"/>
<path d="M374.89996,-158 l10,10 m-10,0 l10,-10 z" fill="none" stroke="#DD3355" stroke-width="2"/>
<path d="M375.454,-168.42667 l10,10 m-10,0 l10,-10 z" fill="none" stroke="#DD3355" stroke-width="2"/>
<path d="M376.56213,-168.65334 l10,10 m-10,0 l10,-10 z" fill="none" stroke="#DD3355" stroke-width="2"/>
<path d="M377.1162,-169.95667 l10,10 m-10,0 l10,-10 z" fill="none" stroke="#DD3355" stroke-width="2"/>
<path d="M377.67026,-176.02 l10,10 m-10,0 l10,-10 z" fill="none" stroke="#DD3355" stroke-width="2"/>
<path d="M379.14774,-180.21333 l10,10 m-10,0 l10,-10 z" fill="none" stroke="#DD3355" stroke-width="2"/>
<path d="M379.51712,-182.42334 l10,10 m-10,0 l10,-10 z" fill="none" stroke="#DD3355" stroke-width="2"/>
<path d="M380.44055,-180.61 l10,10 m-10,0 l10,-10 z" fill="none" stroke="#DD3355" stroke-width="2"/>
<path d="M382.10272,-180.44 l10,10 m-10,0 l10,-10 z" fill="none" stroke="#DD3355" stroke-width="2"/>
<path d="M382.6568,-171.99667 l10,10 m-10,0 l10,-10 z" fill="none" stroke="#DD3355" stroke-width="2"/>
<path d="M383.21085,-166.5 l10,10 m-10,0 l10,-10 z" fill="none" stroke="#DD3355" stroke-width="2"/>
<path d="M383.76492,-166.44333 l10,10 m-10,0 l10,-10 z" fill="none" stroke="#DD3355" stroke-width="2"/>
<path d="M390.04425,-150.40666 l10,10 m-10,0 l10,-10 z" fill="none" stroke="#DD3355" stroke-width="2"/>
<path d="M391.8911,-147.85667 l10,10 m-10,0 l10,-10 z" fill="none" stroke="#DD3355" stroke-width="2"/>
<path d="M393.3686,-148.02667 l10,10 m-10,0 l10,-10 z" fill="none" stroke="#DD3355" stroke-width="2"/>
<path d="M393.92267,-149.5 l10,10 m-10,0 l10,-10 z" fill="none" stroke="#DD3355" stroke-width="2"/>
<path d="M395.40015,-149.78334 l10,10 m-10,0 l10,-10 z" fill="none" stroke="#DD3355" stroke-width="2"/>
<path d="M395.40015,-149.21666 l10,10 m-10,0 l10,-10 z" fill="none" stroke="#DD3355" stroke-width="2"/>
<path d="M396.87766,-148.42334 l10,10 m-10,0 l10,-10 z" fill="none" stroke="#DD3355" stroke-width="2"/>
<path d="M397.06232,-143.43666 l10,10 m-10,0 l10,-10 z" fill="none" stroke="#DD3355" stroke-width="2"/>
<path d="M398.17044,-144.51334 l10,10 m-10,0 l10,-10 z" fill="none" stroke="#DD3355" stroke-width="2"/>
<path d="M398.17044,-144.51334 l10,10 m-10,0 l10,-10 z" fill="none" stroke="#DD3355" stroke-width="2"/>
<path d="M398.53983,-143.83333 l10,10 m-10,0 l10,-10 z" fill="none" stroke="#DD3355" stroke-width="2"/>
<path d="M399.83264,-144.23 l10,10 m-10,0 l10,-10 z" fill="none" stroke="#DD3355" stroke-width="2"/>
<path d="M401.31012,-144.28667 l10,10 m-10,0 l10,-10 z" fill="none" stroke="#DD3355" stroke-width="2"/>
<path d="M401.4948,-146.95 l10,10 m-10,0 l10,-10 z" fill="none" stroke="#DD3355" stroke-width="2"/>
<path d="M402.41824,-146.95 l10,10 m-10,0 l10,-10 z" fill="none" stroke="#DD3355" stroke-width="2"/>
<path d="M402.9723,-161.06 l10,10 m-10,0 l10,-10 z" fill="none" stroke="#DD3355" stroke-width="2"/>
<path d="M406.48135,-165.99 l10,10 m-10,0 l10,-10 z" fill="none" stroke="#DD3355" stroke-width="2"/>
<path d="M407.77414,-169.56 l10,10 m-10,0 l10,-10 z" fill="none" stroke="#DD3355" stroke-width="2"/>
<path d="M408.51288,-175 l10,10 m-10,0 l10,-10 z" fill="none" stroke="#DD3355" stroke-width="2"/>
<path d="M408.51288,-175 l10,10 m-10,0 l10,-10 z" fill="none" stroke="#DD3355" stroke-width="2"/>
<path d="M408.51288,-185.14333 l10,10 m-10,0 l10,-10 z" fill="none" stroke="#DD3355" stroke-width="2"/>
<path d="M409.4363,-194.21 l10,10 m-10,0 l10,-10 z" fill="none" stroke="#DD3355" stroke-width="2"/>
<path d="M409.8057,-195.85333 l10,10 m-10,0 l10,-10 z" fill="none" stroke="#DD3355" stroke-width="2"/>
<path d="M410.35974,-196.19333 l10,10 m-10,0 l10,-10 z" fill="none" stroke="#DD3355" stroke-width="2"/>
<path d="M411.83725,-196.13667 l10,10 m-10,0 l10,-10 z" fill="none" stroke="#DD3355" stroke-width="2"/>
<path d="M412.576,-196.13667 l10,10 m-10,0 l10,-10 z" fill="none" stroke="#DD3355" stroke-width="2"/>
<path d="M412.94537,-197.44 l10,10 m-10,0 l10,-10 z" fill="none" stroke="#DD3355" stroke-width="2"/>
<path d="M412.94537,-202.42667 l10,10 m-10,0 l10,-10 z" fill="none" stroke="#DD3355" stroke-width="2"/>
<path d="M413.31473,-201.74667 l10,10 m-10,0 l10,-10 z" fill="none" stroke="#DD3355" stroke-width="2"/>
<path d="M413.31473,-201.74667 l10,10 m-10,0 l10,-10 z" fill="none" stroke="#DD3355" stroke-width="2"/>
<path d="M413.49942,-217.10333 l10,10 m-10,0 l10,-10 z" fill="none" stroke="#DD3355" stroke-width="2"/>
<path d="M413.49942,-216.70667 l10,10 m-10,0 l10,-10 z" fill="none" stroke="#DD3355" stroke-width="2"/>
<path d="M414.60754,-218.57666 l10,10 m-10,0 l10,-10 z" fill="none" stroke="#DD3355" stroke-width="2"/>
<path d="M415.34628,-217.84 l10,10 m-10,0 l10,-10 z" fill="none" stroke="#DD3355" stroke-width="2"/>
<path d="M415.53098,-219.65334 l10,10 m-10,0 l10,-10 z" fill="none" stroke="#DD3355" stroke-width="2"/>
<path d="M416.2697,-204.41 l10,10 m-10,0 l10,-10 z" fill="none" stroke="#DD3355" stroke-width="2"/>
<path d="M417.19315,-193.75667 l10,10 m-10,0 l10,-10 z" fill="none" stroke="#DD3355" stroke-width="2"/>
<path d="M422.1797,-190.01666 l10,10 m-10,0 l10,-10 z" fill="none" stroke="#DD3355" stroke-width="2"/>
<path d="M422.36438,-190.92334 l10,10 m-10,0 l10,-10 z" fill="none" stroke="#DD3355" stroke-width="2"/>
<path d="M422.54907,-190.92334 l10,10 m-10,0 l10,-10 z" fill="none" stroke="#DD3355" stroke-width="2"/>
<path d="M423.10312,-190.86667 l10,10 m-10,0 l10,-10 z" fill="none" stroke="#DD3355" stroke-width="2"/>
<path d="M423.65717,-181.12 l10,10 m-10,0 l10,-10 z" fill="none" stroke="#DD3355" stroke-width="2"/>
<path d="M424.02655,-181.12 l10,10 m-10,0 l10,-10 z" fill="none" stroke="#DD3355" stroke-width="2"/>
<path d="M425.8734,-169.33333 l10,10 m-10,0 l10,-10 z" fill="none" stroke="#DD3355" stroke-width="2"/>
<path d="M427.53558,-167.86 l10,10 m-10,0 l10,-10 z" fill="none" stroke="#DD3355" stroke-width="2"/>
<path d="M427.72028,-163.44 l10,10 m-10,0 l10,-10 z" fill="none" stroke="#DD3355" stroke-width="2"/>
<path d="M427.90497,-163.44 l10,10 m-10,0 l10,-10 z" fill="none" stroke="#DD3355" stroke-width="2"/>
<path d="M429.0131,-163.44 l10,10 m-10,0 l10,-10 z" fill="none" stroke="#DD3355" stroke-width="2"/>
<path d="M430.1212,-155.84666 l10,10 m-10,0 l10,-10 z" fill="none" stroke="#DD3355" stroke-width="2"/>
<path d="M430.67526,-155.79 l10,10 m-10,0 l10,-10 z" fill="none" stroke="#DD3355" stroke-width="2"/>
<path d="M432.70682,-135.22 l10,10 m-10,0 l10,-10 z" fill="none" stroke="#DD3355" stroke-width="2"/>
<path d="M434.73837,-125.19 l10,10 m-10,0 l10,-10 z" fill="none" stroke="#DD3355" stroke-width="2"/>
<path d="M434.73837,-123.263336 l10,10 m-10,0 l10,-10 z" fill="none" stroke="#DD3355" stroke-width="2"/>
<path d="M436.58524,-123.37666 l10,10 m-10,0 l10,-10 z" fill="none" stroke="#DD3355" stroke-width="2"/>
<path d="M438.2474,-110.74 l10,10 m-10,0 l10,-10 z" fill="none" stroke="#DD3355" stroke-width="2"/>
<path d="M438.2474,-111.30666 l10,10 m-10,0 l10,-10 z" fill="none" stroke="#DD3355" stroke-width="2"/>
<path d="M438.4321,-117.76667 l10,10 m-10,0 l10,-10 z" fill="none" stroke="#DD3355" stroke-width="2"/>
<path d="M438.98615,-128.53334 l10,10 m-10,0 l10,-10 z" fill="none" stroke="#DD3355" stroke-width="2"/>
<path d="M438.98615,-127.79667 l10,10 m-10,0 l10,-10 z" fill="none" stroke="#DD3355" stroke-width="2"/>
<path d="M439.54022,-128.47667 l10,10 m-10,0 l10,-10 z" fill="none" stroke="#DD3355" stroke-width="2"/>
<path d="M440.46365,-129.32666 l10,10 m-10,0 l10,-10 z" fill="none" stroke="#DD3355" stroke-width="2"/>
<path d="M440.64832,-131.87666 l10,10 m-10,0 l10,-10 z" fill="none" stroke="#DD3355" stroke-width="2"/>
<path d="M440.833,-131.65 l10,10 m-10,0 l10,-10 z" fill="none" stroke="#DD3355" stroke-width="2"/>
<path d="M441.0177,-143.55 l10,10 m-10,0 l10,-10 z" fill="none" stroke="#DD3355" stroke-width="2"/>
<path d="M443.4186,-153.35333 l10,10 m-10,0 l10,-10 z" fill="none" stroke="#DD3355" stroke-width="2"/>
<path d="M443.4186,-157.77333 l10,10 m-10,0 l10,-10 z" fill="none" stroke="#DD3355" stroke-width="2"/>
<path d="M445.45016,-174.43333 l10,10 m-10,0 l10,-10 z" fill="none" stroke="#DD3355" stroke-width="2"/>
<path d="M445.63486,-174.43333 l10,10 m-10,0 l10,-10 z" fill="none" stroke="#DD3355" stroke-width="2"/>
<path d="M449.32858,-180.95 l10,10 m-10,0 l10,-10 z" fill="none" stroke="#DD3355" stroke-width="2"/>
<path d="M449.88266,-177.04 l10,10 m-10,0 l10,-10 z" fill="none" stroke="#DD3355" stroke-width="2"/>
<path d="M450.252,-178.51334 l10,10 m-10,0 l10,-10 z" fill="none" stroke="#DD3355" stroke-width="2"/>
<path d="M450.252,-188.43 l10,10 m-10,0 l10,-10 z" fill="none" stroke="#DD3355" stroke-width="2"/>
<path d="M450.252,-188.43 l10,10 m-10,0 l10,-10 z" fill="none" stroke="#DD3355" stroke-width="2"/>
<path d="M450.99075,-188.94 l10,10 m-10,0 l10,-10 z" fill="none" stroke="#DD3355" stroke-width="2"/>
<path d="M450.99075,-199.76334 l10,10 m-10,0 l10,-10 z" fill="none" stroke="#DD3355" stroke-width="2"/>
<path d="M452.28357,-193.19 l10,10 m-10,0 l10,-10 z" fill="none" stroke="#DD3355" stroke-width="2"/>
<path d="M456.162,-194.55 l10,10 m-10,0 l10,-10 z" fill="none" stroke="#DD3355" stroke-width="2"/>
<path d="M456.162,-187.52333 l10,10 m-10,0 l10,-10 z" fill="none" stroke="#DD3355" stroke-width="2"/>
<path d="M456.162,-187.35333 l10,10 m-10,0 l10,-10 z" fill="none" stroke="#DD3355" stroke-width="2"/>
<path d="M459.30167,-186.73 l10,10 m-10,0 l10,-10 z" fill="none" stroke="#DD3355" stroke-width="2"/>
<path d="M460.40976,-186.22 l10,10 m-10,0 l10,-10 z" fill="none" stroke="#DD3355" stroke-width="2"/>
<path d="M461.14853,-193.30333 l10,10 m-10,0 l10,-10 z" fill="none" stroke="#DD3355" stroke-width="2"/>
<path d="M462.25662,-199.65 l10,10 m-10,0 l10,-10 z" fill="none" stroke="#DD3355" stroke-width="2"/>
<path d="M462.4413,-197.95 l10,10 m-10,0 l10,-10 z" fill="none" stroke="#DD3355" stroke-width="2"/>
<path d="M463.54944,-190.86667 l10,10 m-10,0 l10,-10 z" fill="none" stroke="#DD3355" stroke-width="2"/>
<path d="M464.84225,-191.20667 l10,10 m-10,0 l10,-10 z" fill="none" stroke="#DD3355" stroke-width="2"/>
<path d="M465.3963,-174.54666 l10,10 m-10,0 l10,-10 z" fill="none" stroke="#DD3355" stroke-width="2"/>
<path d="M465.95038,-175 l10,10 m-10,0 l10,-10 z" fill="none" stroke="#DD3355" stroke-width="2"/>
<path d="M466.8738,-176.07666 l10,10 m-10,0 l10,-10 z" fill="none" stroke="#DD3355" stroke-width="2"/>
<path d="M469.27472,-180.04333 l10,10 m-10,0 l10,-10 z" fill="none" stroke="#DD3355" stroke-width="2"/>
<path d="M470.19815,-184.46333 l10,10 m-10,0 l10,-10 z" fill="none" stroke="#DD3355" stroke-width="2"/>
<path d="M471.49097,-184.57666 l10,10 m-10,0 l10,-10 z" fill="none" stroke="#DD3355" stroke-width="2"/>
<path d="M471.49097,-184.57666 l10,10 m-10,0 l10,-10 z" fill="none" stroke="#DD3355" stroke-width="2"/>
<path d="M472.045,-184.06667 l10,10 m-10,0 l10,-10 z" fill="none" stroke="#DD3355" stroke-width="2"/>
<path d="M473.52252,-204.07 l10,10 m-10,0 l10,-10 z" fill="none" stroke="#DD3355" stroke-width="2"/>
<path d="M475,-221.80667 l10,10 m-10,0 l10,-10 z" fill="none" stroke="#DD3355" stroke-width="2"/>
</g>
</g>
<g>
<g>
<line stroke="black" stroke-width="1" x1="0" x2="0" y1="0" y2="10"/>
<line stroke="black" stroke-width="1" x1="92.3432089265102" x2="92.3432089265102" y1="0" y2="10"/>
<line stroke="black" stroke-width="1" x1="184.6864178530204" x2="184.6864178530204" y1="0" y2="10"/>
<line stroke="black" stroke-width="1" x1="277.0296267795306" x2="277.0296267795306" y1="0" y2="10"/>
<line stroke="black" stroke-width="1" x1="369.3728357060408" x2="369.3728357060408" y1="0" y2="10"/>
<line stroke="black" stroke-width="1" x1="461.71604463255096" x2="461.71604463255096" y1="0" y2="10"/>
</g>
<line stroke="black" stroke-width="1" x1="0" x2="480" y1="0" y2="0"/>
<g>
<text font-size="12" text-anchor="middle" x="0" y="20">
90
</text>
<text font-size="12" text-anchor="middle" x="92.3432089265102" y="20">
590
</text>
<text font-size="12" text-anchor="middle" x="184.6864178530204" y="20">
1090
</text>
<text font-size="12" text-anchor="middle" x="277.0296267795306" y="20">
1590
</text>
<text font-size="12" text-anchor="middle" x="369.3728357060408" y="20">
2090
</text>
<text font-size="12" text-anchor="middle" x="461.71604463255096" y="20">
2590
</text>
</g>
<text font-size="12" text-anchor="middle" x="240" y="30">
unix timestamp
</text>
</g>
<g>
<g>
<line stroke="black" stroke-width="1" x1="0" x2="-10" y1="-56.666666666666664" y2="-56.666666666666664"/>
<line stroke="black" stroke-width="1" x1="0" x2="-10" y1="-170" y2="-170"/>
<line stroke="black" stroke-width="1" x1="0" x2="-10" y1="-283.3333333333333" y2="-283.3333333333333"/>
</g>
<line stroke="black" stroke-width="1" x1="0" x2="0" y1="0" y2="-340"/>
<g>
<text dominant-baseline="middle" font-size="12" text-anchor="end" x="-15" y="-56.666666666666664">
-10
</text>
<text dominant-baseline="middle" font-size="12" text-anchor="end" x="-15" y="-170">
0
</text>
<text dominant-baseline="middle" font-size="12" text-anchor="end" x="-15" y="-283.3333333333333">
10
</text>
</g>
<text font-size="12" text-anchor="middle" transform="rotate(-90 -36 -170)" x="-36" y="-182">
returns
</text>
</g>
</g>
</svg>