<svg viewBox="0 0 600 400" xmlns="http://www.w3.org/2000/svg">
<g transform="translate(72, 364)">
<g>
<g>
<path d="M-5,-208.49629 l10,10 m-10,0 l10,-10 z" fill="none" stroke="#DD3355" stroke-width="2"/>
<path d="M-1.9288671,-213.30667 l10,10 m-10,0 l10,-10 z" fill="none" stroke="#DD3355" stroke-width="2"/>
<path d="M-1.5675575,-210.7 l10,10 m-10,0 l10,-10 z" fill="none" stroke="#DD3355" stroke-width="2"/>
<path d="M-0.8449379,-199.70667 l10,10 m-10,0 l10,-10 z" fill="none" stroke="#DD3355" stroke-width="2"/>
<path d="M-0.8449379,-199.82 l10,10 m-10,0 l10,-10 z" fill="none" stroke="#DD3355" stroke-width="2"/>
<path d="M2.4068499,-175 l10,10 m-10,0 l10,-10 z" fill="none" stroke="#DD3355" stroke-width="2"/>
<path d="M2.9488144,-175 l10,10 m-10,0 l10,-10 z" fill="none" stroke="#DD3355" stroke-width="2"/>
<path d="M3.1294694,-160.60667 l10,10 m-10,0 l10,-10 z" fill="none" stroke="#DD3355" stroke-width="2"/>
<path d="M4.032744,-160.60667 l10,10 m-10,0 l10,-10 z" fill="none" stroke="#DD3355" stroke-width="2"/>
<path d="M4.755363,-160.49333 l10,10 m-10,0 l10,-10 z" fill="none" stroke="#DD3355" stroke-width="2"/>
<path d="M5.4779825,-159.24667 l10,10 m-10,0 l10,-10 z" fill="none" stroke="#DD3355" stroke-width="2"/>
<path d="M5.4779825,-151.31334 l10,10 m-10,0 l10,-10 z" fill="none" stroke="#DD3355" stroke-width="2"/>
<path d="M6.200602,-158.68 l10,10 m-10,0 l10,-10 z" fill="none" stroke="#DD3355" stroke-width="2"/>
<path d="M6.561912,-158.68 l10,10 m-10,0 l10,-10 z" fill="none" stroke="#DD3355" stroke-width="2"/>
<path d="M7.465186,-170.01334 l10,10 m-10,0 l10,-10 z" fill="none" stroke="#DD3355" stroke-width="2"/>
<path d="M8.368461,-182.48 l10,10 m-10,0 l10,-10 z" fill="none" stroke="#DD3355" stroke-width="2"/>
<path d="M9.45239,-182.48 l10,10 m-10,0 l10,-10 z" fill="none" stroke="#DD3355" stroke-width="2"/>
<path d="M9.8137,-182.48 l10,10 m-10,0 l10,-10 z" fill="none" stroke="#DD3355" stroke-width="2"/>
<path d="M10.355664,-182.59334 l10,10 m-10,0 l10,-10 z" fill="none" stroke="#DD3355" stroke-width="2"/>
<path d="M11.620249,-182.59334 l10,10 m-10,0 l10,-10 z" fill="none" stroke="#DD3355" stroke-width="2"/>
<path d="M12.162213,-182.59334 l10,10 m-10,0 l10,-10 z" fill="none" stroke="#DD3355" stroke-width="2"/>
<path d="M12.162213,-182.36667 l10,10 m-10,0 l10,-10 z" fill="none" stroke="#DD3355" stroke-width="2"/>
<path d="M12.162213,-180.21333 l10,10 m-10,0 l10,-10 z" fill="none" stroke="#DD3355" stroke-width="2"/>
<path d="M12.704178,-203.78667 l10,10 m-10,0 l10,-10 z" fill="none" stroke="#DD3355" stroke-width="2"/>
<path d="M16.49793,-221.35333 l10,10 m-10,0 l10,-10 z" fill="none" stroke="#DD3355" stroke-width="2"/>
<path d="M17.039894,-243.68 l10,10 m-10,0 l10,-10 z" fill="none" stroke="#DD3355" stroke-width="2"/>
<path d="M18.123823,-257.05334 l10,10 m-10,0 l10,-10 z" fill="none" stroke="#DD3355" stroke-width="2"/>
<path d="M18.30448,-257.05334 l10,10 m-10,0 l10,-10 z" fill="none" stroke="#DD3355" stroke-width="2"/>
<path d="M18.665789,-257.96 l10,10 m-10,0 l10,-10 z" fill="none" stroke="#DD3355" stroke-width="2"/>
<path d="M19.027098,-253.65334 l10,10 m-10,0 l10,-10 z" fill="none" stroke="#DD3355" stroke-width="2"/>
<path d="M19.207752,-268.84 l10,10 m-10,0 l10,-10 z" fill="none" stroke="#DD3355" stroke-width="2"/>
<path d="M20.291683,-252.86 l10,10 m-10,0 l10,-10 z" fill="none" stroke="#DD3355" stroke-width="2"/>
<path d="M20.833647,-246.85333 l10,10 m-10,0 l10,-10 z" fill="none" stroke="#DD3355" stroke-width="2"/>
<path d="M22.278887,-223.28 l10,10 m-10,0 l10,-10 z" fill="none" stroke="#DD3355" stroke-width="2"/>
<path d="M23.362816,-187.69333 l10,10 m-10,0 l10,-10 z" fill="none" stroke="#DD3355" stroke-width="2"/>
<path d="M25.530674,-159.47333 l10,10 m-10,0 l10,-10 z" fill="none" stroke="#DD3355" stroke-width="2"/>
<path d="M25.891983,-147.91333 l10,10 m-10,0 l10,-10 z" fill="none" stroke="#DD3355" stroke-width="2"/>
<path d="M26.072638,-146.21333 l10,10 m-10,0 l10,-10 z" fill="none" stroke="#DD3355" stroke-width="2"/>
<path d="M26.253294,-145.19333 l10,10 m-10,0 l10,-10 z" fill="none" stroke="#DD3355" stroke-width="2"/>
<path d="M27.698532,-162.53334 l10,10 m-10,0 l10,-10 z" fill="none" stroke="#DD3355" stroke-width="2"/>
<path d="M27.879187,-154.6 l10,10 m-10,0 l10,-10 z" fill="none" stroke="#DD3355" stroke-width="2"/>
<path d="M28.421152,-187.35333 l10,10 m-10,0 l10,-10 z" fill="none" stroke="#DD3355" stroke-width="2"/>
<path d="M28.601807,-178.51334 l10,10 m-10,0 l10,-10 z" fill="none" stroke="#DD3355" stroke-width="2"/>
<path d="M30.58901,-168.76666 l10,10 m-10,0 l10,-10 z" fill="none" stroke="#DD3355" stroke-width="2"/>
<path d="M31.492285,-186.78667 l10,10 m-10,0 l10,-10 z" fill="none" stroke="#DD3355" stroke-width="2"/>
<path d="M32.03425,-191.32 l10,10 m-10,0 l10,-10 z" fill="none" stroke="#DD3355" stroke-width="2"/>
<path d="M35.286037,-186.22 l10,10 m-10,0 l10,-10 z" fill="none" stroke="#DD3355" stroke-width="2"/>
<path d="M36.369965,-181.23334 l10,10 m-10,0 l10,-10 z" fill="none" stroke="#DD3355" stroke-width="2"/>
<path d="M36.369965,-180.44 l10,10 m-10,0 l10,-10 z" fill="none" stroke="#DD3355" stroke-width="2"/>
<path d="M37.815205,-170.69333 l10,10 m-10,0 l10,-10 z" fill="none" stroke="#DD3355" stroke-width="2"/>
<path d="M38.176514,-160.60667 l10,10 m-10,0 l10,-10 z" fill="none" stroke="#DD3355" stroke-width="2"/>
<path d="M38.35717,-143.83333 l10,10 m-10,0 l10,-10 z" fill="none" stroke="#DD3355" stroke-width="2"/>
<path d="M39.441097,-150.74667 l10,10 m-10,0 l10,-10 z" fill="none" stroke="#DD3355" stroke-width="2"/>
<path d="M40.886337,-158.68 l10,10 m-10,0 l10,-10 z" fill="none" stroke="#DD3355" stroke-width="2"/>
<path d="M40.886337,-156.75333 l10,10 m-10,0 l10,-10 z" fill="none" stroke="#DD3355" stroke-width="2"/>
<path d="M41.066994,-159.36 l10,10 m-10,0 l10,-10 z" fill="none" stroke="#DD3355" stroke-width="2"/>
<path d="M41.247646,-162.64667 l10,10 m-10,0 l10,-10 z" fill="none" stroke="#DD3355" stroke-width="2"/>
<path d="M47.931877,-149.95334 l10,10 m-10,0 l10,-10 z" fill="none" stroke="#DD3355" stroke-width="2"/>
<path d="M47.931877,-150.74667 l10,10 m-10,0 l10,-10 z" fill="none" stroke="#DD3355" stroke-width="2"/>
<path d="M47.931877,-147.46 l10,10 m-10,0 l10,-10 z" fill="none" stroke="#DD3355" stroke-width="2"/>
<path d="M48.293186,-150.29333 l10,10 m-10,0 l10,-10 z" fill="none" stroke="#DD3355" stroke-width="2"/>
<path d="M48.83515,-150.29333 l10,10 m-10,0 l10,-10 z" fill="none" stroke="#DD3355" stroke-width="2"/>
<path d="M51.183666,-152.9 l10,10 m-10,0 l10,-10 z" fill="none" stroke="#DD3355" stroke-width="2"/>
<path d="M51.906284,-154.71333 l10,10 m-10,0 l10,-10 z" fill="none" stroke="#DD3355" stroke-width="2"/>
<path d="M52.08694,-122.18667 l10,10 m-10,0 l10,-10 z" fill="none" stroke="#DD3355" stroke-width="2"/>
<path d="M54.2548,-142.36 l10,10 m-10,0 l10,-10 z" fill="none" stroke="#DD3355" stroke-width="2"/>
<path d="M57.145275,-152.10667 l10,10 m-10,0 l10,-10 z" fill="none" stroke="#DD3355" stroke-width="2"/>
<path d="M58.77117,-171.48666 l10,10 m-10,0 l10,-10 z" fill="none" stroke="#DD3355" stroke-width="2"/>
<path d="M60.216408,-171.48666 l10,10 m-10,0 l10,-10 z" fill="none" stroke="#DD3355" stroke-width="2"/>
<path d="M60.216408,-171.48666 l10,10 m-10,0 l10,-10 z" fill="none" stroke="#DD3355" stroke-width="2"/>
<path d="M60.216408,-171.48666 l10,10 m-10,0 l10,-10 z" fill="none" stroke="#DD3355" stroke-width="2"/>
<path d="M61.480995,-171.48666 l10,10 m-10,0 l10,-10 z" fill="none" stroke="#DD3355" stroke-width="2"/>
<path d="M61.661648,-171.6 l10,10 m-10,0 l10,-10 z" fill="none" stroke="#DD3355" stroke-width="2"/>
<path d="M62.92623,-171.6 l10,10 m-10,0 l10,-10 z" fill="none" stroke="#DD3355" stroke-width="2"/>
<path d="M64.01016,-206.05333 l10,10 m-10,0 l10,-10 z" fill="none" stroke="#DD3355" stroke-width="2"/>
<path d="M64.371475,-184.74667 l10,10 m-10,0 l10,-10 z" fill="none" stroke="#DD3355" stroke-width="2"/>
<path d="M64.552124,-175 l10,10 m-10,0 l10,-10 z" fill="none" stroke="#DD3355" stroke-width="2"/>
<path d="M65.4554,-175 l10,10 m-10,0 l10,-10 z" fill="none" stroke="#DD3355" stroke-width="2"/>
<path d="M65.99737,-175 l10,10 m-10,0 l10,-10 z" fill="none" stroke="#DD3355" stroke-width="2"/>
<path d="M66.35867,-175 l10,10 m-10,0 l10,-10 z" fill="none" stroke="#DD3355" stroke-width="2"/>
<path d="M66.35867,-174.54666 l10,10 m-10,0 l10,-10 z" fill="none" stroke="#DD3355" stroke-width="2"/>
<path d="M66.719986,-174.32 l10,10 m-10,0 l10,-10 z" fill="none" stroke="#DD3355" stroke-width="2"/>
<path d="M68.34588,-174.88667 l10,10 m-10,0 l10,-10 z" fill="none" stroke="#DD3355" stroke-width="2"/>
<path d="M68.526535,-174.88667 l10,10 m-10,0 l10,-10 z" fill="none" stroke="#DD3355" stroke-width="2"/>
<path d="M68.526535,-174.88667 l10,10 m-10,0 l10,-10 z" fill="none" stroke="#DD3355" stroke-width="2"/>
<path d="M68.526535,-174.88667 l10,10 m-10,0 l10,-10 z" fill="none" stroke="#DD3355" stroke-width="2"/>
<path d="M68.70719,-184.63333 l10,10 m-10,0 l10,-10 z" fill="none" stroke="#DD3355" stroke-width="2"/>
<path d="M69.24915,-184.63333 l10,10 m-10,0 l10,-10 z" fill="none" stroke="#DD3355" stroke-width="2"/>
<path d="M69.24915,-184.63333 l10,10 m-10,0 l10,-10 z" fill="none" stroke="#DD3355" stroke-width="2"/>
<path d="M69.791115,-198.57333 l10,10 m-10,0 l10,-10 z" fill="none" stroke="#DD3355" stroke-width="2"/>
<path d="M69.791115,-199.02667 l10,10 m-10,0 l10,-10 z" fill="none" stroke="#DD3355" stroke-width="2"/>
<path d="M70.51374,-208.54666 l10,10 m-10,0 l10,-10 z" fill="none" stroke="#DD3355" stroke-width="2"/>
<path d="M70.69439,-207.98 l10,10 m-10,0 l10,-10 z" fill="none" stroke="#DD3355" stroke-width="2"/>
<path d="M72.32029,-207.98 l10,10 m-10,0 l10,-10 z" fill="none" stroke="#DD3355" stroke-width="2"/>
<path d="M72.86225,-207.98 l10,10 m-10,0 l10,-10 z" fill="none" stroke="#DD3355" stroke-width="2"/>
<path d="M73.04291,-207.98 l10,10 m-10,0 l10,-10 z" fill="none" stroke="#DD3355" stroke-width="2"/>
<path d="M73.40421,-226.79333 l10,10 m-10,0 l10,-10 z" fill="none" stroke="#DD3355" stroke-width="2"/>
<path d="M73.40421,-226.90666 l10,10 m-10,0 l10,-10 z" fill="none" stroke="#DD3355" stroke-width="2"/>
<path d="M77.19797,-236.42667 l10,10 m-10,0 l10,-10 z" fill="none" stroke="#DD3355" stroke-width="2"/>
<path d="M81.71434,-222.48666 l10,10 m-10,0 l10,-10 z" fill="none" stroke="#DD3355" stroke-width="2"/>
<path d="M81.71434,-232.91333 l10,10 m-10,0 l10,-10 z" fill="none" stroke="#DD3355" stroke-width="2"/>
<path d="M81.895,-223.62 l10,10 m-10,0 l10,-10 z" fill="none" stroke="#DD3355" stroke-width="2"/>
<path d="M82.2563,-223.62 l10,10 m-10,0 l10,-10 z" fill="none" stroke="#DD3355" stroke-width="2"/>
<path d="M82.43696,-223.62 l10,10 m-10,0 l10,-10 z" fill="none" stroke="#DD3355" stroke-width="2"/>
<path d="M82.43696,-246.28667 l10,10 m-10,0 l10,-10 z" fill="none" stroke="#DD3355" stroke-width="2"/>
<path d="M82.43696,-249.23334 l10,10 m-10,0 l10,-10 z" fill="none" stroke="#DD3355" stroke-width="2"/>
<path d="M82.43696,-220.67334 l10,10 m-10,0 l10,-10 z" fill="none" stroke="#DD3355" stroke-width="2"/>
<path d="M82.43696,-220.56 l10,10 m-10,0 l10,-10 z" fill="none" stroke="#DD3355" stroke-width="2"/>
<path d="M82.97892,-227.58667 l10,10 m-10,0 l10,-10 z" fill="none" stroke="#DD3355" stroke-width="2"/>
<path d="M83.15958,-229.28667 l10,10 m-10,0 l10,-10 z" fill="none" stroke="#DD3355" stroke-width="2"/>
<path d="M84.24351,-215.8 l10,10 m-10,0 l10,-10 z" fill="none" stroke="#DD3355" stroke-width="2"/>
<path d="M84.60482,-209.68 l10,10 m-10,0 l10,-10 z" fill="none" stroke="#DD3355" stroke-width="2"/>
<path d="M86.95333,-208.88667 l10,10 m-10,0 l10,-10 z" fill="none" stroke="#DD3355" stroke-width="2"/>
<path d="M88.39857,-197.78 l10,10 m-10,0 l10,-10 z" fill="none" stroke="#DD3355" stroke-width="2"/>
<path d="M90.56643,-175.11333 l10,10 m-10,0 l10,-10 z" fill="none" stroke="#DD3355" stroke-width="2"/>
<path d="M92.553635,-138.96 l10,10 m-10,0 l10,-10 z" fill="none" stroke="#DD3355" stroke-width="2"/>
<path d="M93.0956,-138.96 l10,10 m-10,0 l10,-10 z" fill="none" stroke="#DD3355" stroke-width="2"/>
<path d="M93.0956,-138.96 l10,10 m-10,0 l10,-10 z" fill="none" stroke="#DD3355" stroke-width="2"/>
<path d="M95.98608,-122.41333 l10,10 m-10,0 l10,-10 z" fill="none" stroke="#DD3355" stroke-width="2"/>
<path d="M97.792625,-120.71333 l10,10 m-10,0 l10,-10 z" fill="none" stroke="#DD3355" stroke-width="2"/>
<path d="M98.33459,-123.77333 l10,10 m-10,0 l10,-10 z" fill="none" stroke="#DD3355" stroke-width="2"/>
<path d="M101.04441,-129.89333 l10,10 m-10,0 l10,-10 z" fill="none" stroke="#DD3355" stroke-width="2"/>
<path d="M102.85096,-142.24667 l10,10 m-10,0 l10,-10 z" fill="none" stroke="#DD3355" stroke-width="2"/>
<path d="M103.39292,-142.58667 l10,10 m-10,0 l10,-10 z" fill="none" stroke="#DD3355" stroke-width="2"/>
<path d="M103.93489,-142.24667 l10,10 m-10,0 l10,-10 z" fill="none" stroke="#DD3355" stroke-width="2"/>
<path d="M106.102745,-175.45334 l10,10 m-10,0 l10,-10 z" fill="none" stroke="#DD3355" stroke-width="2"/>
<path d="M106.2834,-175.45334 l10,10 m-10,0 l10,-10 z" fill="none" stroke="#DD3355" stroke-width="2"/>
<path d="M106.2834,-175.45334 l10,10 m-10,0 l10,-10 z" fill="none" stroke="#DD3355" stroke-width="2"/>
<path d="M107.186676,-175.11333 l10,10 m-10,0 l10,-10 z" fill="none" stroke="#DD3355" stroke-width="2"/>
<path d="M107.72864,-175.11333 l10,10 m-10,0 l10,-10 z" fill="none" stroke="#DD3355" stroke-width="2"/>
<path d="M107.909294,-175.11333 l10,10 m-10,0 l10,-10 z" fill="none" stroke="#DD3355" stroke-width="2"/>
<path d="M108.27061,-154.26 l10,10 m-10,0 l10,-10 z" fill="none" stroke="#DD3355" stroke-width="2"/>
<path d="M113.87091,-123.09333 l10,10 m-10,0 l10,-10 z" fill="none" stroke="#DD3355" stroke-width="2"/>
<path d="M114.05156,-133.97333 l10,10 m-10,0 l10,-10 z" fill="none" stroke="#DD3355" stroke-width="2"/>
<path d="M115.13549,-134.08667 l10,10 m-10,0 l10,-10 z" fill="none" stroke="#DD3355" stroke-width="2"/>
<path d="M115.67745,-134.42667 l10,10 m-10,0 l10,-10 z" fill="none" stroke="#DD3355" stroke-width="2"/>
<path d="M116.76138,-132.72667 l10,10 m-10,0 l10,-10 z" fill="none" stroke="#DD3355" stroke-width="2"/>
<path d="M120.013176,-127.28667 l10,10 m-10,0 l10,-10 z" fill="none" stroke="#DD3355" stroke-width="2"/>
<path d="M120.91645,-124.113335 l10,10 m-10,0 l10,-10 z" fill="none" stroke="#DD3355" stroke-width="2"/>
<path d="M121.277756,-124 l10,10 m-10,0 l10,-10 z" fill="none" stroke="#DD3355" stroke-width="2"/>
<path d="M122.36169,-124 l10,10 m-10,0 l10,-10 z" fill="none" stroke="#DD3355" stroke-width="2"/>
<path d="M124.168236,-144.85333 l10,10 m-10,0 l10,-10 z" fill="none" stroke="#DD3355" stroke-width="2"/>
<path d="M125.79413,-164.46 l10,10 m-10,0 l10,-10 z" fill="none" stroke="#DD3355" stroke-width="2"/>
<path d="M125.79413,-164.34666 l10,10 m-10,0 l10,-10 z" fill="none" stroke="#DD3355" stroke-width="2"/>
<path d="M125.79413,-164.57333 l10,10 m-10,0 l10,-10 z" fill="none" stroke="#DD3355" stroke-width="2"/>
<path d="M125.974785,-164.23334 l10,10 m-10,0 l10,-10 z" fill="none" stroke="#DD3355" stroke-width="2"/>
<path d="M127.96199,-165.59334 l10,10 m-10,0 l10,-10 z" fill="none" stroke="#DD3355" stroke-width="2"/>
<path d="M135.73015,-152.67334 l10,10 m-10,0 l10,-10 z" fill="none" stroke="#DD3355" stroke-width="2"/>
<path d="M136.63342,-149.27333 l10,10 m-10,0 l10,-10 z" fill="none" stroke="#DD3355" stroke-width="2"/>
<path d="M139.34325,-145.30667 l10,10 m-10,0 l10,-10 z" fill="none" stroke="#DD3355" stroke-width="2"/>
<path d="M139.70456,-142.02 l10,10 m-10,0 l10,-10 z" fill="none" stroke="#DD3355" stroke-width="2"/>
<path d="M139.70456,-145.30667 l10,10 m-10,0 l10,-10 z" fill="none" stroke="#DD3355" stroke-width="2"/>
<path d="M139.88521,-139.3 l10,10 m-10,0 l10,-10 z" fill="none" stroke="#DD3355" stroke-width="2"/>
<path d="M140.24652,-139.3 l10,10 m-10,0 l10,-10 z" fill="none" stroke="#DD3355" stroke-width="2"/>
<path d="M141.1498,-140.77333 l10,10 m-10,0 l10,-10 z" fill="none" stroke="#DD3355" stroke-width="2"/>
<path d="M143.67896,-142.7 l10,10 m-10,0 l10,-10 z" fill="none" stroke="#DD3355" stroke-width="2"/>
<path d="M144.40158,-144.62666 l10,10 m-10,0 l10,-10 z" fill="none" stroke="#DD3355" stroke-width="2"/>
<path d="M146.02748,-166.5 l10,10 m-10,0 l10,-10 z" fill="none" stroke="#DD3355" stroke-width="2"/>
<path d="M146.56944,-173.41333 l10,10 m-10,0 l10,-10 z" fill="none" stroke="#DD3355" stroke-width="2"/>
<path d="M148.7373,-177.49333 l10,10 m-10,0 l10,-10 z" fill="none" stroke="#DD3355" stroke-width="2"/>
<path d="M150.7245,-180.78 l10,10 m-10,0 l10,-10 z" fill="none" stroke="#DD3355" stroke-width="2"/>
<path d="M153.43433,-177.49333 l10,10 m-10,0 l10,-10 z" fill="none" stroke="#DD3355" stroke-width="2"/>
<path d="M153.43433,-158.79333 l10,10 m-10,0 l10,-10 z" fill="none" stroke="#DD3355" stroke-width="2"/>
<path d="M153.43433,-150.40666 l10,10 m-10,0 l10,-10 z" fill="none" stroke="#DD3355" stroke-width="2"/>
<path d="M153.43433,-148.93333 l10,10 m-10,0 l10,-10 z" fill="none" stroke="#DD3355" stroke-width="2"/>
<path d="M153.79564,-143.60667 l10,10 m-10,0 l10,-10 z" fill="none" stroke="#DD3355" stroke-width="2"/>
<path d="M153.97629,-142.02 l10,10 m-10,0 l10,-10 z" fill="none" stroke="#DD3355" stroke-width="2"/>
<path d="M156.3248,-127.96667 l10,10 m-10,0 l10,-10 z" fill="none" stroke="#DD3355" stroke-width="2"/>
<path d="M156.86676,-125.81333 l10,10 m-10,0 l10,-10 z" fill="none" stroke="#DD3355" stroke-width="2"/>
<path d="M157.04742,-125.81333 l10,10 m-10,0 l10,-10 z" fill="none" stroke="#DD3355" stroke-width="2"/>
<path d="M157.9507,-125.81333 l10,10 m-10,0 l10,-10 z" fill="none" stroke="#DD3355" stroke-width="2"/>
<path d="M157.9507,-125.81333 l10,10 m-10,0 l10,-10 z" fill="none" stroke="#DD3355" stroke-width="2"/>
<path d="M159.21529,-141.45334 l10,10 m-10,0 l10,-10 z" fill="none" stroke="#DD3355" stroke-width="2"/>
<path d="M159.57658,-151.76666 l10,10 m-10,0 l10,-10 z" fill="none" stroke="#DD3355" stroke-width="2"/>
<path d="M161.5638,-147.12 l10,10 m-10,0 l10,-10 z" fill="none" stroke="#DD3355" stroke-width="2"/>
<path d="M162.2864,-147.34666 l10,10 m-10,0 l10,-10 z" fill="none" stroke="#DD3355" stroke-width="2"/>
<path d="M166.44148,-160.04 l10,10 m-10,0 l10,-10 z" fill="none" stroke="#DD3355" stroke-width="2"/>
<path d="M168.79,-197.89333 l10,10 m-10,0 l10,-10 z" fill="none" stroke="#DD3355" stroke-width="2"/>
<path d="M170.77719,-210.81334 l10,10 m-10,0 l10,-10 z" fill="none" stroke="#DD3355" stroke-width="2"/>
<path d="M171.1385,-210.7 l10,10 m-10,0 l10,-10 z" fill="none" stroke="#DD3355" stroke-width="2"/>
<path d="M171.49982,-208.77333 l10,10 m-10,0 l10,-10 z" fill="none" stroke="#DD3355" stroke-width="2"/>
<path d="M172.40309,-236.88 l10,10 m-10,0 l10,-10 z" fill="none" stroke="#DD3355" stroke-width="2"/>
<path d="M172.94505,-254.44667 l10,10 m-10,0 l10,-10 z" fill="none" stroke="#DD3355" stroke-width="2"/>
<path d="M173.1257,-252.52 l10,10 m-10,0 l10,-10 z" fill="none" stroke="#DD3355" stroke-width="2"/>
<path d="M173.84833,-257.28 l10,10 m-10,0 l10,-10 z" fill="none" stroke="#DD3355" stroke-width="2"/>
<path d="M174.02898,-260.34 l10,10 m-10,0 l10,-10 z" fill="none" stroke="#DD3355" stroke-width="2"/>
<path d="M174.7516,-255.24 l10,10 m-10,0 l10,-10 z" fill="none" stroke="#DD3355" stroke-width="2"/>
<path d="M177.10011,-227.13333 l10,10 m-10,0 l10,-10 z" fill="none" stroke="#DD3355" stroke-width="2"/>
<path d="M178.54535,-218.40666 l10,10 m-10,0 l10,-10 z" fill="none" stroke="#DD3355" stroke-width="2"/>
<path d="M178.54535,-218.52 l10,10 m-10,0 l10,-10 z" fill="none" stroke="#DD3355" stroke-width="2"/>
<path d="M179.08731,-222.71333 l10,10 m-10,0 l10,-10 z" fill="none" stroke="#DD3355" stroke-width="2"/>
<path d="M180.3519,-194.60667 l10,10 m-10,0 l10,-10 z" fill="none" stroke="#DD3355" stroke-width="2"/>
<path d="M180.53256,-186.10667 l10,10 m-10,0 l10,-10 z" fill="none" stroke="#DD3355" stroke-width="2"/>
<path d="M180.89386,-178.85333 l10,10 m-10,0 l10,-10 z" fill="none" stroke="#DD3355" stroke-width="2"/>
<path d="M181.61649,-176.7 l10,10 m-10,0 l10,-10 z" fill="none" stroke="#DD3355" stroke-width="2"/>
<path d="M182.15845,-176.81334 l10,10 m-10,0 l10,-10 z" fill="none" stroke="#DD3355" stroke-width="2"/>
<path d="M182.70041,-169.22 l10,10 m-10,0 l10,-10 z" fill="none" stroke="#DD3355" stroke-width="2"/>
<path d="M183.78435,-181.57333 l10,10 m-10,0 l10,-10 z" fill="none" stroke="#DD3355" stroke-width="2"/>
<path d="M184.14566,-175 l10,10 m-10,0 l10,-10 z" fill="none" stroke="#DD3355" stroke-width="2"/>
<path d="M184.32631,-170.46666 l10,10 m-10,0 l10,-10 z" fill="none" stroke="#DD3355" stroke-width="2"/>
<path d="M185.04893,-168.08667 l10,10 m-10,0 l10,-10 z" fill="none" stroke="#DD3355" stroke-width="2"/>
<path d="M189.9266,-177.38 l10,10 m-10,0 l10,-10 z" fill="none" stroke="#DD3355" stroke-width="2"/>
<path d="M190.46857,-193.92667 l10,10 m-10,0 l10,-10 z" fill="none" stroke="#DD3355" stroke-width="2"/>
<path d="M192.09447,-212.51334 l10,10 m-10,0 l10,-10 z" fill="none" stroke="#DD3355" stroke-width="2"/>
<path d="M193.72037,-234.5 l10,10 m-10,0 l10,-10 z" fill="none" stroke="#DD3355" stroke-width="2"/>
<path d="M195.88821,-236.08667 l10,10 m-10,0 l10,-10 z" fill="none" stroke="#DD3355" stroke-width="2"/>
<path d="M196.79149,-223.62 l10,10 m-10,0 l10,-10 z" fill="none" stroke="#DD3355" stroke-width="2"/>
<path d="M199.14001,-221.92 l10,10 m-10,0 l10,-10 z" fill="none" stroke="#DD3355" stroke-width="2"/>
<path d="M199.68198,-216.36667 l10,10 m-10,0 l10,-10 z" fill="none" stroke="#DD3355" stroke-width="2"/>
<path d="M200.22394,-220.9 l10,10 m-10,0 l10,-10 z" fill="none" stroke="#DD3355" stroke-width="2"/>
<path d="M200.22394,-221.01334 l10,10 m-10,0 l10,-10 z" fill="none" stroke="#DD3355" stroke-width="2"/>
<path d="M200.40459,-211.72 l10,10 m-10,0 l10,-10 z" fill="none" stroke="#DD3355" stroke-width="2"/>
<path d="M201.12721,-187.46666 l10,10 m-10,0 l10,-10 z" fill="none" stroke="#DD3355" stroke-width="2"/>
<path d="M201.30786,-176.24667 l10,10 m-10,0 l10,-10 z" fill="none" stroke="#DD3355" stroke-width="2"/>
<path d="M201.48853,-154.94 l10,10 m-10,0 l10,-10 z" fill="none" stroke="#DD3355" stroke-width="2"/>
<path d="M201.48853,-153.35333 l10,10 m-10,0 l10,-10 z" fill="none" stroke="#DD3355" stroke-width="2"/>
<path d="M204.01768,-154.6 l10,10 m-10,0 l10,-10 z" fill="none" stroke="#DD3355" stroke-width="2"/>
<path d="M206.54686,-135.9 l10,10 m-10,0 l10,-10 z" fill="none" stroke="#DD3355" stroke-width="2"/>
<path d="M209.07602,-141.11333 l10,10 m-10,0 l10,-10 z" fill="none" stroke="#DD3355" stroke-width="2"/>
<path d="M209.07602,-141.11333 l10,10 m-10,0 l10,-10 z" fill="none" stroke="#DD3355" stroke-width="2"/>
<path d="M211.9665,-102.12666 l10,10 m-10,0 l10,-10 z" fill="none" stroke="#DD3355" stroke-width="2"/>
<path d="M212.32782,-83.76667 l10,10 m-10,0 l10,-10 z" fill="none" stroke="#DD3355" stroke-width="2"/>
<path d="M212.86978,-91.36 l10,10 m-10,0 l10,-10 z" fill="none" stroke="#DD3355" stroke-width="2"/>
<path d="M213.59239,-93.513336 l10,10 m-10,0 l10,-10 z" fill="none" stroke="#DD3355" stroke-width="2"/>
<path d="M214.49567,-94.87334 l10,10 m-10,0 l10,-10 z" fill="none" stroke="#DD3355" stroke-width="2"/>
<path d="M214.67633,-92.833336 l10,10 m-10,0 l10,-10 z" fill="none" stroke="#DD3355" stroke-width="2"/>
<path d="M215.39894,-103.6 l10,10 m-10,0 l10,-10 z" fill="none" stroke="#DD3355" stroke-width="2"/>
<path d="M216.66353,-112.44 l10,10 m-10,0 l10,-10 z" fill="none" stroke="#DD3355" stroke-width="2"/>
<path d="M216.8442,-117.31333 l10,10 m-10,0 l10,-10 z" fill="none" stroke="#DD3355" stroke-width="2"/>
<path d="M221.90253,-123.66 l10,10 m-10,0 l10,-10 z" fill="none" stroke="#DD3355" stroke-width="2"/>
<path d="M222.26382,-166.16 l10,10 m-10,0 l10,-10 z" fill="none" stroke="#DD3355" stroke-width="2"/>
<path d="M225.15431,-232.23334 l10,10 m-10,0 l10,-10 z" fill="none" stroke="#DD3355" stroke-width="2"/>
<path d="M227.14151,-237.56 l10,10 m-10,0 l10,-10 z" fill="none" stroke="#DD3355" stroke-width="2"/>
<path d="M227.32217,-235.29333 l10,10 m-10,0 l10,-10 z" fill="none" stroke="#DD3355" stroke-width="2"/>
<path d="M227.86414,-229.17334 l10,10 m-10,0 l10,-10 z" fill="none" stroke="#DD3355" stroke-width="2"/>
<path d="M228.94806,-214.32666 l10,10 m-10,0 l10,-10 z" fill="none" stroke="#DD3355" stroke-width="2"/>
<path d="M229.12872,-214.78 l10,10 m-10,0 l10,-10 z" fill="none" stroke="#DD3355" stroke-width="2"/>
<path d="M229.49002,-214.78 l10,10 m-10,0 l10,-10 z" fill="none" stroke="#DD3355" stroke-width="2"/>
<path d="M230.57396,-227.92667 l10,10 m-10,0 l10,-10 z" fill="none" stroke="#DD3355" stroke-width="2"/>
<path d="M230.75461,-226.45334 l10,10 m-10,0 l10,-10 z" fill="none" stroke="#DD3355" stroke-width="2"/>
<path d="M233.28378,-208.20667 l10,10 m-10,0 l10,-10 z" fill="none" stroke="#DD3355" stroke-width="2"/>
<path d="M233.6451,-161.51334 l10,10 m-10,0 l10,-10 z" fill="none" stroke="#DD3355" stroke-width="2"/>
<path d="M234.0064,-157.54666 l10,10 m-10,0 l10,-10 z" fill="none" stroke="#DD3355" stroke-width="2"/>
<path d="M235.27098,-152.78667 l10,10 m-10,0 l10,-10 z" fill="none" stroke="#DD3355" stroke-width="2"/>
<path d="M236.17426,-158.90666 l10,10 m-10,0 l10,-10 z" fill="none" stroke="#DD3355" stroke-width="2"/>
<path d="M236.3549,-175.79333 l10,10 m-10,0 l10,-10 z" fill="none" stroke="#DD3355" stroke-width="2"/>
<path d="M237.43884,-186.9 l10,10 m-10,0 l10,-10 z" fill="none" stroke="#DD3355" stroke-width="2"/>
<path d="M239.06473,-175.68 l10,10 m-10,0 l10,-10 z" fill="none" stroke="#DD3355" stroke-width="2"/>
<path d="M239.24539,-162.76 l10,10 m-10,0 l10,-10 z" fill="none" stroke="#DD3355" stroke-width="2"/>
<path d="M239.968,-151.99333 l10,10 m-10,0 l10,-10 z" fill="none" stroke="#DD3355" stroke-width="2"/>
<path d="M240.50998,-162.76 l10,10 m-10,0 l10,-10 z" fill="none" stroke="#DD3355" stroke-width="2"/>
<path d="M240.50998,-162.76 l10,10 m-10,0 l10,-10 z" fill="none" stroke="#DD3355" stroke-width="2"/>
<path d="M243.2198,-148.93333 l10,10 m-10,0 l10,-10 z" fill="none" stroke="#DD3355" stroke-width="2"/>
<path d="M243.40045,-153.92 l10,10 m-10,0 l10,-10 z" fill="none" stroke="#DD3355" stroke-width="2"/>
<path d="M243.40045,-153.92 l10,10 m-10,0 l10,-10 z" fill="none" stroke="#DD3355" stroke-width="2"/>
<path d="M243.76176,-161.51334 l10,10 m-10,0 l10,-10 z" fill="none" stroke="#DD3355" stroke-width="2"/>
<path d="M243.94241,-150.40666 l10,10 m-10,0 l10,-10 z" fill="none" stroke="#DD3355" stroke-width="2"/>
<path d="M244.48438,-155.96 l10,10 m-10,0 l10,-10 z" fill="none" stroke="#DD3355" stroke-width="2"/>
<path d="M244.66504,-155.73334 l10,10 m-10,0 l10,-10 z" fill="none" stroke="#DD3355" stroke-width="2"/>
<path d="M245.02635,-159.81334 l10,10 m-10,0 l10,-10 z" fill="none" stroke="#DD3355" stroke-width="2"/>
<path d="M248.45879,-144.17334 l10,10 m-10,0 l10,-10 z" fill="none" stroke="#DD3355" stroke-width="2"/>
<path d="M250.8073,-139.3 l10,10 m-10,0 l10,-10 z" fill="none" stroke="#DD3355" stroke-width="2"/>
<path d="M254.60106,-151.31334 l10,10 m-10,0 l10,-10 z" fill="none" stroke="#DD3355" stroke-width="2"/>
<path d="M254.96236,-157.43333 l10,10 m-10,0 l10,-10 z" fill="none" stroke="#DD3355" stroke-width="2"/>
<path d="M254.96236,-158.45334 l10,10 m-10,0 l10,-10 z" fill="none" stroke="#DD3355" stroke-width="2"/>
<path d="M256.4076,-143.38 l10,10 m-10,0 l10,-10 z" fill="none" stroke="#DD3355" stroke-width="2"/>
<path d="M256.58826,-143.38 l10,10 m-10,0 l10,-10 z" fill="none" stroke="#DD3355" stroke-width="2"/>
<path d="M258.0335,-149.04666 l10,10 m-10,0 l10,-10 z" fill="none" stroke="#DD3355" stroke-width="2"/>
<path d="M258.0335,-142.81334 l10,10 m-10,0 l10,-10 z" fill="none" stroke="#DD3355" stroke-width="2"/>
<path d="M258.0335,-122.41333 l10,10 m-10,0 l10,-10 z" fill="none" stroke="#DD3355" stroke-width="2"/>
<path d="M262.0079,-83.76667 l10,10 m-10,0 l10,-10 z" fill="none" stroke="#DD3355" stroke-width="2"/>
<path d="M262.18857,-94.53333 l10,10 m-10,0 l10,-10 z" fill="none" stroke="#DD3355" stroke-width="2"/>
<path d="M262.73053,-103.486664 l10,10 m-10,0 l10,-10 z" fill="none" stroke="#DD3355" stroke-width="2"/>
<path d="M263.45316,-84.9 l10,10 m-10,0 l10,-10 z" fill="none" stroke="#DD3355" stroke-width="2"/>
<path d="M263.99512,-85.35333 l10,10 m-10,0 l10,-10 z" fill="none" stroke="#DD3355" stroke-width="2"/>
<path d="M264.89838,-97.14 l10,10 m-10,0 l10,-10 z" fill="none" stroke="#DD3355" stroke-width="2"/>
<path d="M265.44034,-100.42667 l10,10 m-10,0 l10,-10 z" fill="none" stroke="#DD3355" stroke-width="2"/>
<path d="M266.16296,-89.886665 l10,10 m-10,0 l10,-10 z" fill="none" stroke="#DD3355" stroke-width="2"/>
<path d="M268.51147,-87.39333 l10,10 m-10,0 l10,-10 z" fill="none" stroke="#DD3355" stroke-width="2"/>
<path d="M269.05344,-112.55334 l10,10 m-10,0 l10,-10 z" fill="none" stroke="#DD3355" stroke-width="2"/>
<path d="M271.76328,-196.30667 l10,10 m-10,0 l10,-10 z" fill="none" stroke="#DD3355" stroke-width="2"/>
<path d="M272.30524,-192.45334 l10,10 m-10,0 l10,-10 z" fill="none" stroke="#DD3355" stroke-width="2"/>
<path d="M273.56982,-206.05333 l10,10 m-10,0 l10,-10 z" fill="none" stroke="#DD3355" stroke-width="2"/>
<path d="M274.29245,-215.57333 l10,10 m-10,0 l10,-10 z" fill="none" stroke="#DD3355" stroke-width="2"/>
<path d="M275.1957,-214.44 l10,10 m-10,0 l10,-10 z" fill="none" stroke="#DD3355" stroke-width="2"/>
<path d="M277.90552,-213.42 l10,10 m-10,0 l10,-10 z" fill="none" stroke="#DD3355" stroke-width="2"/>
<path d="M278.62814,-210.13333 l10,10 m-10,0 l10,-10 z" fill="none" stroke="#DD3355" stroke-width="2"/>
<path d="M279.35077,-205.71333 l10,10 m-10,0 l10,-10 z" fill="none" stroke="#DD3355" stroke-width="2"/>
<path d="M284.77042,-222.26 l10,10 m-10,0 l10,-10 z" fill="none" stroke="#DD3355" stroke-width="2"/>
<path d="M284.95108,-219.31334 l10,10 m-10,0 l10,-10 z" fill="none" stroke="#DD3355" stroke-width="2"/>
<path d="M285.49304,-185.42667 l10,10 m-10,0 l10,-10 z" fill="none" stroke="#DD3355" stroke-width="2"/>
<path d="M286.57697,-177.15334 l10,10 m-10,0 l10,-10 z" fill="none" stroke="#DD3355" stroke-width="2"/>
<path d="M286.57697,-155.16667 l10,10 m-10,0 l10,-10 z" fill="none" stroke="#DD3355" stroke-width="2"/>
<path d="M286.75763,-157.88667 l10,10 m-10,0 l10,-10 z" fill="none" stroke="#DD3355" stroke-width="2"/>
<path d="M288.02222,-167.29333 l10,10 m-10,0 l10,-10 z" fill="none" stroke="#DD3355" stroke-width="2"/>
<path d="M288.56418,-164.00667 l10,10 m-10,0 l10,-10 z" fill="none" stroke="#DD3355" stroke-width="2"/>
<path d="M288.7448,-164.00667 l10,10 m-10,0 l10,-10 z" fill="none" stroke="#DD3355" stroke-width="2"/>
<path d="M288.7448,-178.96666 l10,10 m-10,0 l10,-10 z" fill="none" stroke="#DD3355" stroke-width="2"/>
<path d="M289.46744,-171.14667 l10,10 m-10,0 l10,-10 z" fill="none" stroke="#DD3355" stroke-width="2"/>
<path d="M289.46744,-171.14667 l10,10 m-10,0 l10,-10 z" fill="none" stroke="#DD3355" stroke-width="2"/>
<path d="M289.6481,-179.53334 l10,10 m-10,0 l10,-10 z" fill="none" stroke="#DD3355" stroke-width="2"/>
<path d="M291.09335,-189.39333 l10,10 m-10,0 l10,-10 z" fill="none" stroke="#DD3355" stroke-width="2"/>
<path d="M291.45465,-188.48666 l10,10 m-10,0 l10,-10 z" fill="none" stroke="#DD3355" stroke-width="2"/>
<path d="M291.9966,-185.54 l10,10 m-10,0 l10,-10 z" fill="none" stroke="#DD3355" stroke-width="2"/>
<path d="M294.70642,-175.11333 l10,10 m-10,0 l10,-10 z" fill="none" stroke="#DD3355" stroke-width="2"/>
<path d="M294.8871,-175.34 l10,10 m-10,0 l10,-10 z" fill="none" stroke="#DD3355" stroke-width="2"/>
<path d="M295.42905,-175.11333 l10,10 m-10,0 l10,-10 z" fill="none" stroke="#DD3355" stroke-width="2"/>
<path d="M295.79037,-172.28 l10,10 m-10,0 l10,-10 z" fill="none" stroke="#DD3355" stroke-width="2"/>
<path d="M298.1389,-170.58 l10,10 m-10,0 l10,-10 z" fill="none" stroke="#DD3355" stroke-width="2"/>
<path d="M298.1389,-170.58 l10,10 m-10,0 l10,-10 z" fill="none" stroke="#DD3355" stroke-width="2"/>
<path d="M298.8615,-164.8 l10,10 m-10,0 l10,-10 z" fill="none" stroke="#DD3355" stroke-width="2"/>
<path d="M299.76477,-152.44667 l10,10 m-10,0 l10,-10 z" fill="none" stroke="#DD3355" stroke-width="2"/>
<path d="M300.12607,-153.92 l10,10 m-10,0 l10,-10 z" fill="none" stroke="#DD3355" stroke-width="2"/>
<path d="M300.12607,-157.43333 l10,10 m-10,0 l10,-10 z" fill="none" stroke="#DD3355" stroke-width="2"/>
<path d="M307.7136,-167.63333 l10,10 m-10,0 l10,-10 z" fill="none" stroke="#DD3355" stroke-width="2"/>
<path d="M308.25555,-170.92 l10,10 m-10,0 l10,-10 z" fill="none" stroke="#DD3355" stroke-width="2"/>
<path d="M308.61685,-177.72 l10,10 m-10,0 l10,-10 z" fill="none" stroke="#DD3355" stroke-width="2"/>
<path d="M308.61685,-188.14667 l10,10 m-10,0 l10,-10 z" fill="none" stroke="#DD3355" stroke-width="2"/>
<path d="M309.70078,-193.7 l10,10 m-10,0 l10,-10 z" fill="none" stroke="#DD3355" stroke-width="2"/>
<path d="M310.0621,-229.74 l10,10 m-10,0 l10,-10 z" fill="none" stroke="#DD3355" stroke-width="2"/>
<path d="M310.60406,-246.17334 l10,10 m-10,0 l10,-10 z" fill="none" stroke="#DD3355" stroke-width="2"/>
<path d="M311.688,-250.25333 l10,10 m-10,0 l10,-10 z" fill="none" stroke="#DD3355" stroke-width="2"/>
<path d="M312.04932,-247.53334 l10,10 m-10,0 l10,-10 z" fill="none" stroke="#DD3355" stroke-width="2"/>
<path d="M313.49454,-260.34 l10,10 m-10,0 l10,-10 z" fill="none" stroke="#DD3355" stroke-width="2"/>
<path d="M315.3011,-252.52 l10,10 m-10,0 l10,-10 z" fill="none" stroke="#DD3355" stroke-width="2"/>
<path d="M317.6496,-240.96 l10,10 m-10,0 l10,-10 z" fill="none" stroke="#DD3355" stroke-width="2"/>
<path d="M317.6496,-234.38667 l10,10 m-10,0 l10,-10 z" fill="none" stroke="#DD3355" stroke-width="2"/>
<path d="M317.83026,-226.79333 l10,10 m-10,0 l10,-10 z" fill="none" stroke="#DD3355" stroke-width="2"/>
<path d="M318.37222,-227.58667 l10,10 m-10,0 l10,-10 z" fill="none" stroke="#DD3355" stroke-width="2"/>
<path d="M319.6368,-191.77333 l10,10 m-10,0 l10,-10 z" fill="none" stroke="#DD3355" stroke-width="2"/>
<path d="M319.9981,-181.57333 l10,10 m-10,0 l10,-10 z" fill="none" stroke="#DD3355" stroke-width="2"/>
<path d="M322.34662,-164.00667 l10,10 m-10,0 l10,-10 z" fill="none" stroke="#DD3355" stroke-width="2"/>
<path d="M322.34662,-157.66 l10,10 m-10,0 l10,-10 z" fill="none" stroke="#DD3355" stroke-width="2"/>
<path d="M323.97253,-111.19334 l10,10 m-10,0 l10,-10 z" fill="none" stroke="#DD3355" stroke-width="2"/>
<path d="M324.5145,-114.59333 l10,10 m-10,0 l10,-10 z" fill="none" stroke="#DD3355" stroke-width="2"/>
<path d="M324.69516,-122.64 l10,10 m-10,0 l10,-10 z" fill="none" stroke="#DD3355" stroke-width="2"/>
<path d="M325.77908,-120.26 l10,10 m-10,0 l10,-10 z" fill="none" stroke="#DD3355" stroke-width="2"/>
<path d="M327.2243,-117.42667 l10,10 m-10,0 l10,-10 z" fill="none" stroke="#DD3355" stroke-width="2"/>
<path d="M327.94693,-112.666664 l10,10 m-10,0 l10,-10 z" fill="none" stroke="#DD3355" stroke-width="2"/>
<path d="M329.93414,-115.386665 l10,10 m-10,0 l10,-10 z" fill="none" stroke="#DD3355" stroke-width="2"/>
<path d="M330.11478,-115.04667 l10,10 m-10,0 l10,-10 z" fill="none" stroke="#DD3355" stroke-width="2"/>
<path d="M330.65677,-133.74667 l10,10 m-10,0 l10,-10 z" fill="none" stroke="#DD3355" stroke-width="2"/>
<path d="M332.102,-132.95334 l10,10 m-10,0 l10,-10 z" fill="none" stroke="#DD3355" stroke-width="2"/>
<path d="M333.54724,-152.67334 l10,10 m-10,0 l10,-10 z" fill="none" stroke="#DD3355" stroke-width="2"/>
<path d="M336.4377,-147.57333 l10,10 m-10,0 l10,-10 z" fill="none" stroke="#DD3355" stroke-width="2"/>
<path d="M337.7023,-127.17333 l10,10 m-10,0 l10,-10 z" fill="none" stroke="#DD3355" stroke-width="2"/>
<path d="M338.0636,-126.04 l10,10 m-10,0 l10,-10 z" fill="none" stroke="#DD3355" stroke-width="2"/>
<path d="M338.42493,-131.82 l10,10 m-10,0 l10,-10 z" fill="none" stroke="#DD3355" stroke-width="2"/>
<path d="M338.78622,-133.97333 l10,10 m-10,0 l10,-10 z" fill="none" stroke="#DD3355" stroke-width="2"/>
<path d="M341.3154,-124.22667 l10,10 m-10,0 l10,-10 z" fill="none" stroke="#DD3355" stroke-width="2"/>
<path d="M341.3154,-124.113335 l10,10 m-10,0 l10,-10 z" fill="none" stroke="#DD3355" stroke-width="2"/>
<path d="M341.49606,-129.32666 l10,10 m-10,0 l10,-10 z" fill="none" stroke="#DD3355" stroke-width="2"/>
<path d="M343.48325,-153.80667 l10,10 m-10,0 l10,-10 z" fill="none" stroke="#DD3355" stroke-width="2"/>
<path d="M344.20587,-175.56667 l10,10 m-10,0 l10,-10 z" fill="none" stroke="#DD3355" stroke-width="2"/>
<path d="M345.10913,-182.25333 l10,10 m-10,0 l10,-10 z" fill="none" stroke="#DD3355" stroke-width="2"/>
<path d="M346.73505,-210.7 l10,10 m-10,0 l10,-10 z" fill="none" stroke="#DD3355" stroke-width="2"/>
<path d="M349.44485,-224.64 l10,10 m-10,0 l10,-10 z" fill="none" stroke="#DD3355" stroke-width="2"/>
<path d="M350.52878,-224.41333 l10,10 m-10,0 l10,-10 z" fill="none" stroke="#DD3355" stroke-width="2"/>
<path d="M352.87732,-226.68 l10,10 m-10,0 l10,-10 z" fill="none" stroke="#DD3355" stroke-width="2"/>
<path d="M355.22583,-250.14 l10,10 m-10,0 l10,-10 z" fill="none" stroke="#DD3355" stroke-width="2"/>
<path d="M356.30975,-255.12666 l10,10 m-10,0 l10,-10 z" fill="none" stroke="#DD3355" stroke-width="2"/>
<path d="M357.57434,-260.11334 l10,10 m-10,0 l10,-10 z" fill="none" stroke="#DD3355" stroke-width="2"/>
<path d="M358.83893,-251.5 l10,10 m-10,0 l10,-10 z" fill="none" stroke="#DD3355" stroke-width="2"/>
<path d="M358.83893,-243.11333 l10,10 m-10,0 l10,-10 z" fill="none" stroke="#DD3355" stroke-width="2"/>
<path d="M360.8261,-237.10667 l10,10 m-10,0 l10,-10 z" fill="none" stroke="#DD3355" stroke-width="2"/>
<path d="M362.81332,-208.20667 l10,10 m-10,0 l10,-10 z" fill="none" stroke="#DD3355" stroke-width="2"/>
<path d="M363.17462,-197.32666 l10,10 m-10,0 l10,-10 z" fill="none" stroke="#DD3355" stroke-width="2"/>
<path d="M364.98117,-192 l10,10 m-10,0 l10,-10 z" fill="none" stroke="#DD3355" stroke-width="2"/>
<path d="M366.42642,-175.56667 l10,10 m-10,0 l10,-10 z" fill="none" stroke="#DD3355" stroke-width="2"/>
<path d="M366.96838,-146.44 l10,10 m-10,0 l10,-10 z" fill="none" stroke="#DD3355" stroke-width="2"/>
<path d="M366.96838,-137.03334 l10,10 m-10,0 l10,-10 z" fill="none" stroke="#DD3355" stroke-width="2"/>
<path d="M367.691,-134.08667 l10,10 m-10,0 l10,-10 z" fill="none" stroke="#DD3355" stroke-width="2"/>
<path d="M368.9556,-126.72 l10,10 m-10,0 l10,-10 z" fill="none" stroke="#DD3355" stroke-width="2"/>
<path d="M370.40082,-136.46666 l10,10 m-10,0 l10,-10 z" fill="none" stroke="#DD3355" stroke-width="2"/>
<path d="M370.76215,-135.9 l10,10 m-10,0 l10,-10 z" fill="none" stroke="#DD3355" stroke-width="2"/>
<path d="M370.94278,-156.86667 l10,10 m-10,0 l10,-10 z" fill="none" stroke="#DD3355" stroke-width="2"/>
<path d="M371.84607,-169.33333 l10,10 m-10,0 l10,-10 z" fill="none" stroke="#DD3355" stroke-width="2"/>
<path d="M372.02673,-172.84666 l10,10 m-10,0 l10,-10 z" fill="none" stroke="#DD3355" stroke-width="2"/>
<path d="M373.29132,-181.34666 l10,10 m-10,0 l10,-10 z" fill="none" stroke="#DD3355" stroke-width="2"/>
<path d="M374.37524,-190.18666 l10,10 m-10,0 l10,-10 z" fill="none" stroke="#DD3355" stroke-width="2"/>
<path d="M374.73654,-194.60667 l10,10 m-10,0 l10,-10 z" fill="none" stroke="#DD3355" stroke-width="2"/>
<path d="M375.2785,-190.98 l10,10 m-10,0 l10,-10 z" fill="none" stroke="#DD3355" stroke-width="2"/>
<path d="M376.72375,-190.75333 l10,10 m-10,0 l10,-10 z" fill="none" stroke="#DD3355" stroke-width="2"/>
<path d="M376.9044,-181.00667 l10,10 m-10,0 l10,-10 z" fill="none" stroke="#DD3355" stroke-width="2"/>
<path d="M377.08505,-180.1 l10,10 m-10,0 l10,-10 z" fill="none" stroke="#DD3355" stroke-width="2"/>
<path d="M377.627,-179.98666 l10,10 m-10,0 l10,-10 z" fill="none" stroke="#DD3355" stroke-width="2"/>
<path d="M378.71094,-167.97333 l10,10 m-10,0 l10,-10 z" fill="none" stroke="#DD3355" stroke-width="2"/>
<path d="M379.25293,-167.06667 l10,10 m-10,0 l10,-10 z" fill="none" stroke="#DD3355" stroke-width="2"/>
<path d="M379.7949,-170.69333 l10,10 m-10,0 l10,-10 z" fill="none" stroke="#DD3355" stroke-width="2"/>
<path d="M381.2401,-170.24 l10,10 m-10,0 l10,-10 z" fill="none" stroke="#DD3355" stroke-width="2"/>
<path d="M381.60144,-170.24 l10,10 m-10,0 l10,-10 z" fill="none" stroke="#DD3355" stroke-width="2"/>
<path d="M382.5047,-170.24 l10,10 m-10,0 l10,-10 z" fill="none" stroke="#DD3355" stroke-width="2"/>
<path d="M384.13058,-170.12666 l10,10 m-10,0 l10,-10 z" fill="none" stroke="#DD3355" stroke-width="2"/>
<path d="M384.67258,-162.98666 l10,10 m-10,0 l10,-10 z" fill="none" stroke="#DD3355" stroke-width="2"/>
<path d="M385.21454,-152.9 l10,10 m-10,0 l10,-10 z" fill="none" stroke="#DD3355" stroke-width="2"/>
<path d="M385.7565,-152.9 l10,10 m-10,0 l10,-10 z" fill="none" stroke="#DD3355" stroke-width="2"/>
<path d="M391.89877,-132.84 l10,10 m-10,0 l10,-10 z" fill="none" stroke="#DD3355" stroke-width="2"/>
<path d="M393.7053,-128.64667 l10,10 m-10,0 l10,-10 z" fill="none" stroke="#DD3355" stroke-width="2"/>
<path d="M395.15054,-125.36 l10,10 m-10,0 l10,-10 z" fill="none" stroke="#DD3355" stroke-width="2"/>
<path d="M395.6925,-128.76 l10,10 m-10,0 l10,-10 z" fill="none" stroke="#DD3355" stroke-width="2"/>
<path d="M397.13776,-129.32666 l10,10 m-10,0 l10,-10 z" fill="none" stroke="#DD3355" stroke-width="2"/>
<path d="M397.13776,-128.19333 l10,10 m-10,0 l10,-10 z" fill="none" stroke="#DD3355" stroke-width="2"/>
<path d="M398.58298,-126.72 l10,10 m-10,0 l10,-10 z" fill="none" stroke="#DD3355" stroke-width="2"/>
<path d="M398.76364,-123.886665 l10,10 m-10,0 l10,-10 z" fill="none" stroke="#DD3355" stroke-width="2"/>
<path d="M399.84756,-136.12666 l10,10 m-10,0 l10,-10 z" fill="none" stroke="#DD3355" stroke-width="2"/>
<path d="M399.84756,-136.12666 l10,10 m-10,0 l10,-10 z" fill="none" stroke="#DD3355" stroke-width="2"/>
<path d="M400.2089,-154.82666 l10,10 m-10,0 l10,-10 z" fill="none" stroke="#DD3355" stroke-width="2"/>
<path d="M401.47348,-159.81334 l10,10 m-10,0 l10,-10 z" fill="none" stroke="#DD3355" stroke-width="2"/>
<path d="M402.9187,-163.21333 l10,10 m-10,0 l10,-10 z" fill="none" stroke="#DD3355" stroke-width="2"/>
<path d="M403.09937,-165.14 l10,10 m-10,0 l10,-10 z" fill="none" stroke="#DD3355" stroke-width="2"/>
<path d="M404.00262,-164.57333 l10,10 m-10,0 l10,-10 z" fill="none" stroke="#DD3355" stroke-width="2"/>
<path d="M404.5446,-193.92667 l10,10 m-10,0 l10,-10 z" fill="none" stroke="#DD3355" stroke-width="2"/>
<path d="M407.97705,-205.26 l10,10 m-10,0 l10,-10 z" fill="none" stroke="#DD3355" stroke-width="2"/>
<path d="M409.24164,-215.23334 l10,10 m-10,0 l10,-10 z" fill="none" stroke="#DD3355" stroke-width="2"/>
<path d="M409.96423,-213.87334 l10,10 m-10,0 l10,-10 z" fill="none" stroke="#DD3355" stroke-width="2"/>
<path d="M409.96423,-213.87334 l10,10 m-10,0 l10,-10 z" fill="none" stroke="#DD3355" stroke-width="2"/>
<path d="M409.96423,-215.46 l10,10 m-10,0 l10,-10 z" fill="none" stroke="#DD3355" stroke-width="2"/>
<path d="M410.86752,-228.60667 l10,10 m-10,0 l10,-10 z" fill="none" stroke="#DD3355" stroke-width="2"/>
<path d="M411.22882,-228.49333 l10,10 m-10,0 l10,-10 z" fill="none" stroke="#DD3355" stroke-width="2"/>
<path d="M411.77078,-227.24667 l10,10 m-10,0 l10,-10 z" fill="none" stroke="#DD3355" stroke-width="2"/>
<path d="M413.21603,-227.7 l10,10 m-10,0 l10,-10 z" fill="none" stroke="#DD3355" stroke-width="2"/>
<path d="M413.93866,-198.34666 l10,10 m-10,0 l10,-10 z" fill="none" stroke="#DD3355" stroke-width="2"/>
<path d="M414.29996,-189.62 l10,10 m-10,0 l10,-10 z" fill="none" stroke="#DD3355" stroke-width="2"/>
<path d="M414.29996,-189.62 l10,10 m-10,0 l10,-10 z" fill="none" stroke="#DD3355" stroke-width="2"/>
<path d="M414.6613,-189.62 l10,10 m-10,0 l10,-10 z" fill="none" stroke="#DD3355" stroke-width="2"/>
<path d="M414.6613,-189.62 l10,10 m-10,0 l10,-10 z" fill="none" stroke="#DD3355" stroke-width="2"/>
<path d="M414.84192,-218.74667 l10,10 m-10,0 l10,-10 z" fill="none" stroke="#DD3355" stroke-width="2"/>
<path d="M414.84192,-204.80667 l10,10 m-10,0 l10,-10 z" fill="none" stroke="#DD3355" stroke-width="2"/>
<path d="M415.92584,-208.66 l10,10 m-10,0 l10,-10 z" fill="none" stroke="#DD3355" stroke-width="2"/>
<path d="M416.64847,-208.43333 l10,10 m-10,0 l10,-10 z" fill="none" stroke="#DD3355" stroke-width="2"/>
<path d="M416.82913,-211.60667 l10,10 m-10,0 l10,-10 z" fill="none" stroke="#DD3355" stroke-width="2"/>
<path d="M417.55176,-210.47333 l10,10 m-10,0 l10,-10 z" fill="none" stroke="#DD3355" stroke-width="2"/>
<path d="M418.45502,-197.89333 l10,10 m-10,0 l10,-10 z" fill="none" stroke="#DD3355" stroke-width="2"/>
<path d="M423.3327,-190.41333 l10,10 m-10,0 l10,-10 z" fill="none" stroke="#DD3355" stroke-width="2"/>
<path d="M423.51337,-192.22667 l10,10 m-10,0 l10,-10 z" fill="none" stroke="#DD3355" stroke-width="2"/>
<path d="M423.69403,-192.22667 l10,10 m-10,0 l10,-10 z" fill="none" stroke="#DD3355" stroke-width="2"/>
<path d="M424.236,-162.98666 l10,10 m-10,0 l10,-10 z" fill="none" stroke="#DD3355" stroke-width="2"/>
<path d="M424.77795,-157.43333 l10,10 m-10,0 l10,-10 z" fill="none" stroke="#DD3355" stroke-width="2"/>
<path d="M425.13925,-153.58 l10,10 m-10,0 l10,-10 z" fill="none" stroke="#DD3355" stroke-width="2"/>
<path d="M426.9458,-130.23334 l10,10 m-10,0 l10,-10 z" fill="none" stroke="#DD3355" stroke-width="2"/>
<path d="M428.5717,-124.113335 l10,10 m-10,0 l10,-10 z" fill="none" stroke="#DD3355" stroke-width="2"/>
<path d="M428.75235,-116.40667 l10,10 m-10,0 l10,-10 z" fill="none" stroke="#DD3355" stroke-width="2"/>
<path d="M428.933,-128.98666 l10,10 m-10,0 l10,-10 z" fill="none" stroke="#DD3355" stroke-width="2"/>
<path d="M430.01694,-136.46666 l10,10 m-10,0 l10,-10 z" fill="none" stroke="#DD3355" stroke-width="2"/>
<path d="M431.10086,-119.46667 l10,10 m-10,0 l10,-10 z" fill="none" stroke="#DD3355" stroke-width="2"/>
<path d="M431.64282,-119.35333 l10,10 m-10,0 l10,-10 z" fill="none" stroke="#DD3355" stroke-width="2"/>
<path d="M433.63004,-107.45333 l10,10 m-10,0 l10,-10 z" fill="none" stroke="#DD3355" stroke-width="2"/>
<path d="M435.61725,-92.94666 l10,10 m-10,0 l10,-10 z" fill="none" stroke="#DD3355" stroke-width="2"/>
<path d="M435.61725,-92.94666 l10,10 m-10,0 l10,-10 z" fill="none" stroke="#DD3355" stroke-width="2"/>
<path d="M437.4238,-116.52 l10,10 m-10,0 l10,-10 z" fill="none" stroke="#DD3355" stroke-width="2"/>
<path d="M439.04968,-97.36667 l10,10 m-10,0 l10,-10 z" fill="none" stroke="#DD3355" stroke-width="2"/>
<path d="M439.04968,-106.206665 l10,10 m-10,0 l10,-10 z" fill="none" stroke="#DD3355" stroke-width="2"/>
<path d="M439.23035,-106.54667 l10,10 m-10,0 l10,-10 z" fill="none" stroke="#DD3355" stroke-width="2"/>
<path d="M439.7723,-120.6 l10,10 m-10,0 l10,-10 z" fill="none" stroke="#DD3355" stroke-width="2"/>
<path d="M439.7723,-136.12666 l10,10 m-10,0 l10,-10 z" fill="none" stroke="#DD3355" stroke-width="2"/>
<path d="M440.31427,-137.6 l10,10 m-10,0 l10,-10 z" fill="none" stroke="#DD3355" stroke-width="2"/>
<path d="M441.21753,-151.2 l10,10 m-10,0 l10,-10 z" fill="none" stroke="#DD3355" stroke-width="2"/>
<path d="M441.3982,-170.80667 l10,10 m-10,0 l10,-10 z" fill="none" stroke="#DD3355" stroke-width="2"/>
<path d="M441.57886,-170.35333 l10,10 m-10,0 l10,-10 z" fill="none" stroke="#DD3355" stroke-width="2"/>
<path d="M441.7595,-170.58 l10,10 m-10,0 l10,-10 z" fill="none" stroke="#DD3355" stroke-width="2"/>
<path d="M444.108,-209.34 l10,10 m-10,0 l10,-10 z" fill="none" stroke="#DD3355" stroke-width="2"/>
<path d="M444.108,-209.34 l10,10 m-10,0 l10,-10 z" fill="none" stroke="#DD3355" stroke-width="2"/>
<path d="M446.0952,-242.32 l10,10 m-10,0 l10,-10 z" fill="none" stroke="#DD3355" stroke-width="2"/>
<path d="M446.27588,-228.26666 l10,10 m-10,0 l10,-10 z" fill="none" stroke="#DD3355" stroke-width="2"/>
<path d="M449.88898,-225.77333 l10,10 m-10,0 l10,-10 z" fill="none" stroke="#DD3355" stroke-width="2"/>
<path d="M450.43094,-216.48 l10,10 m-10,0 l10,-10 z" fill="none" stroke="#DD3355" stroke-width="2"/>
<path d="M450.79224,-205.82666 l10,10 m-10,0 l10,-10 z" fill="none" stroke="#DD3355" stroke-width="2"/>
<path d="M450.79224,-206.05333 l10,10 m-10,0 l10,-10 z" fill="none" stroke="#DD3355" stroke-width="2"/>
<path d="M450.79224,-206.50667 l10,10 m-10,0 l10,-10 z" fill="none" stroke="#DD3355" stroke-width="2"/>
<path d="M451.51486,-207.3 l10,10 m-10,0 l10,-10 z" fill="none" stroke="#DD3355" stroke-width="2"/>
<path d="M451.51486,-190.18666 l10,10 m-10,0 l10,-10 z" fill="none" stroke="#DD3355" stroke-width="2"/>
<path d="M452.77945,-177.04 l10,10 m-10,0 l10,-10 z" fill="none" stroke="#DD3355" stroke-width="2"/>
<path d="M456.5732,-146.78 l10,10 m-10,0 l10,-10 z" fill="none" stroke="#DD3355" stroke-width="2"/>
<path d="M456.5732,-146.78 l10,10 m-10,0 l10,-10 z" fill="none" stroke="#DD3355" stroke-width="2"/>
<path d="M456.5732,-148.93333 l10,10 m-10,0 l10,-10 z" fill="none" stroke="#DD3355" stroke-width="2"/>
<path d="M459.64435,-156.98 l10,10 m-10,0 l10,-10 z" fill="none" stroke="#DD3355" stroke-width="2"/>
<path d="M460.72827,-166.61333 l10,10 m-10,0 l10,-10 z" fill="none" stroke="#DD3355" stroke-width="2"/>
<path d="M461.4509,-180.55333 l10,10 m-10,0 l10,-10 z" fill="none" stroke="#DD3355" stroke-width="2"/>
<path d="M462.53482,-192.79333 l10,10 m-10,0 l10,-10 z" fill="none" stroke="#DD3355" stroke-width="2"/>
<path d="M462.71545,-188.6 l10,10 m-10,0 l10,-10 z" fill="none" stroke="#DD3355" stroke-width="2"/>
<path d="M463.7994,-191.54666 l10,10 m-10,0 l10,-10 z" fill="none" stroke="#DD3355" stroke-width="2"/>
<path d="M465.064,-205.37334 l10,10 m-10,0 l10,-10 z" fill="none" stroke="#DD3355" stroke-width="2"/>
<path d="M465.60596,-202.31334 l10,10 m-10,0 l10,-10 z" fill="none" stroke="#DD3355" stroke-width="2"/>
<path d="M466.14792,-203.22 l10,10 m-10,0 l10,-10 z" fill="none" stroke="#DD3355" stroke-width="2"/>
<path d="M467.05118,-203.22 l10,10 m-10,0 l10,-10 z" fill="none" stroke="#DD3355" stroke-width="2"/>
<path d="M469.3997,-203.10667 l10,10 m-10,0 l10,-10 z" fill="none" stroke="#DD3355" stroke-width="2"/>
<path d="M470.30298,-202.31334 l10,10 m-10,0 l10,-10 z" fill="none" stroke="#DD3355" stroke-width="2"/>
<path d="M471.56757,-188.6 l10,10 m-10,0 l10,-10 z" fill="none" stroke="#DD3355" stroke-width="2"/>
<path d="M471.56757,-176.36 l10,10 m-10,0 l10,-10 z" fill="none" stroke="#DD3355" stroke-width="2"/>
<path d="M472.10953,-179.53334 l10,10 m-10,0 l10,-10 z" fill="none" stroke="#DD3355" stroke-width="2"/>
<path d="M473.55475,-216.59334 l10,10 m-10,0 l10,-10 z" fill="none" stroke="#DD3355" stroke-width="2"/>
<path d="M475,-238.24 l10,10 m-10,0 l10,-10 z" fill="none" stroke="#DD3355" stroke-width="2"/>
</g>
</g>
<g>
<g>
<line stroke="black" stroke-width="1" x1="0" x2="0" y1="0" y2="10"/>
<line stroke="black" stroke-width="1" x1="90.32743695897629" x2="90.32743695897629" y1="0" y2="10"/>
<line stroke="black" stroke-width="1" x1="180.65487391795259" x2="180.65487391795259" y1="0" y2="10"/>
<line stroke="black" stroke-width="1" x1="270.98231087692886" x2="270.98231087692886" y1="0" y2="10"/>
<line stroke="black" stroke-width="1" x1="361.30974783590517" x2="361.30974783590517" y1="0" y2="10"/>
<line stroke="black" stroke-width="1" x1="451.6371847948814" x2="451.6371847948814" y1="0" y2="10"/>
</g>
<line stroke="black" stroke-width="1" x1="0" x2="480" y1="0" y2="0"/>
<g>
<text font-size="12" text-anchor="middle" x="0" y="20">
32
</text>
<text font-size="12" text-anchor="middle" x="90.32743695897629" y="20">
532
</text>
<text font-size="12" text-anchor="middle" x="180.65487391795259" y="20">
1032
</text>
<text font-size="12" text-anchor="middle" x="270.98231087692886" y="20">
1532
</text>
<text font-size="12" text-anchor="middle" x="361.30974783590517" y="20">
2032
</text>
<text font-size="12" text-anchor="middle" x="451.6371847948814" y="20">
2532
</text>
</g>
<text font-size="12" text-anchor="middle" x="240" y="30">
unix timestamp
</text>
</g>
<g>
<g>
<line stroke="black" stroke-width="1" x1="0" x2="-10" y1="-56.666666666666664" y2="-56.666666666666664"/>
<line stroke="black" stroke-width="1" x1="0" x2="-10" y1="-170" y2="-170"/>
<line stroke="black" stroke-width="1" x1="0" x2="-10" y1="-283.3333333333333" y2="-283.3333333333333"/>
</g>
<line stroke="black" stroke-width="1" x1="0" x2="0" y1="0" y2="-340"/>
<g>
<text dominant-baseline="middle" font-size="12" text-anchor="end" x="-15" y="-56.666666666666664">
-10
</text>
<text dominant-baseline="middle" font-size="12" text-anchor="end" x="-15" y="-170">
0
</text>
<text dominant-baseline="middle" font-size="12" text-anchor="end" x="-15" y="-283.3333333333333">
10
</text>
</g>
<text font-size="12" text-anchor="middle" transform="rotate(-90 -36 -170)" x="-36" y="-182">
returns
</text>
</g>
</g>
</svg>