<svg viewBox="0 0 600 400" xmlns="http://www.w3.org/2000/svg">
<g transform="translate(72, 364)">
<g>
<g>
<path d="M-5,-185.28094 l10,10 m-10,0 l10,-10 z" fill="none" stroke="#DD3355" stroke-width="2"/>
<path d="M-4.449541,-184.59555 l10,10 m-10,0 l10,-10 z" fill="none" stroke="#DD3355" stroke-width="2"/>
<path d="M-4.266055,-182.85777 l10,10 m-10,0 l10,-10 z" fill="none" stroke="#DD3355" stroke-width="2"/>
<path d="M-3.3486238,-175.52888 l10,10 m-10,0 l10,-10 z" fill="none" stroke="#DD3355" stroke-width="2"/>
<path d="M-2.6146789,-183.16 l10,10 m-10,0 l10,-10 z" fill="none" stroke="#DD3355" stroke-width="2"/>
<path d="M-1.880734,-175 l10,10 m-10,0 l10,-10 z" fill="none" stroke="#DD3355" stroke-width="2"/>
<path d="M-1.880734,-175.15111 l10,10 m-10,0 l10,-10 z" fill="none" stroke="#DD3355" stroke-width="2"/>
<path d="M-1.146789,-170.46666 l10,10 m-10,0 l10,-10 z" fill="none" stroke="#DD3355" stroke-width="2"/>
<path d="M-0.7798165,-170.46666 l10,10 m-10,0 l10,-10 z" fill="none" stroke="#DD3355" stroke-width="2"/>
<path d="M0.13761468,-170.39111 l10,10 m-10,0 l10,-10 z" fill="none" stroke="#DD3355" stroke-width="2"/>
<path d="M1.0550458,-169.48445 l10,10 m-10,0 l10,-10 z" fill="none" stroke="#DD3355" stroke-width="2"/>
<path d="M2.1559634,-164.04445 l10,10 m-10,0 l10,-10 z" fill="none" stroke="#DD3355" stroke-width="2"/>
<path d="M2.5229359,-164.04445 l10,10 m-10,0 l10,-10 z" fill="none" stroke="#DD3355" stroke-width="2"/>
<path d="M3.0733945,-164.12 l10,10 m-10,0 l10,-10 z" fill="none" stroke="#DD3355" stroke-width="2"/>
<path d="M4.357798,-171.67555 l10,10 m-10,0 l10,-10 z" fill="none" stroke="#DD3355" stroke-width="2"/>
<path d="M4.908257,-180.06223 l10,10 m-10,0 l10,-10 z" fill="none" stroke="#DD3355" stroke-width="2"/>
<path d="M4.908257,-180.06223 l10,10 m-10,0 l10,-10 z" fill="none" stroke="#DD3355" stroke-width="2"/>
<path d="M4.908257,-183.53778 l10,10 m-10,0 l10,-10 z" fill="none" stroke="#DD3355" stroke-width="2"/>
<path d="M5.4587154,-199.25333 l10,10 m-10,0 l10,-10 z" fill="none" stroke="#DD3355" stroke-width="2"/>
<path d="M9.311927,-210.96445 l10,10 m-10,0 l10,-10 z" fill="none" stroke="#DD3355" stroke-width="2"/>
<path d="M9.862386,-225.77333 l10,10 m-10,0 l10,-10 z" fill="none" stroke="#DD3355" stroke-width="2"/>
<path d="M10.963303,-234.53778 l10,10 m-10,0 l10,-10 z" fill="none" stroke="#DD3355" stroke-width="2"/>
<path d="M11.146789,-229.62666 l10,10 m-10,0 l10,-10 z" fill="none" stroke="#DD3355" stroke-width="2"/>
<path d="M11.5137615,-230.30667 l10,10 m-10,0 l10,-10 z" fill="none" stroke="#DD3355" stroke-width="2"/>
<path d="M11.8807335,-227.43556 l10,10 m-10,0 l10,-10 z" fill="none" stroke="#DD3355" stroke-width="2"/>
<path d="M12.06422,-237.63556 l10,10 m-10,0 l10,-10 z" fill="none" stroke="#DD3355" stroke-width="2"/>
<path d="M13.165137,-226.98222 l10,10 m-10,0 l10,-10 z" fill="none" stroke="#DD3355" stroke-width="2"/>
<path d="M13.715596,-226.45334 l10,10 m-10,0 l10,-10 z" fill="none" stroke="#DD3355" stroke-width="2"/>
<path d="M15.183486,-226.37778 l10,10 m-10,0 l10,-10 z" fill="none" stroke="#DD3355" stroke-width="2"/>
<path d="M16.284403,-214.36444 l10,10 m-10,0 l10,-10 z" fill="none" stroke="#DD3355" stroke-width="2"/>
<path d="M18.486238,-210.36 l10,10 m-10,0 l10,-10 z" fill="none" stroke="#DD3355" stroke-width="2"/>
<path d="M18.85321,-211.5689 l10,10 m-10,0 l10,-10 z" fill="none" stroke="#DD3355" stroke-width="2"/>
<path d="M19.036697,-206.96 l10,10 m-10,0 l10,-10 z" fill="none" stroke="#DD3355" stroke-width="2"/>
<path d="M19.220184,-191.24445 l10,10 m-10,0 l10,-10 z" fill="none" stroke="#DD3355" stroke-width="2"/>
<path d="M20.688074,-188.22223 l10,10 m-10,0 l10,-10 z" fill="none" stroke="#DD3355" stroke-width="2"/>
<path d="M20.87156,-178.24889 l10,10 m-10,0 l10,-10 z" fill="none" stroke="#DD3355" stroke-width="2"/>
<path d="M21.422018,-180.51555 l10,10 m-10,0 l10,-10 z" fill="none" stroke="#DD3355" stroke-width="2"/>
<path d="M21.605505,-174.09334 l10,10 m-10,0 l10,-10 z" fill="none" stroke="#DD3355" stroke-width="2"/>
<path d="M23.623854,-166.91556 l10,10 m-10,0 l10,-10 z" fill="none" stroke="#DD3355" stroke-width="2"/>
<path d="M24.541285,-169.78667 l10,10 m-10,0 l10,-10 z" fill="none" stroke="#DD3355" stroke-width="2"/>
<path d="M25.091743,-158.68 l10,10 m-10,0 l10,-10 z" fill="none" stroke="#DD3355" stroke-width="2"/>
<path d="M28.394495,-167.14223 l10,10 m-10,0 l10,-10 z" fill="none" stroke="#DD3355" stroke-width="2"/>
<path d="M29.495413,-163.21333 l10,10 m-10,0 l10,-10 z" fill="none" stroke="#DD3355" stroke-width="2"/>
<path d="M29.495413,-162.68445 l10,10 m-10,0 l10,-10 z" fill="none" stroke="#DD3355" stroke-width="2"/>
<path d="M30.963303,-176.88889 l10,10 m-10,0 l10,-10 z" fill="none" stroke="#DD3355" stroke-width="2"/>
<path d="M31.330275,-179.00444 l10,10 m-10,0 l10,-10 z" fill="none" stroke="#DD3355" stroke-width="2"/>
<path d="M31.513762,-177.79556 l10,10 m-10,0 l10,-10 z" fill="none" stroke="#DD3355" stroke-width="2"/>
<path d="M32.614677,-177.11555 l10,10 m-10,0 l10,-10 z" fill="none" stroke="#DD3355" stroke-width="2"/>
<path d="M34.08257,-175.90666 l10,10 m-10,0 l10,-10 z" fill="none" stroke="#DD3355" stroke-width="2"/>
<path d="M34.08257,-165.93333 l10,10 m-10,0 l10,-10 z" fill="none" stroke="#DD3355" stroke-width="2"/>
<path d="M34.266056,-161.85333 l10,10 m-10,0 l10,-10 z" fill="none" stroke="#DD3355" stroke-width="2"/>
<path d="M34.449543,-150.67111 l10,10 m-10,0 l10,-10 z" fill="none" stroke="#DD3355" stroke-width="2"/>
<path d="M41.238533,-144.17334 l10,10 m-10,0 l10,-10 z" fill="none" stroke="#DD3355" stroke-width="2"/>
<path d="M41.238533,-150.67111 l10,10 m-10,0 l10,-10 z" fill="none" stroke="#DD3355" stroke-width="2"/>
<path d="M41.238533,-150.67111 l10,10 m-10,0 l10,-10 z" fill="none" stroke="#DD3355" stroke-width="2"/>
<path d="M41.605503,-151.65334 l10,10 m-10,0 l10,-10 z" fill="none" stroke="#DD3355" stroke-width="2"/>
<path d="M42.155964,-153.84445 l10,10 m-10,0 l10,-10 z" fill="none" stroke="#DD3355" stroke-width="2"/>
<path d="M44.541283,-158.22667 l10,10 m-10,0 l10,-10 z" fill="none" stroke="#DD3355" stroke-width="2"/>
<path d="M45.27523,-158.75555 l10,10 m-10,0 l10,-10 z" fill="none" stroke="#DD3355" stroke-width="2"/>
<path d="M45.458717,-133.59555 l10,10 m-10,0 l10,-10 z" fill="none" stroke="#DD3355" stroke-width="2"/>
<path d="M47.66055,-149.68889 l10,10 m-10,0 l10,-10 z" fill="none" stroke="#DD3355" stroke-width="2"/>
<path d="M50.59633,-156.18666 l10,10 m-10,0 l10,-10 z" fill="none" stroke="#DD3355" stroke-width="2"/>
<path d="M52.247707,-158 l10,10 m-10,0 l10,-10 z" fill="none" stroke="#DD3355" stroke-width="2"/>
<path d="M53.715595,-159.2089 l10,10 m-10,0 l10,-10 z" fill="none" stroke="#DD3355" stroke-width="2"/>
<path d="M53.715595,-160.49333 l10,10 m-10,0 l10,-10 z" fill="none" stroke="#DD3355" stroke-width="2"/>
<path d="M53.715595,-159.73778 l10,10 m-10,0 l10,-10 z" fill="none" stroke="#DD3355" stroke-width="2"/>
<path d="M55,-159.73778 l10,10 m-10,0 l10,-10 z" fill="none" stroke="#DD3355" stroke-width="2"/>
<path d="M55.183487,-172.65778 l10,10 m-10,0 l10,-10 z" fill="none" stroke="#DD3355" stroke-width="2"/>
<path d="M56.46789,-172.65778 l10,10 m-10,0 l10,-10 z" fill="none" stroke="#DD3355" stroke-width="2"/>
<path d="M57.568806,-172.65778 l10,10 m-10,0 l10,-10 z" fill="none" stroke="#DD3355" stroke-width="2"/>
<path d="M57.93578,-172.65778 l10,10 m-10,0 l10,-10 z" fill="none" stroke="#DD3355" stroke-width="2"/>
<path d="M58.119267,-172.65778 l10,10 m-10,0 l10,-10 z" fill="none" stroke="#DD3355" stroke-width="2"/>
<path d="M59.036697,-172.73334 l10,10 m-10,0 l10,-10 z" fill="none" stroke="#DD3355" stroke-width="2"/>
<path d="M59.587154,-172.73334 l10,10 m-10,0 l10,-10 z" fill="none" stroke="#DD3355" stroke-width="2"/>
<path d="M59.95413,-195.70222 l10,10 m-10,0 l10,-10 z" fill="none" stroke="#DD3355" stroke-width="2"/>
<path d="M59.95413,-181.19556 l10,10 m-10,0 l10,-10 z" fill="none" stroke="#DD3355" stroke-width="2"/>
<path d="M60.321102,-174.54666 l10,10 m-10,0 l10,-10 z" fill="none" stroke="#DD3355" stroke-width="2"/>
<path d="M61.972477,-174.92444 l10,10 m-10,0 l10,-10 z" fill="none" stroke="#DD3355" stroke-width="2"/>
<path d="M62.155964,-174.92444 l10,10 m-10,0 l10,-10 z" fill="none" stroke="#DD3355" stroke-width="2"/>
<path d="M62.155964,-174.92444 l10,10 m-10,0 l10,-10 z" fill="none" stroke="#DD3355" stroke-width="2"/>
<path d="M62.155964,-174.92444 l10,10 m-10,0 l10,-10 z" fill="none" stroke="#DD3355" stroke-width="2"/>
<path d="M62.33945,-181.42223 l10,10 m-10,0 l10,-10 z" fill="none" stroke="#DD3355" stroke-width="2"/>
<path d="M62.889908,-181.42223 l10,10 m-10,0 l10,-10 z" fill="none" stroke="#DD3355" stroke-width="2"/>
<path d="M62.889908,-181.42223 l10,10 m-10,0 l10,-10 z" fill="none" stroke="#DD3355" stroke-width="2"/>
<path d="M63.44037,-190.71556 l10,10 m-10,0 l10,-10 z" fill="none" stroke="#DD3355" stroke-width="2"/>
<path d="M63.44037,-190.71556 l10,10 m-10,0 l10,-10 z" fill="none" stroke="#DD3355" stroke-width="2"/>
<path d="M64.17431,-196.91112 l10,10 m-10,0 l10,-10 z" fill="none" stroke="#DD3355" stroke-width="2"/>
<path d="M64.357796,-196.91112 l10,10 m-10,0 l10,-10 z" fill="none" stroke="#DD3355" stroke-width="2"/>
<path d="M66.00917,-196.91112 l10,10 m-10,0 l10,-10 z" fill="none" stroke="#DD3355" stroke-width="2"/>
<path d="M66.55963,-196.91112 l10,10 m-10,0 l10,-10 z" fill="none" stroke="#DD3355" stroke-width="2"/>
<path d="M66.74312,-197.21333 l10,10 m-10,0 l10,-10 z" fill="none" stroke="#DD3355" stroke-width="2"/>
<path d="M67.11009,-216.40445 l10,10 m-10,0 l10,-10 z" fill="none" stroke="#DD3355" stroke-width="2"/>
<path d="M67.11009,-216.10222 l10,10 m-10,0 l10,-10 z" fill="none" stroke="#DD3355" stroke-width="2"/>
<path d="M70.9633,-222.44888 l10,10 m-10,0 l10,-10 z" fill="none" stroke="#DD3355" stroke-width="2"/>
<path d="M75.55046,-222.44888 l10,10 m-10,0 l10,-10 z" fill="none" stroke="#DD3355" stroke-width="2"/>
<path d="M75.55046,-229.4 l10,10 m-10,0 l10,-10 z" fill="none" stroke="#DD3355" stroke-width="2"/>
<path d="M75.73395,-222.90222 l10,10 m-10,0 l10,-10 z" fill="none" stroke="#DD3355" stroke-width="2"/>
<path d="M76.100914,-222.90222 l10,10 m-10,0 l10,-10 z" fill="none" stroke="#DD3355" stroke-width="2"/>
<path d="M76.2844,-222.90222 l10,10 m-10,0 l10,-10 z" fill="none" stroke="#DD3355" stroke-width="2"/>
<path d="M76.2844,-228.72 l10,10 m-10,0 l10,-10 z" fill="none" stroke="#DD3355" stroke-width="2"/>
<path d="M76.2844,-230.68445 l10,10 m-10,0 l10,-10 z" fill="none" stroke="#DD3355" stroke-width="2"/>
<path d="M76.2844,-224.48889 l10,10 m-10,0 l10,-10 z" fill="none" stroke="#DD3355" stroke-width="2"/>
<path d="M76.2844,-224.48889 l10,10 m-10,0 l10,-10 z" fill="none" stroke="#DD3355" stroke-width="2"/>
<path d="M76.83486,-235.52 l10,10 m-10,0 l10,-10 z" fill="none" stroke="#DD3355" stroke-width="2"/>
<path d="M77.01835,-236.65334 l10,10 m-10,0 l10,-10 z" fill="none" stroke="#DD3355" stroke-width="2"/>
<path d="M78.11926,-234.61333 l10,10 m-10,0 l10,-10 z" fill="none" stroke="#DD3355" stroke-width="2"/>
<path d="M78.48624,-211.49333 l10,10 m-10,0 l10,-10 z" fill="none" stroke="#DD3355" stroke-width="2"/>
<path d="M80.87156,-210.88889 l10,10 m-10,0 l10,-10 z" fill="none" stroke="#DD3355" stroke-width="2"/>
<path d="M82.33945,-197.13777 l10,10 m-10,0 l10,-10 z" fill="none" stroke="#DD3355" stroke-width="2"/>
<path d="M84.54128,-197.13777 l10,10 m-10,0 l10,-10 z" fill="none" stroke="#DD3355" stroke-width="2"/>
<path d="M86.55963,-168.04889 l10,10 m-10,0 l10,-10 z" fill="none" stroke="#DD3355" stroke-width="2"/>
<path d="M87.11009,-168.04889 l10,10 m-10,0 l10,-10 z" fill="none" stroke="#DD3355" stroke-width="2"/>
<path d="M87.11009,-168.04889 l10,10 m-10,0 l10,-10 z" fill="none" stroke="#DD3355" stroke-width="2"/>
<path d="M90.04587,-168.04889 l10,10 m-10,0 l10,-10 z" fill="none" stroke="#DD3355" stroke-width="2"/>
<path d="M91.88074,-152.93777 l10,10 m-10,0 l10,-10 z" fill="none" stroke="#DD3355" stroke-width="2"/>
<path d="M92.43119,-150.97333 l10,10 m-10,0 l10,-10 z" fill="none" stroke="#DD3355" stroke-width="2"/>
<path d="M95.18349,-150.97333 l10,10 m-10,0 l10,-10 z" fill="none" stroke="#DD3355" stroke-width="2"/>
<path d="M97.01835,-158.68 l10,10 m-10,0 l10,-10 z" fill="none" stroke="#DD3355" stroke-width="2"/>
<path d="M97.56881,-140.47112 l10,10 m-10,0 l10,-10 z" fill="none" stroke="#DD3355" stroke-width="2"/>
<path d="M98.11926,-139.11111 l10,10 m-10,0 l10,-10 z" fill="none" stroke="#DD3355" stroke-width="2"/>
<path d="M100.3211,-141.15111 l10,10 m-10,0 l10,-10 z" fill="none" stroke="#DD3355" stroke-width="2"/>
<path d="M100.504585,-145.23111 l10,10 m-10,0 l10,-10 z" fill="none" stroke="#DD3355" stroke-width="2"/>
<path d="M100.504585,-145.76 l10,10 m-10,0 l10,-10 z" fill="none" stroke="#DD3355" stroke-width="2"/>
<path d="M101.42202,-152.93777 l10,10 m-10,0 l10,-10 z" fill="none" stroke="#DD3355" stroke-width="2"/>
<path d="M101.97248,-152.93777 l10,10 m-10,0 l10,-10 z" fill="none" stroke="#DD3355" stroke-width="2"/>
<path d="M102.15596,-175.07556 l10,10 m-10,0 l10,-10 z" fill="none" stroke="#DD3355" stroke-width="2"/>
<path d="M102.522934,-161.17334 l10,10 m-10,0 l10,-10 z" fill="none" stroke="#DD3355" stroke-width="2"/>
<path d="M108.211006,-148.10222 l10,10 m-10,0 l10,-10 z" fill="none" stroke="#DD3355" stroke-width="2"/>
<path d="M108.39449,-148.17778 l10,10 m-10,0 l10,-10 z" fill="none" stroke="#DD3355" stroke-width="2"/>
<path d="M109.495415,-148.02667 l10,10 m-10,0 l10,-10 z" fill="none" stroke="#DD3355" stroke-width="2"/>
<path d="M110.04587,-148.25333 l10,10 m-10,0 l10,-10 z" fill="none" stroke="#DD3355" stroke-width="2"/>
<path d="M111.14679,-147.12 l10,10 m-10,0 l10,-10 z" fill="none" stroke="#DD3355" stroke-width="2"/>
<path d="M114.44954,-135.78667 l10,10 m-10,0 l10,-10 z" fill="none" stroke="#DD3355" stroke-width="2"/>
<path d="M115.366974,-140.62222 l10,10 m-10,0 l10,-10 z" fill="none" stroke="#DD3355" stroke-width="2"/>
<path d="M115.73395,-140.77333 l10,10 m-10,0 l10,-10 z" fill="none" stroke="#DD3355" stroke-width="2"/>
<path d="M116.83486,-140.77333 l10,10 m-10,0 l10,-10 z" fill="none" stroke="#DD3355" stroke-width="2"/>
<path d="M118.66972,-140.77333 l10,10 m-10,0 l10,-10 z" fill="none" stroke="#DD3355" stroke-width="2"/>
<path d="M120.3211,-140.77333 l10,10 m-10,0 l10,-10 z" fill="none" stroke="#DD3355" stroke-width="2"/>
<path d="M120.3211,-141 l10,10 m-10,0 l10,-10 z" fill="none" stroke="#DD3355" stroke-width="2"/>
<path d="M120.3211,-141 l10,10 m-10,0 l10,-10 z" fill="none" stroke="#DD3355" stroke-width="2"/>
<path d="M120.504585,-141 l10,10 m-10,0 l10,-10 z" fill="none" stroke="#DD3355" stroke-width="2"/>
<path d="M122.522934,-154.67555 l10,10 m-10,0 l10,-10 z" fill="none" stroke="#DD3355" stroke-width="2"/>
<path d="M130.41284,-155.50667 l10,10 m-10,0 l10,-10 z" fill="none" stroke="#DD3355" stroke-width="2"/>
<path d="M131.33028,-150.82222 l10,10 m-10,0 l10,-10 z" fill="none" stroke="#DD3355" stroke-width="2"/>
<path d="M134.08257,-148.25333 l10,10 m-10,0 l10,-10 z" fill="none" stroke="#DD3355" stroke-width="2"/>
<path d="M134.44954,-145.83556 l10,10 m-10,0 l10,-10 z" fill="none" stroke="#DD3355" stroke-width="2"/>
<path d="M134.44954,-149.16 l10,10 m-10,0 l10,-10 z" fill="none" stroke="#DD3355" stroke-width="2"/>
<path d="M134.63303,-148.78223 l10,10 m-10,0 l10,-10 z" fill="none" stroke="#DD3355" stroke-width="2"/>
<path d="M135,-151.12445 l10,10 m-10,0 l10,-10 z" fill="none" stroke="#DD3355" stroke-width="2"/>
<path d="M135.91743,-152.18222 l10,10 m-10,0 l10,-10 z" fill="none" stroke="#DD3355" stroke-width="2"/>
<path d="M138.48624,-153.46666 l10,10 m-10,0 l10,-10 z" fill="none" stroke="#DD3355" stroke-width="2"/>
<path d="M139.22018,-154.52444 l10,10 m-10,0 l10,-10 z" fill="none" stroke="#DD3355" stroke-width="2"/>
<path d="M140.87157,-156.86667 l10,10 m-10,0 l10,-10 z" fill="none" stroke="#DD3355" stroke-width="2"/>
<path d="M141.42201,-156.86667 l10,10 m-10,0 l10,-10 z" fill="none" stroke="#DD3355" stroke-width="2"/>
<path d="M143.62386,-156.86667 l10,10 m-10,0 l10,-10 z" fill="none" stroke="#DD3355" stroke-width="2"/>
<path d="M145.6422,-156.86667 l10,10 m-10,0 l10,-10 z" fill="none" stroke="#DD3355" stroke-width="2"/>
<path d="M148.3945,-157.09334 l10,10 m-10,0 l10,-10 z" fill="none" stroke="#DD3355" stroke-width="2"/>
<path d="M148.3945,-152.86223 l10,10 m-10,0 l10,-10 z" fill="none" stroke="#DD3355" stroke-width="2"/>
<path d="M148.3945,-151.88 l10,10 m-10,0 l10,-10 z" fill="none" stroke="#DD3355" stroke-width="2"/>
<path d="M148.3945,-154.6 l10,10 m-10,0 l10,-10 z" fill="none" stroke="#DD3355" stroke-width="2"/>
<path d="M148.76147,-154.52444 l10,10 m-10,0 l10,-10 z" fill="none" stroke="#DD3355" stroke-width="2"/>
<path d="M148.94496,-152.33333 l10,10 m-10,0 l10,-10 z" fill="none" stroke="#DD3355" stroke-width="2"/>
<path d="M151.33028,-149.31111 l10,10 m-10,0 l10,-10 z" fill="none" stroke="#DD3355" stroke-width="2"/>
<path d="M151.88074,-147.87555 l10,10 m-10,0 l10,-10 z" fill="none" stroke="#DD3355" stroke-width="2"/>
<path d="M152.06422,-146.89333 l10,10 m-10,0 l10,-10 z" fill="none" stroke="#DD3355" stroke-width="2"/>
<path d="M152.98166,-145.60889 l10,10 m-10,0 l10,-10 z" fill="none" stroke="#DD3355" stroke-width="2"/>
<path d="M152.98166,-144.55112 l10,10 m-10,0 l10,-10 z" fill="none" stroke="#DD3355" stroke-width="2"/>
<path d="M154.26605,-136.16444 l10,10 m-10,0 l10,-10 z" fill="none" stroke="#DD3355" stroke-width="2"/>
<path d="M154.63303,-137.44888 l10,10 m-10,0 l10,-10 z" fill="none" stroke="#DD3355" stroke-width="2"/>
<path d="M156.65138,-134.3511 l10,10 m-10,0 l10,-10 z" fill="none" stroke="#DD3355" stroke-width="2"/>
<path d="M157.38531,-132.23555 l10,10 m-10,0 l10,-10 z" fill="none" stroke="#DD3355" stroke-width="2"/>
<path d="M161.6055,-140.69778 l10,10 m-10,0 l10,-10 z" fill="none" stroke="#DD3355" stroke-width="2"/>
<path d="M163.99083,-175.37778 l10,10 m-10,0 l10,-10 z" fill="none" stroke="#DD3355" stroke-width="2"/>
<path d="M166.00917,-188.14667 l10,10 m-10,0 l10,-10 z" fill="none" stroke="#DD3355" stroke-width="2"/>
<path d="M166.37614,-188.0711 l10,10 m-10,0 l10,-10 z" fill="none" stroke="#DD3355" stroke-width="2"/>
<path d="M166.74312,-189.05333 l10,10 m-10,0 l10,-10 z" fill="none" stroke="#DD3355" stroke-width="2"/>
<path d="M167.66055,-207.7911 l10,10 m-10,0 l10,-10 z" fill="none" stroke="#DD3355" stroke-width="2"/>
<path d="M168.21101,-220.48445 l10,10 m-10,0 l10,-10 z" fill="none" stroke="#DD3355" stroke-width="2"/>
<path d="M168.3945,-221.92 l10,10 m-10,0 l10,-10 z" fill="none" stroke="#DD3355" stroke-width="2"/>
<path d="M169.12843,-221.99556 l10,10 m-10,0 l10,-10 z" fill="none" stroke="#DD3355" stroke-width="2"/>
<path d="M169.31192,-221.92 l10,10 m-10,0 l10,-10 z" fill="none" stroke="#DD3355" stroke-width="2"/>
<path d="M170.04587,-226.98222 l10,10 m-10,0 l10,-10 z" fill="none" stroke="#DD3355" stroke-width="2"/>
<path d="M172.4312,-232.49777 l10,10 m-10,0 l10,-10 z" fill="none" stroke="#DD3355" stroke-width="2"/>
<path d="M173.89908,-232.57333 l10,10 m-10,0 l10,-10 z" fill="none" stroke="#DD3355" stroke-width="2"/>
<path d="M173.89908,-235.67111 l10,10 m-10,0 l10,-10 z" fill="none" stroke="#DD3355" stroke-width="2"/>
<path d="M174.44954,-239.29778 l10,10 m-10,0 l10,-10 z" fill="none" stroke="#DD3355" stroke-width="2"/>
<path d="M175.73395,-230.83556 l10,10 m-10,0 l10,-10 z" fill="none" stroke="#DD3355" stroke-width="2"/>
<path d="M175.91743,-212.62666 l10,10 m-10,0 l10,-10 z" fill="none" stroke="#DD3355" stroke-width="2"/>
<path d="M176.28441,-200.61333 l10,10 m-10,0 l10,-10 z" fill="none" stroke="#DD3355" stroke-width="2"/>
<path d="M177.01834,-199.32889 l10,10 m-10,0 l10,-10 z" fill="none" stroke="#DD3355" stroke-width="2"/>
<path d="M177.5688,-200.61333 l10,10 m-10,0 l10,-10 z" fill="none" stroke="#DD3355" stroke-width="2"/>
<path d="M178.11926,-181.87555 l10,10 m-10,0 l10,-10 z" fill="none" stroke="#DD3355" stroke-width="2"/>
<path d="M179.22018,-183.91556 l10,10 m-10,0 l10,-10 z" fill="none" stroke="#DD3355" stroke-width="2"/>
<path d="M179.58716,-180.89333 l10,10 m-10,0 l10,-10 z" fill="none" stroke="#DD3355" stroke-width="2"/>
<path d="M179.77065,-177.79556 l10,10 m-10,0 l10,-10 z" fill="none" stroke="#DD3355" stroke-width="2"/>
<path d="M180.5046,-177.79556 l10,10 m-10,0 l10,-10 z" fill="none" stroke="#DD3355" stroke-width="2"/>
<path d="M185.45871,-178.9289 l10,10 m-10,0 l10,-10 z" fill="none" stroke="#DD3355" stroke-width="2"/>
<path d="M186.00917,-190.48889 l10,10 m-10,0 l10,-10 z" fill="none" stroke="#DD3355" stroke-width="2"/>
<path d="M187.66055,-196.68445 l10,10 m-10,0 l10,-10 z" fill="none" stroke="#DD3355" stroke-width="2"/>
<path d="M189.31192,-209.98222 l10,10 m-10,0 l10,-10 z" fill="none" stroke="#DD3355" stroke-width="2"/>
<path d="M191.51376,-209.52888 l10,10 m-10,0 l10,-10 z" fill="none" stroke="#DD3355" stroke-width="2"/>
<path d="M192.4312,-201.21777 l10,10 m-10,0 l10,-10 z" fill="none" stroke="#DD3355" stroke-width="2"/>
<path d="M194.81651,-207.7911 l10,10 m-10,0 l10,-10 z" fill="none" stroke="#DD3355" stroke-width="2"/>
<path d="M195.36697,-205.90222 l10,10 m-10,0 l10,-10 z" fill="none" stroke="#DD3355" stroke-width="2"/>
<path d="M195.91743,-207.26222 l10,10 m-10,0 l10,-10 z" fill="none" stroke="#DD3355" stroke-width="2"/>
<path d="M195.91743,-207.26222 l10,10 m-10,0 l10,-10 z" fill="none" stroke="#DD3355" stroke-width="2"/>
<path d="M196.10092,-207.26222 l10,10 m-10,0 l10,-10 z" fill="none" stroke="#DD3355" stroke-width="2"/>
<path d="M196.83487,-194.41777 l10,10 m-10,0 l10,-10 z" fill="none" stroke="#DD3355" stroke-width="2"/>
<path d="M197.01834,-197.51555 l10,10 m-10,0 l10,-10 z" fill="none" stroke="#DD3355" stroke-width="2"/>
<path d="M197.20183,-199.6311 l10,10 m-10,0 l10,-10 z" fill="none" stroke="#DD3355" stroke-width="2"/>
<path d="M197.20183,-199.70667 l10,10 m-10,0 l10,-10 z" fill="none" stroke="#DD3355" stroke-width="2"/>
<path d="M199.77065,-186.03111 l10,10 m-10,0 l10,-10 z" fill="none" stroke="#DD3355" stroke-width="2"/>
<path d="M202.33945,-169.10667 l10,10 m-10,0 l10,-10 z" fill="none" stroke="#DD3355" stroke-width="2"/>
<path d="M204.90826,-158.30222 l10,10 m-10,0 l10,-10 z" fill="none" stroke="#DD3355" stroke-width="2"/>
<path d="M204.90826,-145.00444 l10,10 m-10,0 l10,-10 z" fill="none" stroke="#DD3355" stroke-width="2"/>
<path d="M207.84404,-117.95556 l10,10 m-10,0 l10,-10 z" fill="none" stroke="#DD3355" stroke-width="2"/>
<path d="M208.21101,-114.026665 l10,10 m-10,0 l10,-10 z" fill="none" stroke="#DD3355" stroke-width="2"/>
<path d="M208.76147,-107.37778 l10,10 m-10,0 l10,-10 z" fill="none" stroke="#DD3355" stroke-width="2"/>
<path d="M209.4954,-115.613335 l10,10 m-10,0 l10,-10 z" fill="none" stroke="#DD3355" stroke-width="2"/>
<path d="M210.41284,-115.613335 l10,10 m-10,0 l10,-10 z" fill="none" stroke="#DD3355" stroke-width="2"/>
<path d="M210.59633,-114.253334 l10,10 m-10,0 l10,-10 z" fill="none" stroke="#DD3355" stroke-width="2"/>
<path d="M211.33028,-113.95111 l10,10 m-10,0 l10,-10 z" fill="none" stroke="#DD3355" stroke-width="2"/>
<path d="M212.61469,-119.08889 l10,10 m-10,0 l10,-10 z" fill="none" stroke="#DD3355" stroke-width="2"/>
<path d="M212.79817,-119.013336 l10,10 m-10,0 l10,-10 z" fill="none" stroke="#DD3355" stroke-width="2"/>
<path d="M217.93578,-124.15111 l10,10 m-10,0 l10,-10 z" fill="none" stroke="#DD3355" stroke-width="2"/>
<path d="M218.30275,-126.49333 l10,10 m-10,0 l10,-10 z" fill="none" stroke="#DD3355" stroke-width="2"/>
<path d="M221.23853,-165.78223 l10,10 m-10,0 l10,-10 z" fill="none" stroke="#DD3355" stroke-width="2"/>
<path d="M223.25688,-175.15111 l10,10 m-10,0 l10,-10 z" fill="none" stroke="#DD3355" stroke-width="2"/>
<path d="M223.44037,-178.4 l10,10 m-10,0 l10,-10 z" fill="none" stroke="#DD3355" stroke-width="2"/>
<path d="M223.99083,-174.32 l10,10 m-10,0 l10,-10 z" fill="none" stroke="#DD3355" stroke-width="2"/>
<path d="M225.09174,-189.05333 l10,10 m-10,0 l10,-10 z" fill="none" stroke="#DD3355" stroke-width="2"/>
<path d="M225.27522,-201.29333 l10,10 m-10,0 l10,-10 z" fill="none" stroke="#DD3355" stroke-width="2"/>
<path d="M225.6422,-201.3689 l10,10 m-10,0 l10,-10 z" fill="none" stroke="#DD3355" stroke-width="2"/>
<path d="M226.74312,-208.62222 l10,10 m-10,0 l10,-10 z" fill="none" stroke="#DD3355" stroke-width="2"/>
<path d="M226.9266,-211.87111 l10,10 m-10,0 l10,-10 z" fill="none" stroke="#DD3355" stroke-width="2"/>
<path d="M229.4954,-203.40889 l10,10 m-10,0 l10,-10 z" fill="none" stroke="#DD3355" stroke-width="2"/>
<path d="M229.86238,-204.39111 l10,10 m-10,0 l10,-10 z" fill="none" stroke="#DD3355" stroke-width="2"/>
<path d="M230.22935,-205.22223 l10,10 m-10,0 l10,-10 z" fill="none" stroke="#DD3355" stroke-width="2"/>
<path d="M231.51376,-202.04889 l10,10 m-10,0 l10,-10 z" fill="none" stroke="#DD3355" stroke-width="2"/>
<path d="M232.4312,-197.81778 l10,10 m-10,0 l10,-10 z" fill="none" stroke="#DD3355" stroke-width="2"/>
<path d="M232.61469,-195.47556 l10,10 m-10,0 l10,-10 z" fill="none" stroke="#DD3355" stroke-width="2"/>
<path d="M233.71559,-171.0711 l10,10 m-10,0 l10,-10 z" fill="none" stroke="#DD3355" stroke-width="2"/>
<path d="M235.36697,-160.11555 l10,10 m-10,0 l10,-10 z" fill="none" stroke="#DD3355" stroke-width="2"/>
<path d="M235.55046,-160.26666 l10,10 m-10,0 l10,-10 z" fill="none" stroke="#DD3355" stroke-width="2"/>
<path d="M236.28441,-160.41777 l10,10 m-10,0 l10,-10 z" fill="none" stroke="#DD3355" stroke-width="2"/>
<path d="M236.83487,-169.03111 l10,10 m-10,0 l10,-10 z" fill="none" stroke="#DD3355" stroke-width="2"/>
<path d="M236.83487,-169.7111 l10,10 m-10,0 l10,-10 z" fill="none" stroke="#DD3355" stroke-width="2"/>
<path d="M239.58716,-161.32445 l10,10 m-10,0 l10,-10 z" fill="none" stroke="#DD3355" stroke-width="2"/>
<path d="M239.77065,-152.7111 l10,10 m-10,0 l10,-10 z" fill="none" stroke="#DD3355" stroke-width="2"/>
<path d="M239.77065,-149.46222 l10,10 m-10,0 l10,-10 z" fill="none" stroke="#DD3355" stroke-width="2"/>
<path d="M240.13762,-164.34666 l10,10 m-10,0 l10,-10 z" fill="none" stroke="#DD3355" stroke-width="2"/>
<path d="M240.3211,-163.66667 l10,10 m-10,0 l10,-10 z" fill="none" stroke="#DD3355" stroke-width="2"/>
<path d="M240.87157,-159.05779 l10,10 m-10,0 l10,-10 z" fill="none" stroke="#DD3355" stroke-width="2"/>
<path d="M241.05504,-162.23111 l10,10 m-10,0 l10,-10 z" fill="none" stroke="#DD3355" stroke-width="2"/>
<path d="M241.42201,-161.02222 l10,10 m-10,0 l10,-10 z" fill="none" stroke="#DD3355" stroke-width="2"/>
<path d="M244.90826,-147.95111 l10,10 m-10,0 l10,-10 z" fill="none" stroke="#DD3355" stroke-width="2"/>
<path d="M247.29358,-137.97778 l10,10 m-10,0 l10,-10 z" fill="none" stroke="#DD3355" stroke-width="2"/>
<path d="M251.14679,-145.08 l10,10 m-10,0 l10,-10 z" fill="none" stroke="#DD3355" stroke-width="2"/>
<path d="M251.51376,-149.16 l10,10 m-10,0 l10,-10 z" fill="none" stroke="#DD3355" stroke-width="2"/>
<path d="M251.51376,-153.76889 l10,10 m-10,0 l10,-10 z" fill="none" stroke="#DD3355" stroke-width="2"/>
<path d="M252.98166,-151.42667 l10,10 m-10,0 l10,-10 z" fill="none" stroke="#DD3355" stroke-width="2"/>
<path d="M253.16513,-150.74667 l10,10 m-10,0 l10,-10 z" fill="none" stroke="#DD3355" stroke-width="2"/>
<path d="M254.63303,-159.13333 l10,10 m-10,0 l10,-10 z" fill="none" stroke="#DD3355" stroke-width="2"/>
<path d="M254.63303,-154.82666 l10,10 m-10,0 l10,-10 z" fill="none" stroke="#DD3355" stroke-width="2"/>
<path d="M254.63303,-140.01778 l10,10 m-10,0 l10,-10 z" fill="none" stroke="#DD3355" stroke-width="2"/>
<path d="M258.66974,-96.12 l10,10 m-10,0 l10,-10 z" fill="none" stroke="#DD3355" stroke-width="2"/>
<path d="M259.03668,-100.72889 l10,10 m-10,0 l10,-10 z" fill="none" stroke="#DD3355" stroke-width="2"/>
<path d="M259.40366,-110.09778 l10,10 m-10,0 l10,-10 z" fill="none" stroke="#DD3355" stroke-width="2"/>
<path d="M260.1376,-101.937775 l10,10 m-10,0 l10,-10 z" fill="none" stroke="#DD3355" stroke-width="2"/>
<path d="M260.68808,-104.12889 l10,10 m-10,0 l10,-10 z" fill="none" stroke="#DD3355" stroke-width="2"/>
<path d="M261.6055,-120.07111 l10,10 m-10,0 l10,-10 z" fill="none" stroke="#DD3355" stroke-width="2"/>
<path d="M262.15598,-124.83111 l10,10 m-10,0 l10,-10 z" fill="none" stroke="#DD3355" stroke-width="2"/>
<path d="M262.88992,-118.18222 l10,10 m-10,0 l10,-10 z" fill="none" stroke="#DD3355" stroke-width="2"/>
<path d="M265.27524,-108.13333 l10,10 m-10,0 l10,-10 z" fill="none" stroke="#DD3355" stroke-width="2"/>
<path d="M265.82568,-109.41778 l10,10 m-10,0 l10,-10 z" fill="none" stroke="#DD3355" stroke-width="2"/>
<path d="M268.57797,-131.40445 l10,10 m-10,0 l10,-10 z" fill="none" stroke="#DD3355" stroke-width="2"/>
<path d="M269.12845,-133.44444 l10,10 m-10,0 l10,-10 z" fill="none" stroke="#DD3355" stroke-width="2"/>
<path d="M270.41284,-148.10222 l10,10 m-10,0 l10,-10 z" fill="none" stroke="#DD3355" stroke-width="2"/>
<path d="M271.1468,-150.44444 l10,10 m-10,0 l10,-10 z" fill="none" stroke="#DD3355" stroke-width="2"/>
<path d="M272.0642,-165.48 l10,10 m-10,0 l10,-10 z" fill="none" stroke="#DD3355" stroke-width="2"/>
<path d="M274.81653,-206.50667 l10,10 m-10,0 l10,-10 z" fill="none" stroke="#DD3355" stroke-width="2"/>
<path d="M275.55045,-201.89778 l10,10 m-10,0 l10,-10 z" fill="none" stroke="#DD3355" stroke-width="2"/>
<path d="M276.2844,-186.33333 l10,10 m-10,0 l10,-10 z" fill="none" stroke="#DD3355" stroke-width="2"/>
<path d="M281.789,-199.70667 l10,10 m-10,0 l10,-10 z" fill="none" stroke="#DD3355" stroke-width="2"/>
<path d="M281.97247,-198.72444 l10,10 m-10,0 l10,-10 z" fill="none" stroke="#DD3355" stroke-width="2"/>
<path d="M282.52295,-190.26222 l10,10 m-10,0 l10,-10 z" fill="none" stroke="#DD3355" stroke-width="2"/>
<path d="M283.62384,-184.59555 l10,10 m-10,0 l10,-10 z" fill="none" stroke="#DD3355" stroke-width="2"/>
<path d="M283.62384,-191.62222 l10,10 m-10,0 l10,-10 z" fill="none" stroke="#DD3355" stroke-width="2"/>
<path d="M283.80734,-197.44 l10,10 m-10,0 l10,-10 z" fill="none" stroke="#DD3355" stroke-width="2"/>
<path d="M285.09174,-201.97333 l10,10 m-10,0 l10,-10 z" fill="none" stroke="#DD3355" stroke-width="2"/>
<path d="M285.6422,-184.97333 l10,10 m-10,0 l10,-10 z" fill="none" stroke="#DD3355" stroke-width="2"/>
<path d="M285.82568,-182.93333 l10,10 m-10,0 l10,-10 z" fill="none" stroke="#DD3355" stroke-width="2"/>
<path d="M285.82568,-168.27556 l10,10 m-10,0 l10,-10 z" fill="none" stroke="#DD3355" stroke-width="2"/>
<path d="M286.55963,-170.08888 l10,10 m-10,0 l10,-10 z" fill="none" stroke="#DD3355" stroke-width="2"/>
<path d="M286.55963,-169.86223 l10,10 m-10,0 l10,-10 z" fill="none" stroke="#DD3355" stroke-width="2"/>
<path d="M286.74313,-167.67111 l10,10 m-10,0 l10,-10 z" fill="none" stroke="#DD3355" stroke-width="2"/>
<path d="M288.211,-170.76889 l10,10 m-10,0 l10,-10 z" fill="none" stroke="#DD3355" stroke-width="2"/>
<path d="M288.57797,-180.13777 l10,10 m-10,0 l10,-10 z" fill="none" stroke="#DD3355" stroke-width="2"/>
<path d="M289.12845,-172.96 l10,10 m-10,0 l10,-10 z" fill="none" stroke="#DD3355" stroke-width="2"/>
<path d="M291.88074,-172.50667 l10,10 m-10,0 l10,-10 z" fill="none" stroke="#DD3355" stroke-width="2"/>
<path d="M292.0642,-178.24889 l10,10 m-10,0 l10,-10 z" fill="none" stroke="#DD3355" stroke-width="2"/>
<path d="M292.6147,-181.57333 l10,10 m-10,0 l10,-10 z" fill="none" stroke="#DD3355" stroke-width="2"/>
<path d="M292.98166,-179.68445 l10,10 m-10,0 l10,-10 z" fill="none" stroke="#DD3355" stroke-width="2"/>
<path d="M295.36697,-178.55112 l10,10 m-10,0 l10,-10 z" fill="none" stroke="#DD3355" stroke-width="2"/>
<path d="M295.36697,-172.05333 l10,10 m-10,0 l10,-10 z" fill="none" stroke="#DD3355" stroke-width="2"/>
<path d="M296.10092,-168.2 l10,10 m-10,0 l10,-10 z" fill="none" stroke="#DD3355" stroke-width="2"/>
<path d="M297.01834,-163.06223 l10,10 m-10,0 l10,-10 z" fill="none" stroke="#DD3355" stroke-width="2"/>
<path d="M297.3853,-163.44 l10,10 m-10,0 l10,-10 z" fill="none" stroke="#DD3355" stroke-width="2"/>
<path d="M297.3853,-163.81778 l10,10 m-10,0 l10,-10 z" fill="none" stroke="#DD3355" stroke-width="2"/>
<path d="M305.09174,-170.16444 l10,10 m-10,0 l10,-10 z" fill="none" stroke="#DD3355" stroke-width="2"/>
<path d="M305.6422,-172.50667 l10,10 m-10,0 l10,-10 z" fill="none" stroke="#DD3355" stroke-width="2"/>
<path d="M306.0092,-173.7911 l10,10 m-10,0 l10,-10 z" fill="none" stroke="#DD3355" stroke-width="2"/>
<path d="M306.0092,-179.45778 l10,10 m-10,0 l10,-10 z" fill="none" stroke="#DD3355" stroke-width="2"/>
<path d="M307.11008,-183.9911 l10,10 m-10,0 l10,-10 z" fill="none" stroke="#DD3355" stroke-width="2"/>
<path d="M307.47705,-208.47112 l10,10 m-10,0 l10,-10 z" fill="none" stroke="#DD3355" stroke-width="2"/>
<path d="M308.02753,-215.42223 l10,10 m-10,0 l10,-10 z" fill="none" stroke="#DD3355" stroke-width="2"/>
<path d="M309.12845,-213.15555 l10,10 m-10,0 l10,-10 z" fill="none" stroke="#DD3355" stroke-width="2"/>
<path d="M309.49542,-213.60889 l10,10 m-10,0 l10,-10 z" fill="none" stroke="#DD3355" stroke-width="2"/>
<path d="M310.96332,-223.65778 l10,10 m-10,0 l10,-10 z" fill="none" stroke="#DD3355" stroke-width="2"/>
<path d="M312.79816,-224.7911 l10,10 m-10,0 l10,-10 z" fill="none" stroke="#DD3355" stroke-width="2"/>
<path d="M315.18347,-223.28 l10,10 m-10,0 l10,-10 z" fill="none" stroke="#DD3355" stroke-width="2"/>
<path d="M315.18347,-228.41777 l10,10 m-10,0 l10,-10 z" fill="none" stroke="#DD3355" stroke-width="2"/>
<path d="M315.36697,-228.04 l10,10 m-10,0 l10,-10 z" fill="none" stroke="#DD3355" stroke-width="2"/>
<path d="M315.91742,-230.76 l10,10 m-10,0 l10,-10 z" fill="none" stroke="#DD3355" stroke-width="2"/>
<path d="M317.20184,-224.56444 l10,10 m-10,0 l10,-10 z" fill="none" stroke="#DD3355" stroke-width="2"/>
<path d="M317.56882,-222.52444 l10,10 m-10,0 l10,-10 z" fill="none" stroke="#DD3355" stroke-width="2"/>
<path d="M319.95413,-204.01334 l10,10 m-10,0 l10,-10 z" fill="none" stroke="#DD3355" stroke-width="2"/>
<path d="M319.95413,-193.28444 l10,10 m-10,0 l10,-10 z" fill="none" stroke="#DD3355" stroke-width="2"/>
<path d="M321.6055,-168.65334 l10,10 m-10,0 l10,-10 z" fill="none" stroke="#DD3355" stroke-width="2"/>
<path d="M322.15598,-148.02667 l10,10 m-10,0 l10,-10 z" fill="none" stroke="#DD3355" stroke-width="2"/>
<path d="M322.33945,-140.92444 l10,10 m-10,0 l10,-10 z" fill="none" stroke="#DD3355" stroke-width="2"/>
<path d="M323.44037,-141.75555 l10,10 m-10,0 l10,-10 z" fill="none" stroke="#DD3355" stroke-width="2"/>
<path d="M324.90826,-141.30222 l10,10 m-10,0 l10,-10 z" fill="none" stroke="#DD3355" stroke-width="2"/>
<path d="M325.6422,-132.31111 l10,10 m-10,0 l10,-10 z" fill="none" stroke="#DD3355" stroke-width="2"/>
<path d="M327.66055,-133.14223 l10,10 m-10,0 l10,-10 z" fill="none" stroke="#DD3355" stroke-width="2"/>
<path d="M327.84402,-138.58223 l10,10 m-10,0 l10,-10 z" fill="none" stroke="#DD3355" stroke-width="2"/>
<path d="M328.3945,-136.92 l10,10 m-10,0 l10,-10 z" fill="none" stroke="#DD3355" stroke-width="2"/>
<path d="M329.8624,-130.72444 l10,10 m-10,0 l10,-10 z" fill="none" stroke="#DD3355" stroke-width="2"/>
<path d="M331.33026,-118.71111 l10,10 m-10,0 l10,-10 z" fill="none" stroke="#DD3355" stroke-width="2"/>
<path d="M334.26605,-118.56 l10,10 m-10,0 l10,-10 z" fill="none" stroke="#DD3355" stroke-width="2"/>
<path d="M335.55045,-104.657776 l10,10 m-10,0 l10,-10 z" fill="none" stroke="#DD3355" stroke-width="2"/>
<path d="M335.91742,-116.44444 l10,10 m-10,0 l10,-10 z" fill="none" stroke="#DD3355" stroke-width="2"/>
<path d="M336.2844,-124.075554 l10,10 m-10,0 l10,-10 z" fill="none" stroke="#DD3355" stroke-width="2"/>
<path d="M336.65137,-147.49777 l10,10 m-10,0 l10,-10 z" fill="none" stroke="#DD3355" stroke-width="2"/>
<path d="M339.22018,-139.56444 l10,10 m-10,0 l10,-10 z" fill="none" stroke="#DD3355" stroke-width="2"/>
<path d="M339.22018,-139.56444 l10,10 m-10,0 l10,-10 z" fill="none" stroke="#DD3355" stroke-width="2"/>
<path d="M339.40366,-142.96445 l10,10 m-10,0 l10,-10 z" fill="none" stroke="#DD3355" stroke-width="2"/>
<path d="M341.42203,-154.97778 l10,10 m-10,0 l10,-10 z" fill="none" stroke="#DD3355" stroke-width="2"/>
<path d="M342.15598,-160.64444 l10,10 m-10,0 l10,-10 z" fill="none" stroke="#DD3355" stroke-width="2"/>
<path d="M343.0734,-163.13777 l10,10 m-10,0 l10,-10 z" fill="none" stroke="#DD3355" stroke-width="2"/>
<path d="M344.72476,-168.42667 l10,10 m-10,0 l10,-10 z" fill="none" stroke="#DD3355" stroke-width="2"/>
<path d="M347.47705,-177.04 l10,10 m-10,0 l10,-10 z" fill="none" stroke="#DD3355" stroke-width="2"/>
<path d="M348.57797,-185.04889 l10,10 m-10,0 l10,-10 z" fill="none" stroke="#DD3355" stroke-width="2"/>
<path d="M350.96332,-196.83556 l10,10 m-10,0 l10,-10 z" fill="none" stroke="#DD3355" stroke-width="2"/>
<path d="M353.34863,-207.94221 l10,10 m-10,0 l10,-10 z" fill="none" stroke="#DD3355" stroke-width="2"/>
<path d="M354.44955,-224.86667 l10,10 m-10,0 l10,-10 z" fill="none" stroke="#DD3355" stroke-width="2"/>
<path d="M355.73395,-232.34666 l10,10 m-10,0 l10,-10 z" fill="none" stroke="#DD3355" stroke-width="2"/>
<path d="M357.01834,-234.76445 l10,10 m-10,0 l10,-10 z" fill="none" stroke="#DD3355" stroke-width="2"/>
<path d="M357.01834,-233.40445 l10,10 m-10,0 l10,-10 z" fill="none" stroke="#DD3355" stroke-width="2"/>
<path d="M359.03668,-238.39111 l10,10 m-10,0 l10,-10 z" fill="none" stroke="#DD3355" stroke-width="2"/>
<path d="M361.05505,-224.48889 l10,10 m-10,0 l10,-10 z" fill="none" stroke="#DD3355" stroke-width="2"/>
<path d="M361.42203,-222.37334 l10,10 m-10,0 l10,-10 z" fill="none" stroke="#DD3355" stroke-width="2"/>
<path d="M363.25687,-210.51111 l10,10 m-10,0 l10,-10 z" fill="none" stroke="#DD3355" stroke-width="2"/>
<path d="M364.72476,-196.83556 l10,10 m-10,0 l10,-10 z" fill="none" stroke="#DD3355" stroke-width="2"/>
<path d="M365.27524,-184.06667 l10,10 m-10,0 l10,-10 z" fill="none" stroke="#DD3355" stroke-width="2"/>
<path d="M365.27524,-175.75555 l10,10 m-10,0 l10,-10 z" fill="none" stroke="#DD3355" stroke-width="2"/>
<path d="M366.0092,-171.97778 l10,10 m-10,0 l10,-10 z" fill="none" stroke="#DD3355" stroke-width="2"/>
<path d="M367.29358,-169.63556 l10,10 m-10,0 l10,-10 z" fill="none" stroke="#DD3355" stroke-width="2"/>
<path d="M368.76147,-173.26222 l10,10 m-10,0 l10,-10 z" fill="none" stroke="#DD3355" stroke-width="2"/>
<path d="M369.12845,-162.23111 l10,10 m-10,0 l10,-10 z" fill="none" stroke="#DD3355" stroke-width="2"/>
<path d="M369.31192,-158.98222 l10,10 m-10,0 l10,-10 z" fill="none" stroke="#DD3355" stroke-width="2"/>
<path d="M370.22937,-161.85333 l10,10 m-10,0 l10,-10 z" fill="none" stroke="#DD3355" stroke-width="2"/>
<path d="M370.41284,-158.07556 l10,10 m-10,0 l10,-10 z" fill="none" stroke="#DD3355" stroke-width="2"/>
<path d="M371.69724,-155.65778 l10,10 m-10,0 l10,-10 z" fill="none" stroke="#DD3355" stroke-width="2"/>
<path d="M372.79816,-152.78667 l10,10 m-10,0 l10,-10 z" fill="none" stroke="#DD3355" stroke-width="2"/>
<path d="M373.16513,-166.68889 l10,10 m-10,0 l10,-10 z" fill="none" stroke="#DD3355" stroke-width="2"/>
<path d="M373.7156,-167.74667 l10,10 m-10,0 l10,-10 z" fill="none" stroke="#DD3355" stroke-width="2"/>
<path d="M375.18347,-168.80444 l10,10 m-10,0 l10,-10 z" fill="none" stroke="#DD3355" stroke-width="2"/>
<path d="M375.36697,-176.88889 l10,10 m-10,0 l10,-10 z" fill="none" stroke="#DD3355" stroke-width="2"/>
<path d="M375.55045,-184.67111 l10,10 m-10,0 l10,-10 z" fill="none" stroke="#DD3355" stroke-width="2"/>
<path d="M376.10092,-187.61778 l10,10 m-10,0 l10,-10 z" fill="none" stroke="#DD3355" stroke-width="2"/>
<path d="M377.20184,-184.44444 l10,10 m-10,0 l10,-10 z" fill="none" stroke="#DD3355" stroke-width="2"/>
<path d="M377.7523,-184.97333 l10,10 m-10,0 l10,-10 z" fill="none" stroke="#DD3355" stroke-width="2"/>
<path d="M378.30276,-178.47556 l10,10 m-10,0 l10,-10 z" fill="none" stroke="#DD3355" stroke-width="2"/>
<path d="M379.77063,-175.68 l10,10 m-10,0 l10,-10 z" fill="none" stroke="#DD3355" stroke-width="2"/>
<path d="M380.1376,-175.60445 l10,10 m-10,0 l10,-10 z" fill="none" stroke="#DD3355" stroke-width="2"/>
<path d="M381.05505,-168.3511 l10,10 m-10,0 l10,-10 z" fill="none" stroke="#DD3355" stroke-width="2"/>
<path d="M382.70642,-166.9911 l10,10 m-10,0 l10,-10 z" fill="none" stroke="#DD3355" stroke-width="2"/>
<path d="M383.25687,-164.6489 l10,10 m-10,0 l10,-10 z" fill="none" stroke="#DD3355" stroke-width="2"/>
<path d="M383.80734,-159.81334 l10,10 m-10,0 l10,-10 z" fill="none" stroke="#DD3355" stroke-width="2"/>
<path d="M384.3578,-159.81334 l10,10 m-10,0 l10,-10 z" fill="none" stroke="#DD3355" stroke-width="2"/>
<path d="M390.59634,-145.68445 l10,10 m-10,0 l10,-10 z" fill="none" stroke="#DD3355" stroke-width="2"/>
<path d="M392.43118,-143.5689 l10,10 m-10,0 l10,-10 z" fill="none" stroke="#DD3355" stroke-width="2"/>
<path d="M393.89908,-141.37778 l10,10 m-10,0 l10,-10 z" fill="none" stroke="#DD3355" stroke-width="2"/>
<path d="M394.44955,-141.45334 l10,10 m-10,0 l10,-10 z" fill="none" stroke="#DD3355" stroke-width="2"/>
<path d="M395.91742,-141.83112 l10,10 m-10,0 l10,-10 z" fill="none" stroke="#DD3355" stroke-width="2"/>
<path d="M395.91742,-141.83112 l10,10 m-10,0 l10,-10 z" fill="none" stroke="#DD3355" stroke-width="2"/>
<path d="M397.3853,-140.09334 l10,10 m-10,0 l10,-10 z" fill="none" stroke="#DD3355" stroke-width="2"/>
<path d="M397.56882,-133.44444 l10,10 m-10,0 l10,-10 z" fill="none" stroke="#DD3355" stroke-width="2"/>
<path d="M398.66974,-137.0711 l10,10 m-10,0 l10,-10 z" fill="none" stroke="#DD3355" stroke-width="2"/>
<path d="M398.66974,-137.0711 l10,10 m-10,0 l10,-10 z" fill="none" stroke="#DD3355" stroke-width="2"/>
<path d="M399.03668,-135.40889 l10,10 m-10,0 l10,-10 z" fill="none" stroke="#DD3355" stroke-width="2"/>
<path d="M400.3211,-136.69333 l10,10 m-10,0 l10,-10 z" fill="none" stroke="#DD3355" stroke-width="2"/>
<path d="M401.789,-141.52888 l10,10 m-10,0 l10,-10 z" fill="none" stroke="#DD3355" stroke-width="2"/>
<path d="M401.97247,-149.61333 l10,10 m-10,0 l10,-10 z" fill="none" stroke="#DD3355" stroke-width="2"/>
<path d="M402.88992,-149.61333 l10,10 m-10,0 l10,-10 z" fill="none" stroke="#DD3355" stroke-width="2"/>
<path d="M403.44037,-182.55556 l10,10 m-10,0 l10,-10 z" fill="none" stroke="#DD3355" stroke-width="2"/>
<path d="M406.9266,-191.16888 l10,10 m-10,0 l10,-10 z" fill="none" stroke="#DD3355" stroke-width="2"/>
<path d="M408.211,-193.36 l10,10 m-10,0 l10,-10 z" fill="none" stroke="#DD3355" stroke-width="2"/>
<path d="M408.94495,-193.81334 l10,10 m-10,0 l10,-10 z" fill="none" stroke="#DD3355" stroke-width="2"/>
<path d="M408.94495,-193.43556 l10,10 m-10,0 l10,-10 z" fill="none" stroke="#DD3355" stroke-width="2"/>
<path d="M408.94495,-193.58667 l10,10 m-10,0 l10,-10 z" fill="none" stroke="#DD3355" stroke-width="2"/>
<path d="M409.8624,-204.61778 l10,10 m-10,0 l10,-10 z" fill="none" stroke="#DD3355" stroke-width="2"/>
<path d="M410.22937,-211.26666 l10,10 m-10,0 l10,-10 z" fill="none" stroke="#DD3355" stroke-width="2"/>
<path d="M410.77982,-210.36 l10,10 m-10,0 l10,-10 z" fill="none" stroke="#DD3355" stroke-width="2"/>
<path d="M412.2477,-210.66222 l10,10 m-10,0 l10,-10 z" fill="none" stroke="#DD3355" stroke-width="2"/>
<path d="M412.98166,-211.5689 l10,10 m-10,0 l10,-10 z" fill="none" stroke="#DD3355" stroke-width="2"/>
<path d="M413.34863,-211.04 l10,10 m-10,0 l10,-10 z" fill="none" stroke="#DD3355" stroke-width="2"/>
<path d="M413.34863,-210.96445 l10,10 m-10,0 l10,-10 z" fill="none" stroke="#DD3355" stroke-width="2"/>
<path d="M413.7156,-210.13333 l10,10 m-10,0 l10,-10 z" fill="none" stroke="#DD3355" stroke-width="2"/>
<path d="M413.7156,-210.13333 l10,10 m-10,0 l10,-10 z" fill="none" stroke="#DD3355" stroke-width="2"/>
<path d="M413.89908,-210.13333 l10,10 m-10,0 l10,-10 z" fill="none" stroke="#DD3355" stroke-width="2"/>
<path d="M413.89908,-204.31555 l10,10 m-10,0 l10,-10 z" fill="none" stroke="#DD3355" stroke-width="2"/>
<path d="M415,-206.88445 l10,10 m-10,0 l10,-10 z" fill="none" stroke="#DD3355" stroke-width="2"/>
<path d="M415.73395,-206.73334 l10,10 m-10,0 l10,-10 z" fill="none" stroke="#DD3355" stroke-width="2"/>
<path d="M415.91742,-209.15111 l10,10 m-10,0 l10,-10 z" fill="none" stroke="#DD3355" stroke-width="2"/>
<path d="M416.65137,-208.24445 l10,10 m-10,0 l10,-10 z" fill="none" stroke="#DD3355" stroke-width="2"/>
<path d="M417.56882,-190.56444 l10,10 m-10,0 l10,-10 z" fill="none" stroke="#DD3355" stroke-width="2"/>
<path d="M422.52295,-185.57777 l10,10 m-10,0 l10,-10 z" fill="none" stroke="#DD3355" stroke-width="2"/>
<path d="M422.70642,-186.78667 l10,10 m-10,0 l10,-10 z" fill="none" stroke="#DD3355" stroke-width="2"/>
<path d="M422.88992,-186.48445 l10,10 m-10,0 l10,-10 z" fill="none" stroke="#DD3355" stroke-width="2"/>
<path d="M423.44037,-186.56 l10,10 m-10,0 l10,-10 z" fill="none" stroke="#DD3355" stroke-width="2"/>
<path d="M423.9908,-182.85777 l10,10 m-10,0 l10,-10 z" fill="none" stroke="#DD3355" stroke-width="2"/>
<path d="M424.3578,-182.85777 l10,10 m-10,0 l10,-10 z" fill="none" stroke="#DD3355" stroke-width="2"/>
<path d="M426.19266,-167.14223 l10,10 m-10,0 l10,-10 z" fill="none" stroke="#DD3355" stroke-width="2"/>
<path d="M427.84402,-165.48 l10,10 m-10,0 l10,-10 z" fill="none" stroke="#DD3355" stroke-width="2"/>
<path d="M428.02753,-140.01778 l10,10 m-10,0 l10,-10 z" fill="none" stroke="#DD3355" stroke-width="2"/>
<path d="M428.211,-140.01778 l10,10 m-10,0 l10,-10 z" fill="none" stroke="#DD3355" stroke-width="2"/>
<path d="M429.31192,-137.44888 l10,10 m-10,0 l10,-10 z" fill="none" stroke="#DD3355" stroke-width="2"/>
<path d="M430.41284,-127.475555 l10,10 m-10,0 l10,-10 z" fill="none" stroke="#DD3355" stroke-width="2"/>
<path d="M430.96332,-124.98222 l10,10 m-10,0 l10,-10 z" fill="none" stroke="#DD3355" stroke-width="2"/>
<path d="M432.98166,-117.88 l10,10 m-10,0 l10,-10 z" fill="none" stroke="#DD3355" stroke-width="2"/>
<path d="M435,-112.89333 l10,10 m-10,0 l10,-10 z" fill="none" stroke="#DD3355" stroke-width="2"/>
<path d="M435,-117.88 l10,10 m-10,0 l10,-10 z" fill="none" stroke="#DD3355" stroke-width="2"/>
<path d="M436.83487,-116.67111 l10,10 m-10,0 l10,-10 z" fill="none" stroke="#DD3355" stroke-width="2"/>
<path d="M438.48624,-102.24 l10,10 m-10,0 l10,-10 z" fill="none" stroke="#DD3355" stroke-width="2"/>
<path d="M438.48624,-102.164444 l10,10 m-10,0 l10,-10 z" fill="none" stroke="#DD3355" stroke-width="2"/>
<path d="M438.66974,-106.09333 l10,10 m-10,0 l10,-10 z" fill="none" stroke="#DD3355" stroke-width="2"/>
<path d="M439.22018,-115.46222 l10,10 m-10,0 l10,-10 z" fill="none" stroke="#DD3355" stroke-width="2"/>
<path d="M439.22018,-131.40445 l10,10 m-10,0 l10,-10 z" fill="none" stroke="#DD3355" stroke-width="2"/>
<path d="M439.77063,-133.97333 l10,10 m-10,0 l10,-10 z" fill="none" stroke="#DD3355" stroke-width="2"/>
<path d="M440.68808,-141.07556 l10,10 m-10,0 l10,-10 z" fill="none" stroke="#DD3355" stroke-width="2"/>
<path d="M440.87155,-140.77333 l10,10 m-10,0 l10,-10 z" fill="none" stroke="#DD3355" stroke-width="2"/>
<path d="M441.05505,-140.47112 l10,10 m-10,0 l10,-10 z" fill="none" stroke="#DD3355" stroke-width="2"/>
<path d="M441.23853,-150.74667 l10,10 m-10,0 l10,-10 z" fill="none" stroke="#DD3355" stroke-width="2"/>
<path d="M443.62384,-162.23111 l10,10 m-10,0 l10,-10 z" fill="none" stroke="#DD3355" stroke-width="2"/>
<path d="M443.62384,-170.08888 l10,10 m-10,0 l10,-10 z" fill="none" stroke="#DD3355" stroke-width="2"/>
<path d="M445.6422,-205.67555 l10,10 m-10,0 l10,-10 z" fill="none" stroke="#DD3355" stroke-width="2"/>
<path d="M445.82568,-205.67555 l10,10 m-10,0 l10,-10 z" fill="none" stroke="#DD3355" stroke-width="2"/>
<path d="M449.49542,-204.24 l10,10 m-10,0 l10,-10 z" fill="none" stroke="#DD3355" stroke-width="2"/>
<path d="M450.04587,-213.38222 l10,10 m-10,0 l10,-10 z" fill="none" stroke="#DD3355" stroke-width="2"/>
<path d="M450.41284,-207.48889 l10,10 m-10,0 l10,-10 z" fill="none" stroke="#DD3355" stroke-width="2"/>
<path d="M450.41284,-207.11111 l10,10 m-10,0 l10,-10 z" fill="none" stroke="#DD3355" stroke-width="2"/>
<path d="M450.41284,-197.74222 l10,10 m-10,0 l10,-10 z" fill="none" stroke="#DD3355" stroke-width="2"/>
<path d="M451.1468,-198.19556 l10,10 m-10,0 l10,-10 z" fill="none" stroke="#DD3355" stroke-width="2"/>
<path d="M451.1468,-197.2889 l10,10 m-10,0 l10,-10 z" fill="none" stroke="#DD3355" stroke-width="2"/>
<path d="M452.43118,-187.31555 l10,10 m-10,0 l10,-10 z" fill="none" stroke="#DD3355" stroke-width="2"/>
<path d="M456.2844,-189.65778 l10,10 m-10,0 l10,-10 z" fill="none" stroke="#DD3355" stroke-width="2"/>
<path d="M456.2844,-189.96 l10,10 m-10,0 l10,-10 z" fill="none" stroke="#DD3355" stroke-width="2"/>
<path d="M456.2844,-189.80888 l10,10 m-10,0 l10,-10 z" fill="none" stroke="#DD3355" stroke-width="2"/>
<path d="M459.40366,-178.47556 l10,10 m-10,0 l10,-10 z" fill="none" stroke="#DD3355" stroke-width="2"/>
<path d="M460.50458,-179.00444 l10,10 m-10,0 l10,-10 z" fill="none" stroke="#DD3355" stroke-width="2"/>
<path d="M461.23853,-165.93333 l10,10 m-10,0 l10,-10 z" fill="none" stroke="#DD3355" stroke-width="2"/>
<path d="M462.33945,-174.09334 l10,10 m-10,0 l10,-10 z" fill="none" stroke="#DD3355" stroke-width="2"/>
<path d="M462.52295,-173.41333 l10,10 m-10,0 l10,-10 z" fill="none" stroke="#DD3355" stroke-width="2"/>
<path d="M463.62384,-180.66667 l10,10 m-10,0 l10,-10 z" fill="none" stroke="#DD3355" stroke-width="2"/>
<path d="M464.90826,-187.01334 l10,10 m-10,0 l10,-10 z" fill="none" stroke="#DD3355" stroke-width="2"/>
<path d="M465.4587,-187.16444 l10,10 m-10,0 l10,-10 z" fill="none" stroke="#DD3355" stroke-width="2"/>
<path d="M466.0092,-187.76889 l10,10 m-10,0 l10,-10 z" fill="none" stroke="#DD3355" stroke-width="2"/>
<path d="M466.9266,-187.08888 l10,10 m-10,0 l10,-10 z" fill="none" stroke="#DD3355" stroke-width="2"/>
<path d="M469.31192,-187.08888 l10,10 m-10,0 l10,-10 z" fill="none" stroke="#DD3355" stroke-width="2"/>
<path d="M470.22937,-195.85333 l10,10 m-10,0 l10,-10 z" fill="none" stroke="#DD3355" stroke-width="2"/>
<path d="M471.51376,-193.81334 l10,10 m-10,0 l10,-10 z" fill="none" stroke="#DD3355" stroke-width="2"/>
<path d="M471.51376,-193.81334 l10,10 m-10,0 l10,-10 z" fill="none" stroke="#DD3355" stroke-width="2"/>
<path d="M472.0642,-193.81334 l10,10 m-10,0 l10,-10 z" fill="none" stroke="#DD3355" stroke-width="2"/>
<path d="M473.5321,-220.40889 l10,10 m-10,0 l10,-10 z" fill="none" stroke="#DD3355" stroke-width="2"/>
<path d="M475,-234.76445 l10,10 m-10,0 l10,-10 z" fill="none" stroke="#DD3355" stroke-width="2"/>
</g>
</g>
<g>
<g>
<line stroke="black" stroke-width="1" x1="0" x2="0" y1="0" y2="10"/>
<line stroke="black" stroke-width="1" x1="91.74311926605505" x2="91.74311926605505" y1="0" y2="10"/>
<line stroke="black" stroke-width="1" x1="183.4862385321101" x2="183.4862385321101" y1="0" y2="10"/>
<line stroke="black" stroke-width="1" x1="275.22935779816515" x2="275.22935779816515" y1="0" y2="10"/>
<line stroke="black" stroke-width="1" x1="366.9724770642202" x2="366.9724770642202" y1="0" y2="10"/>
<line stroke="black" stroke-width="1" x1="458.7155963302752" x2="458.7155963302752" y1="0" y2="10"/>
</g>
<line stroke="black" stroke-width="1" x1="0" x2="480" y1="0" y2="0"/>
<g>
<text font-size="12" text-anchor="middle" x="0" y="20">
73
</text>
<text font-size="12" text-anchor="middle" x="91.74311926605505" y="20">
573
</text>
<text font-size="12" text-anchor="middle" x="183.4862385321101" y="20">
1073
</text>
<text font-size="12" text-anchor="middle" x="275.22935779816515" y="20">
1573
</text>
<text font-size="12" text-anchor="middle" x="366.9724770642202" y="20">
2073
</text>
<text font-size="12" text-anchor="middle" x="458.7155963302752" y="20">
2573
</text>
</g>
<text font-size="12" text-anchor="middle" x="240" y="30">
unix timestamp
</text>
</g>
<g>
<g>
<line stroke="black" stroke-width="1" x1="0" x2="-10" y1="-56.666666666666664" y2="-56.666666666666664"/>
<line stroke="black" stroke-width="1" x1="0" x2="-10" y1="-170" y2="-170"/>
<line stroke="black" stroke-width="1" x1="0" x2="-10" y1="-283.3333333333333" y2="-283.3333333333333"/>
</g>
<line stroke="black" stroke-width="1" x1="0" x2="0" y1="0" y2="-340"/>
<g>
<text dominant-baseline="middle" font-size="12" text-anchor="end" x="-15" y="-56.666666666666664">
-10
</text>
<text dominant-baseline="middle" font-size="12" text-anchor="end" x="-15" y="-170">
0
</text>
<text dominant-baseline="middle" font-size="12" text-anchor="end" x="-15" y="-283.3333333333333">
10
</text>
</g>
<text font-size="12" text-anchor="middle" transform="rotate(-90 -36 -170)" x="-36" y="-182">
returns
</text>
</g>
</g>
</svg>